<svg width="392" height="388" viewBox="0 0 392 388" fill="none" xmlns="http://www.w3.org/2000/svg">
<rect x="18" y="15" width="374" height="373" rx="20" fill="#C4C4C4"/>
<rect width="374" height="373" rx="20" fill="#CCF0F8"/>
<circle cx="223" cy="203" r="31" fill="#83DDCD"/>
<circle cx="230.419" cy="196.111" r="20.9316" fill="#CCF0F8"/>
<path d="M99.3867 160.025C99.3867 157.145 99.1426 154.19 98.6543 151.163C98.3613 149.698 97.6289 148.502 96.457 147.574C95.2852 146.598 93.9424 145.841 92.4287 145.304C90.9639 144.718 89.0596 144.107 86.7158 143.473C84.958 142.984 83.7129 142.618 82.9805 142.374L83.127 138.639H126.486C138.693 138.639 149.436 140.226 158.713 143.399C167.99 146.573 175.314 151.676 180.686 158.707C186.057 165.689 188.742 174.723 188.742 185.807C188.742 194.303 186.691 202.237 182.59 209.61C178.537 216.935 172.507 222.843 164.499 227.335C156.54 231.778 146.97 234 135.788 234H83.127L82.9805 230.191L86.8623 229.166C89.5967 228.531 91.7939 227.896 93.4541 227.262C95.1143 226.627 96.5059 225.577 97.6289 224.112C98.8008 222.599 99.3867 220.548 99.3867 217.96V160.025ZM115.134 214.151C115.134 218.399 115.939 221.744 117.551 224.186C119.211 226.627 122.019 227.945 125.974 228.141C128.708 228.287 131.516 228.36 134.396 228.36C142.404 228.36 149.191 226.505 154.758 222.794C160.324 219.034 164.475 214.176 167.209 208.219C169.943 202.262 171.311 195.987 171.311 189.396C171.311 180.655 169.748 172.916 166.623 166.178C163.498 159.391 158.64 154.044 152.048 150.138C145.505 146.231 137.302 144.278 127.438 144.278H115.134V214.151Z" fill="black"/>
<path d="M276.296 213.068C276.296 217.385 276.444 220.474 276.74 222.336C277.036 224.156 277.756 225.489 278.898 226.335C280.041 227.139 281.966 227.541 284.675 227.541C286.283 227.541 287.891 227.393 289.499 227.097C291.107 226.8 292.461 226.483 293.562 226.145L294.069 230.778C291.911 231.836 289.732 232.683 287.531 233.317C285.331 233.952 282.686 234.27 279.597 234.27C275.492 234.27 272.36 233.592 270.202 232.238C268.044 230.884 266.542 228.705 265.695 225.7C264.849 222.653 264.426 218.379 264.426 212.878V180.695H254.968V178.474C257.845 177.331 260.257 175.998 262.204 174.475C264.193 172.909 265.822 171.301 267.092 169.65C268.361 168 269.885 165.821 271.662 163.112C272.424 161.885 273.016 161.081 273.439 160.7C273.863 160.277 274.286 160.065 274.709 160.065C275.132 160.065 275.471 160.277 275.725 160.7C276.021 161.081 276.169 161.695 276.169 162.541V175.935H292.102V180.695H276.296V213.068Z" fill="black"/>
<circle cx="249" cy="179" r="4" fill="#2A8D81"/>
</svg>
