<svg width="122" height="123" viewBox="0 0 122 123" fill="none" xmlns="http://www.w3.org/2000/svg">
<rect width="122" height="122" rx="30" fill="#7675C0"/>
<path d="M81.506 39.5662L75.2678 37.0792L63.5186 66.4387L53.5548 90.8405C45.643 105.814 38.687 104.599 31.7311 103.383C30.7374 103.209 23.4721 100.853 24.8073 93.3467C25.8733 87.3546 13.3707 83.7899 13.4959 93.5762C13.5792 100.088 24.1351 107.704 28.8907 108.8C28.8907 108.8 50.4481 116.925 59.5039 91.8803C64.608 77.7642 81.506 39.5662 81.506 39.5662Z" fill="#6D5D5D"/>
<path d="M95.8461 96.8593L77.5535 38.6741L83.665 39.7423L101.958 97.9275L95.8461 96.8593Z" fill="#6D5D5D"/>
<path d="M60.3404 29.4875L83.302 38.513L85.2814 45.5764L61.9239 36.9433L60.3404 29.4875Z" fill="#6D5D5D"/>
<path d="M88.8532 97.3177C95.3403 97.3881 96.0241 96.4599 97.7292 94.9633C102.046 97.0086 104.307 97.498 108.084 97.3177L108.084 99.6722L88.8532 99.6722L88.8532 97.3177Z" fill="#6D5D5D"/>
<path d="M62.3953 71.8866L63.4445 65.9882L109.245 56.9639L99.9426 61.8254L62.3953 71.8866Z" fill="#6D5D5D"/>
<ellipse cx="78.9472" cy="22.0317" rx="4.35478" ry="4.31652" fill="#6D5D5D"/>
<path d="M78.8558 36.4269L72.6176 33.94L60.8684 63.2994L50.9046 87.7012C42.9928 102.675 36.0369 101.459 29.0809 100.244C28.0872 100.07 20.8219 97.7135 22.1572 90.2074C23.2231 84.2153 10.7205 80.6507 10.8457 90.4369C10.9291 96.9489 21.4849 104.565 26.2405 105.661C26.2405 105.661 47.798 113.786 56.8537 88.741C61.9579 74.6249 78.8558 36.4269 78.8558 36.4269Z" fill="white"/>
<path d="M93.196 93.7201L74.9034 35.5349L81.0148 36.603L99.3075 94.7882L93.196 93.7201Z" fill="white"/>
<path d="M57.6902 26.3482L80.6518 35.3737L82.6313 42.4371L59.2738 33.804L57.6902 26.3482Z" fill="white"/>
<path d="M86.2031 94.1785C92.6901 94.2488 93.374 93.3206 95.079 91.824C99.396 93.8693 101.657 94.3587 105.434 94.1785L105.434 96.5329L86.2031 96.5329L86.2031 94.1785Z" fill="white"/>
<path d="M59.7451 68.7473L62.1816 61.8995L106.594 53.8246L97.2925 58.6861L59.7451 68.7473Z" fill="white"/>
<ellipse cx="76.297" cy="18.8924" rx="4.35478" ry="4.31652" fill="white"/>
</svg>
