<svg width="1756" height="1804" viewBox="0 0 1756 1804" fill="none" xmlns="http://www.w3.org/2000/svg">
<path d="M636 1516V1128L1169 956L1151.5 1516H636Z" fill="#EBB395"/>
<path d="M146.744 1450.82C180.145 1408.97 481.298 1422.75 574.382 1336H1060.06C1293.87 1436.02 1501.94 1377.85 1570.93 1398.26C1731.36 1517.16 1712.2 1569.21 1756 1732C1085.31 1826.69 700.958 1827.18 0 1732C56.3979 1547.27 38.3287 1521.75 146.744 1450.82Z" fill="#302F2F"/>
<path d="M618 1462.5C609.587 1456.28 601.5 1441 609.5 1423.5C617.5 1406 1078 1439 1078 1439L1070 1477.5C1028.47 1505.56 1013.63 1499.93 941.5 1508.5C811.5 1501.5 717.47 1498.33 618 1462.5Z" fill="#202020"/>
<path d="M640 1260C611.818 1372.45 597.441 1441.33 620 1448C773.252 1483.13 1039.5 1489.5 1074 1450C1100 1445 1048.5 1244.5 1022.5 1254.5C953.077 1275.16 916.64 1290.31 834.001 1292C667.354 1290.18 706.252 1276.56 640 1260Z" fill="#302F2F"/>
<path d="M661 1489.5C787.422 1650.58 877.005 1658.82 1074.5 1489.5" stroke="#EBD2A0" stroke-width="3"/>
<path d="M764.991 80.8289C764.521 80.918 764.053 81.0094 763.589 81.1029C767.811 81.9041 796.641 84.4159 804.99 88.0173C813.428 91.6566 829.896 99.2154 838.323 100.238C843.206 100.83 856.985 114.079 860.915 117.13C877.618 130.098 898.855 138.686 914.988 151.994C955.12 185.099 1013.84 211.666 1040.17 258.742C1066.92 306.557 1098.72 348.877 1113.32 402.69C1127.31 454.278 1143.37 508.004 1158.13 558.14C1162.23 572.074 1178.84 582.964 1181.46 596.957C1186.09 621.637 1192.19 646.562 1199.8 670.818C1194.7 693.913 1178.98 832.091 1158.13 852.329C1148.61 861.565 1107.04 1064.87 1092.15 1075.33C1067.32 1094.07 952.153 1239.33 853.653 1239.33C833.729 1239.33 802.153 1246.35 757.653 1239.33C739.605 1223.23 720.577 1225.33 699.153 1210.83C675.402 1194.76 659.093 1182.63 641.476 1162.69C618.38 1136.54 584.016 1118.78 566.663 1088.46C560.063 1076.94 551.393 1066.8 544.996 1055.94C541.532 1050.05 526.588 1034.12 521.664 1031.14C510.45 1024.34 505.897 1003.9 500.923 993.039C496.59 983.578 488.911 967.586 488.331 957.456C487.675 945.994 482.393 934.598 481.665 921.873C480.926 908.974 476.28 895.996 472.405 883.775C464.568 859.057 471.665 821.923 471.665 795.717V711.433C471.665 683.873 466.153 652.671 466.153 625.336C466.153 598.754 466.784 568.69 471.665 542.638C476.598 516.309 475.086 482.223 486.664 457.502C494.597 440.566 494.73 416.241 499.997 397.838C505.438 378.829 509.127 360.66 515.738 342.128C526.023 313.292 540.293 282.607 554.255 255.507C560.45 243.484 567.953 232.157 574.255 219.925C579.162 210.4 583.727 193.004 593.514 187.577C605.835 180.744 613.809 165.488 626.476 158.464C639.175 151.422 646.941 138.005 659.994 130.968C676.49 122.074 690.547 107.034 709.807 100.238C729 93.4645 743.196 85.2106 763.589 81.1029C762.639 80.9226 762.935 80.8289 764.991 80.8289Z" fill="#FFCEAE"/>
<path d="M596.153 948.829C507.841 891.378 511.197 796.232 490.153 747.829L483.653 960.829L635.153 1105.33C627.153 1092.33 614.599 960.829 596.153 948.829Z" fill="#F9C5A9"/>
<path d="M508.153 418.829L681.153 262.829C599.153 395.329 583.153 427.329 524.653 583.329C502.153 681.829 482.953 776.265 479.653 878.329L434.153 631.829L508.153 418.829Z" fill="#FAC4A6"/>
<path d="M1186.15 739.329C1184.41 756.868 1181.71 773.356 1178.23 788.864L1164.15 876.829L1151.15 957.329C1151.15 957.329 1122.13 1044.49 1096.15 1073.83C1070.17 1103.16 1011.1 1156.67 962.153 1194.33C1020.15 1127.33 1026.91 1031.95 1050.15 996.329C1090.43 958.678 1153.71 898.026 1178.23 788.864L1186.15 739.329Z" fill="#F8C7AC"/>
<path d="M633.197 1098.82C589.971 1017.33 556.28 980.731 500.153 897.329L526.313 1076.94L589.971 1162.09L759.653 1239.83C701.153 1193.33 657.059 1134.04 633.197 1098.82Z" fill="#EEBDA2"/>
<path d="M738.153 42.8289C738.153 28.7456 758.069 15.8289 772.153 15.8289C786.236 15.8289 789.153 28.7456 789.153 42.8289V192.829C789.153 206.912 786.736 187.329 772.653 187.329C758.569 187.329 738.153 206.912 738.153 192.829V42.8289Z" fill="#CEBBAD"/>
<path d="M637.455 28.4291C675.611 8.29861 719.775 19.0381 761.888 18.4887C762.992 18.4742 763.905 19.3578 763.931 20.4621C765.181 75.1329 768.456 117.452 762.682 163.528C758.848 194.119 747.959 231.44 729.227 249.054C724.064 253.908 714.044 260.005 707.852 263.771L707.542 263.96C701.176 267.834 696.89 273.852 689.777 276.616C660.98 287.804 632.508 317.405 613.296 335.114C571.225 373.896 548.665 412.855 524.142 462.265C508.423 493.935 482.9 522.173 483.573 557.987C483.576 558.135 483.562 558.287 483.533 558.431C477.394 588.935 477.773 605.927 481.971 638.265C482.658 669.757 483.453 683.524 486.653 699.177C489.185 711.559 493.159 735.779 494.044 748.512C495.584 770.662 494.044 804.329 507.653 881.329C514.153 936.329 520.653 974.829 526.153 987.829C534.644 1015.3 585.202 1078.05 614.066 1119.21C614.125 1119.29 614.191 1119.37 614.261 1119.44C670.466 1178.14 664.405 1210.21 670.831 1232.43C670.94 1232.8 670.939 1233.2 670.827 1233.58C641.716 1331.18 641.725 1416.85 670.854 1486.65C670.95 1486.88 671.002 1487.12 671.009 1487.37C671.851 1516.2 698.11 1575.11 707.448 1602.72C707.503 1602.88 707.528 1603.03 707.556 1603.19L707.571 1603.28C708.804 1610.23 748.16 1645.35 734.584 1709.44C734.393 1710.34 733.599 1711.01 732.679 1711.04C724.709 1711.27 717.363 1711.82 709.846 1709C692.847 1702.63 659.854 1709.37 641.668 1709.77L575.308 1711.22C535.726 1712.08 490.681 1707.82 453.585 1721.99C424.663 1733.04 382.882 1739.82 356.261 1726.46C344.699 1720.66 336.05 1709.84 324.733 1703.7C307.405 1694.29 307.653 1679.53 302.899 1662.14C292.028 1622.36 314.148 1416.09 329.829 1375.33C329.954 1375.01 329.98 1374.71 329.933 1374.37C323.659 1328.32 344.658 1235.61 348.509 1214.44C352.877 1190.43 355.178 1064 359.999 1039.93C360.028 1039.78 360.038 1039.69 360.035 1039.54C359.558 1015.82 363.657 874.842 363.16 852.038C361.594 780.289 374.29 708.748 374.715 637.457C373.478 558.337 417.5 345.946 436.5 297.5C455.5 249.054 485.101 171.112 524.142 123.5C548.76 93.478 603.453 46.3674 637.455 28.4291Z" fill="#40231A"/>
<path d="M436.243 777.986C468.975 837.403 477.315 843.479 504.153 864.829C504.153 801.344 497.802 713.303 483.851 674.374C481.276 667.187 475.954 661.147 436.243 643.829C422.353 643.829 423.233 728.854 436.243 777.986Z" fill="#FAC4A6"/>
<path d="M896.153 610.829C919.153 596.829 1066.8 564.534 1030.65 581.329C994.502 598.123 876.653 698.329 867.653 856.329C861.653 756.329 866.653 635.829 896.153 610.829Z" fill="#F9C4AB" fill-opacity="0.7"/>
<path d="M765.322 608.829C742.322 594.829 594.672 562.534 630.822 579.329C666.973 596.123 788.653 677.329 797.653 835.329C803.653 735.329 794.822 633.829 765.322 608.829Z" fill="#F8C1A6" fill-opacity="0.7"/>
<path d="M926.153 572.829C917.653 574.374 911.872 575.225 902.428 576.306C902.604 581.143 902.828 585.988 902.054 590.374C902.824 594.468 903.239 595.231 903.66 598.079C903.977 600.222 903.369 599.732 906.403 600.268C912.569 600.09 908.593 599.653 912.569 600.09C919.183 600.817 926.929 600.618 933.72 599.916C939.496 599.319 944.647 598.02 949.791 597.031C958.072 595.439 967.017 593.973 975.29 593.445C978.554 593.237 980.849 592.193 985.072 591.565C986.066 591.637 987.683 591.339 991.643 590.83C995.132 589.906 991.643 590.83 999.338 589.218C1002.31 588.393 1004.19 588.072 1010.53 587.129C1016.86 586.186 1017.36 586.002 1027.19 585.947C1038.51 585.884 1043.35 584.677 1057.31 587.139L1080.24 591.183C1089.01 592.729 1093.85 595.642 1103.21 602.089C1110.82 603.431 1127.86 622.094 1122.53 615.338C1117.56 609.06 1115.78 601.351 1112.73 593.377C1111 588.853 1108.03 585.005 1107.1 580.012C1106.2 575.183 1101.25 568.659 1099.29 564.78C1094.73 555.762 1086.87 559.398 1079.01 557.326C1069.31 556.987 1063.73 557.881 1055.4 557.042C1049.57 556.453 1042.99 558.811 1037.08 557.769C1032.12 557.982 1027.63 557.191 1022.36 557.648C1016.52 558.679 996.838 561.831 991.957 562.899C980.305 565.448 970.617 565.674 956.153 567.253C951.299 568.186 931.653 571.829 926.153 572.829Z" fill="#93685A"/>
<path d="M770.465 145.965C769.747 100.742 762.78 64.2847 762.654 20.53C762.652 19.7432 762.815 18.9591 763.258 18.3093C773.388 3.46583 834.205 0 849.918 0C881.396 0 914.653 0.82877 946.653 7.82874C978.261 14.7431 1002.32 25.2738 1023.37 34.487L1023.61 34.5891C1023.97 34.7488 1024.32 34.8563 1024.71 34.9306C1083.09 46.02 1237.05 204.91 1258.65 248.329C1277.52 289.495 1287.15 305.829 1306.15 353.829C1325.15 401.829 1316.66 386.606 1328.15 423.329C1342.06 467.778 1342.15 484.829 1354.15 529.329C1376.21 611.12 1396.89 666.793 1415.29 723.305C1437.2 790.634 1442.51 863.095 1442.51 933.559C1436.15 1023.33 1456.13 1100.8 1460.9 1112.66C1471.9 1140.06 1487.75 1164.91 1496.95 1192.89C1506.62 1222.33 1502.1 1256.04 1502.1 1286.7C1502.1 1361.4 1556.02 1446.42 1535.15 1518.32C1529.16 1538.96 1521.76 1572.34 1502.52 1610.49C1502.24 1611.04 1502.07 1611.65 1502 1612.27C1500.36 1626.67 1496.21 1624.78 1483.65 1657.59C1472.69 1686.24 1483.58 1662.48 1461.11 1706.91C1460.98 1707.18 1460.85 1707.49 1460.76 1707.78C1456.4 1722.58 1460.58 1708.1 1445.2 1731.1C1444.65 1731.92 1444.38 1732.93 1443.98 1733.82C1440.17 1742.2 1407.85 1761.88 1401.12 1763.35C1387.98 1766.23 1371.97 1770.49 1359.74 1775.84C1341.51 1783.82 1316.18 1779.83 1296.84 1779.83C1270.54 1779.83 1238.24 1783.16 1214.08 1772.58C1201.61 1767.13 1187.21 1766.42 1174.35 1761.9C1155.25 1755.18 1132.5 1748.66 1112.19 1747.23C1105.67 1746.77 989.996 1736.73 988.735 1732.38C985.777 1722.19 987.952 1705.7 988.551 1695.08C989.267 1682.39 999.193 1669.93 1001.98 1657.59C1003.97 1648.77 1010.15 1631 1015.77 1624.08C1029.87 1606.73 1036.48 1584.55 1041.34 1563.05C1044.53 1548.89 1053 1536.55 1053.15 1518.79C1053.15 1518.48 1053.12 1518.16 1053.07 1517.86C1041.51 1455.51 1066.62 1438.47 1041.66 1370.87C1041.45 1370.31 1041.34 1369.69 1041.33 1369.1C1041.2 1332.39 1032.61 1294.48 1016.04 1263.33C1015.86 1263 1015.72 1262.63 1015.62 1262.26C1007.83 1233.11 1015.62 1232.44 1015.77 1172.11C1015.77 1170.98 1016.18 1169.82 1016.88 1168.93C1118.21 1041.06 1126.22 1004.67 1140.65 960.329C1155.13 915.829 1154.65 890.829 1164.15 840.329C1169.88 809.87 1181 768.696 1175.09 751.329C1162.65 713.329 1169.15 725.829 1151.18 680.069C1139.45 658.984 1125.37 640.422 1116.15 630.329C1103.93 618.297 1049.17 542.642 1038.65 529.329C1025.8 513.053 1004.16 486.612 989.653 472.329C959.451 442.591 938.152 399.817 907.853 369.983C892.093 354.465 877.17 334.225 859.85 320.181C847.847 310.448 834.591 296.844 826.744 283.599C820.725 273.439 808.478 266.763 803.57 255.891C799.199 246.207 792.776 239.003 785.759 228.706C785.552 228.404 785.378 228.073 785.245 227.732C780.313 215.118 778.96 207.424 774.741 189.593C770.465 171.52 770.71 161.41 770.465 145.965Z" fill="#40231A"/>
<path d="M590.048 670.905C588.142 669.081 586.183 667.718 584.27 665.72C585.319 663.885 588.312 660.149 589.605 658.756C590.646 657.635 592.949 656.305 594.006 655.167C597.701 653.115 599.605 652.187 601.987 649.907C604.844 648.5 604.844 648.5 608.177 646.449C609.781 645.036 610.082 645.936 613.416 643.885C616.749 641.833 617.702 640.808 621.511 638.244C625.321 636.705 626.718 636.719 631.512 634.654C633.893 633.628 636.804 632.452 638.655 632.09C640.822 631.666 645.729 630.492 647.703 629.526C651.037 628.909 651.23 628.909 654.082 628.909H658.897C660.529 628.909 664.864 628.31 666.276 628.5C669.228 628.898 669.339 628.909 672.466 628.909C675.8 630.551 679.895 630.631 682.943 632.09C684.421 632.797 687.554 633.763 689.134 634.141C690.598 634.492 693.278 636.329 694.848 636.705C697.604 637.365 698.623 638.619 701.025 640.056C703.583 641.586 706.278 642.859 709.135 644.91C710.965 646.881 712.902 648.16 714.854 650.051C719.127 654.193 723.421 658.756 727.8 663.372C730.848 668.208 732.235 668.05 732.079 670.905C732.025 671.904 730.499 674.464 729.886 675.312C729.38 676.013 727.8 679.103 727.8 679.978C727.8 681.378 726.799 682.02 725.339 682.945C724.089 683.737 725.694 686.842 724.374 687.474C721.236 688.976 717.398 690.129 714.373 691.577C711.835 692.791 707.706 692.09 704.373 692.602C701.039 693.115 697.097 693.93 692.944 694.654C686.277 696.192 679.597 696.829 672.619 696.829C669.813 696.829 667.228 696.192 662.749 695.677C659.132 694.141 658.656 694.654 652.465 693.115C650.084 692.602 648.059 692.606 646.275 692.09C644.25 691.504 643.365 691.212 641.19 691.126C636.562 690.941 631.436 689.596 627.013 688.13C623.068 686.823 619.005 686.153 615.084 684.645C611.283 683.183 607.798 681.417 604.251 679.719C602.194 678.735 600.654 677.366 598.714 676.205C597.286 675.351 595.207 674.416 594.006 673.382C592.807 672.349 591.238 672.045 590.048 670.905Z" fill="#EDD8C7"/>
<path d="M567.153 684.329L578 669L640.653 693.829C612.252 692.156 595.81 691.826 567.153 684.329Z" fill="#DAA78C"/>
<path d="M1089 688.735L1078.64 677L1013 702C1041.03 700.294 1060.71 696.385 1089 688.735Z" fill="#DAA78C"/>
<path d="M1084.65 671.829H1094.65C1065.15 645.829 1046.07 637.505 1001.15 634.829C1037.66 646.752 1047.27 654.332 1084.65 671.829Z" fill="#DAA78C"/>
<path d="M1084.35 651.534C1080.87 649.684 1078.8 648.918 1075.33 647.135C1071.87 645.608 1068.1 644.052 1064.59 643.096C1062.46 642.516 1059.59 641.742 1055.77 640.356C1051.01 638.628 1050.05 638.571 1045.91 637.493C1043.35 636.829 1043.71 636.842 1041.59 636.191C1038.1 635.114 1033.75 634.052 1031.87 633.876C1025.16 632.501 1022.27 632.4 1015.62 631.443C1008.32 631.188 1002.54 630.809 995.965 631.482C989.514 633.188 983.103 635.118 976.904 637.772C971.153 640.235 969.383 640.372 963.456 644.249C958.064 646.613 953.795 649.638 951.526 651.651C947.827 654.935 946.656 655.404 943.675 657.853" stroke="#995741" stroke-width="1.2" stroke-linecap="round"/>
<path d="M1075.59 680.075C1077.48 678.316 1079.41 677.02 1081.31 675.087C1080.37 673.217 1077.63 669.383 1076.44 667.949C1075.48 666.794 1073.32 665.387 1072.35 664.214C1068.87 662.04 1067.08 661.048 1064.88 658.69C1062.19 657.188 1062.19 657.188 1059.06 655.027C1057.57 653.561 1057.25 654.451 1054.13 652.289C1051.01 650.127 1050.13 649.07 1046.57 646.38C1042.97 644.715 1041.63 644.682 1037.1 642.458C1034.86 641.353 1032.11 640.08 1030.34 639.656C1028.28 639.16 1023.62 637.822 1021.76 636.791C1018.58 636.063 1018.4 636.056 1015.66 635.961L1011.05 635.799C1009.48 635.745 1005.35 635.001 1003.99 635.144C1001.14 635.442 1001.04 635.45 998.038 635.345C994.784 636.875 990.855 636.818 987.882 638.173C986.44 638.831 983.402 639.691 981.875 640.016C980.458 640.317 977.825 642.064 976.306 642.387C973.641 642.954 972.621 644.174 970.268 645.529C967.762 646.973 965.134 648.155 962.323 650.109C960.5 652.017 958.598 653.23 956.66 655.055C952.419 659.052 948.142 663.469 943.783 667.934C940.692 672.665 939.367 672.461 939.417 675.32C939.435 676.32 940.809 678.93 941.366 679.798C941.827 680.515 943.234 683.657 943.204 684.531C943.155 685.929 944.092 686.605 945.46 687.578C946.63 688.411 944.983 691.461 946.227 692.137C949.183 693.743 952.822 695.024 955.672 696.572C958.063 697.871 962.046 697.308 965.224 697.932C968.402 698.556 972.153 699.502 976.11 700.364C982.449 702.125 988.831 702.985 995.521 703.219C998.211 703.312 1000.71 702.763 1005.02 702.398C1008.55 700.984 1008.98 701.512 1014.97 700.182C1017.27 699.749 1019.21 699.821 1020.94 699.364C1022.91 698.847 1023.76 698.585 1025.85 698.571C1030.3 698.542 1035.26 697.369 1039.55 696.052C1043.38 694.878 1047.3 694.344 1051.11 692.968C1054.8 691.635 1058.21 689.986 1061.67 688.408C1063.67 687.494 1065.2 686.177 1067.1 685.082C1068.5 684.276 1070.52 683.412 1071.71 682.418C1072.9 681.426 1074.41 681.174 1075.59 680.075Z" fill="#EDD8C7"/>
<path d="M943.408 671.279C940.304 671.171 938.286 675.36 936.3 677.272C935.593 677.953 934.808 678.811 934.434 679.715C934.044 680.66 933.081 681.398 932.661 682.355C931.97 683.924 930.889 685.423 930 686.864C929.2 688.162 929.277 689.74 929.225 691.227C929.207 691.73 928.997 693.361 929.405 693.703C929.851 694.076 930.931 693.963 931.528 694.114C932.099 694.259 933.001 694.318 933.567 694.369C934.588 694.46 935.935 694.393 936.899 694.698C938.118 695.084 939.414 695.167 940.649 695.523C942.183 695.965 943.889 696.292 945.487 696.348L953.342 696.622L955.565 696.7C955.939 696.713 956.379 696.819 956.676 696.604C956.695 696.591 956.712 696.579 956.73 696.569C957.141 696.746 957.048 696.383 956.73 696.569C956.702 696.557 956.672 696.543 956.639 696.525C955.546 695.944 954.271 694.846 953.059 694.538C951.266 694.084 950.09 691.673 948.937 690.468C947.447 688.909 946.67 686.579 945.695 684.72C944.972 683.34 944.373 681.499 944.04 679.983C943.715 678.5 942.729 676.906 942.784 675.341C942.811 674.556 942.334 671.241 943.408 671.279Z" fill="#D3886B"/>
<path d="M971.473 666.287C970.874 683.443 984.797 697.913 1002.65 698.536C1020.5 699.16 1035.4 685.696 1036 668.54C1036.6 651.384 1022.67 636.913 1004.82 636.29C986.971 635.667 972.072 649.13 971.473 666.287Z" fill="#3F3324" stroke="black" stroke-width="2"/>
<path d="M1076.66 667.776C1074.89 666.015 1073.99 665.482 1072.07 663.842C1068.17 661.262 1069.05 662.297 1067.12 660.965C1065.47 659.824 1064.32 658.929 1063.37 658.363C1061.3 657.137 1059.5 655.453 1057.43 654.227C1055.72 653.213 1054.11 652.02 1052.42 651.017C1050.7 649.994 1049.33 648.555 1047.35 647.572C1043.47 645.652 1037.15 642.606 1032.93 640.766C1031.72 640.409 1029.9 639.774 1028.97 639.5C1027.63 639.103 1026.73 638.728 1024.71 637.95C1023.29 637.403 1021.33 637.076 1019.77 636.708C1016.08 635.84 1011.78 635.398 1007.99 635.266C1004.23 635.134 1000.45 634.72 996.918 636.202C994.846 637.069 992.017 637.258 989.802 637.782C986.938 638.458 983.576 639.392 980.9 640.622C978.647 641.657 975.1 642.74 972.841 643.875C971.641 644.305 968.169 646.222 964.813 648.036C963.901 648.671 961.041 650.203 960.2 650.965C958.616 652.401 957.492 652.76 955.952 654.331C952.567 657.783 949.678 661.301 946.891 664.056C944.103 666.81 944.017 667.47 941.807 669.719C938.288 673.797 936.825 676.256 934.886 679.201C934.103 680.39 932.095 682.873 931.009 685.09C929.238 688.702 929.221 689.204 928.217 691.679" stroke="black" stroke-width="3" stroke-linecap="round"/>
<ellipse rx="4.82351" ry="5.10193" transform="matrix(-0.999391 -0.0348995 -0.0348995 0.999391 1007.15 663.096)" fill="#EEDFD8"/>
<path d="M1080.29 676.57C1074.73 679.803 1073.81 680.073 1068.18 684.11C1063.49 687.473 1062.1 687.907 1058.44 689.462C1053.28 691.652 1052.29 691.186 1049.88 692.405C1037.1 696.63 1031.82 696.738 1021.44 699.611C1016.96 700.85 1009.66 701.719 1004.91 701.553C999.53 701.366 995.279 702.189 988.419 701.95C982.979 700.788 978.213 700.252 973.315 698.87C970.565 698.094 967.527 697.935 964.811 697.13C963.166 696.642 961.616 696.944 957.994 695.884" stroke="#AD7058" stroke-width="2" stroke-linecap="round"/>
<path d="M1052.65 653.829C1064.81 660.716 1072.32 665.655 1081.65 672.829C1070.03 684.65 1061.01 687.838 1046.15 691.829C1057.19 677.98 1062.14 669.203 1052.65 653.829Z" fill="#DBC7B7"/>
<path d="M1076.15 672.829L1105.5 665C1085.15 669.5 1057.14 648.123 1025.66 637.905C1052.13 650.989 1053.16 653.284 1076.15 672.829Z" fill="black" stroke="black"/>
<path d="M972.653 645.829C1005.22 634.601 1024.7 636.692 1053.15 652.329L1050.89 647.975C1020.77 633.021 986.629 636.032 971.418 643.158C959.189 647.836 934.513 673.964 928.663 692.716C937.119 673.953 951.962 657.869 972.653 645.829Z" fill="black" stroke="black"/>
<path d="M1089 674.394L1077.65 674.394C1062.08 684.598 1054.01 688.983 1034.16 695.264C1051.45 698.207 1089 674.394 1089 674.394Z" fill="#936556"/>
<path d="M775.116 940.543C759.358 933.561 750.153 926.829 743.153 923.329C745.653 934.329 762.557 941.287 775.116 945.686C782.941 943.697 782.275 941.4 792.565 935.829C802.855 930.257 819.384 953.436 824.778 953.829C828.914 953.542 860.122 933.257 868.623 935.829C877.124 938.4 882.94 948.686 882.94 948.686C890.922 949.659 895.429 948.643 903.52 944.4C911.156 937.603 913.034 933.612 915.153 926.4C905.442 938.362 898.537 942.813 882.94 945.686C879.984 935.131 881.397 927.25 869.965 922.114C865.637 918.556 836.153 949.829 824.778 950.329C815.153 949.829 798.875 918.606 792.565 922.114C788.627 923.116 785.537 925.58 775.116 940.543Z" fill="#F0BA9D"/>
<path d="M823.153 953.829C806.957 939.315 794.461 935.812 774.153 944.329C782.892 928.534 788.952 921.381 795.653 921.829C802.788 924.678 811.658 936.633 823.153 953.829Z" fill="#DAA78C"/>
<path d="M833.844 946.962C853.244 937.134 866.221 936.985 883.633 950.468C879.28 932.949 875.277 924.472 868.689 923.17C861.059 924.076 849.397 933.327 833.844 946.962Z" fill="#DAA78C"/>
<path d="M828.928 903.793C822.029 904.67 806.937 889.181 808.231 884.311C809.956 877.817 823.429 866.617 837.983 864.829C848.803 865.573 858.681 879.44 856.956 884.311C854.369 889.723 842.208 902.105 828.928 903.793Z" fill="#FFD2AE"/>
<path d="M807.404 880.601C811.377 876.877 806.011 709.261 811.424 699.188C819.864 682.499 845.535 656.852 857.153 647.829C846.585 686.026 853.287 770.419 857.153 880.601C847.654 885.447 803.432 884.326 807.404 880.601Z" fill="#FFD6B5"/>
<path d="M749.653 908.329C744.557 895.317 784.76 858.488 795.153 852.329C792.653 841.329 796.653 766.329 787.653 775.329C771.255 800.352 744.745 871.381 744.153 891.829C746.654 897.872 745.501 909.011 749.653 908.329Z" fill="#FAC7AC"/>
<path d="M792.153 849.329C803.296 785.287 805.734 592.704 747.153 594.829L765.653 649.829C778.653 687.829 785.13 814.191 792.153 849.329Z" fill="#FAC2A3"/>
<path d="M863.153 836.829C853.913 761.769 858.28 701.051 888.153 621.829L887.19 716.516C866.086 766.943 868.915 795.814 863.153 836.829Z" fill="#FDC2A2"/>
<path d="M794.153 901.329C791.243 886.799 793.616 856.876 798.152 812.829C790.9 837.756 791.653 842.829 789.153 859.829C789.153 866.829 787.65 893.584 794.153 901.329Z" fill="#FCC2A2"/>
<path d="M863.491 893.829C866.401 879.299 865.688 861.876 861.153 817.829C868.404 842.756 867.652 847.829 870.152 864.829C870.152 871.829 869.994 886.084 863.491 893.829Z" fill="#FCC6A8"/>
<path d="M906.369 874.985C905.427 871.794 904.359 868.413 903.153 864.829C904.273 868.681 905.346 872.024 906.369 874.985C919.488 919.426 908.206 927.272 905.491 940.829C911.994 933.084 918.153 917.329 918.153 910.329C916.039 895.956 911.961 891.181 906.369 874.985Z" fill="#DAA78C"/>
<path d="M747.784 885.477C749.324 878.839 751.548 871.056 754.653 861.829C751.899 871.294 749.65 878.834 747.784 885.477C740.392 917.327 748.745 922.805 751.153 934.829C744.65 927.084 741.153 922.329 741.153 915.329C742.703 904.784 744.734 896.328 747.784 885.477Z" fill="#D8A98F"/>
<path d="M718.144 1022.28C714.105 1022.07 708.853 1018.49 699.966 1012.67C707.928 1021.01 711.886 1025.95 725.216 1031.51C753.563 1031.51 760.443 1034.33 784.787 1037.83C794.688 1037.84 808.065 1040.2 823.948 1043.33C837.953 1043.25 849.103 1040.27 865.227 1037.83C877.655 1034.28 911.977 1040.47 931.39 1040.82C941.601 1035.05 953.375 1034.89 959.955 1029.1C949.77 1032.33 936.586 1030.7 924.939 1029.1C889.871 1024.96 865.994 1009.06 859.475 1009.43C855.803 1008.02 851.172 1008.48 827.428 1016.88C800.546 1007.09 797.22 1006.74 793.893 1007.26C780.545 1008.02 755.79 1019.59 718.144 1022.28Z" fill="#E68169"/>
<path d="M777.714 1080.67C759.758 1077.66 735.261 1046.33 708 1024L755.004 1033.53L803.065 1042.05L840.035 1044.56C870.08 1037.59 886.514 1035.83 914.502 1039.55L952 1033.53C920.532 1057.62 894.961 1072.64 875.42 1080.67C855.879 1088.69 795.671 1083.68 777.714 1080.67Z" fill="#E58169"/>
<path d="M689 1018.5C692.27 1019.07 695.973 1018.15 698.007 1015C705.616 1022.07 711.345 1026.15 722.38 1033.5C741.988 1032.73 752.659 1032.64 771.125 1036.5C797.224 1041.83 811.387 1043 836.295 1045C859.067 1040.27 868.164 1039.89 885.04 1038.5C888.682 1037.91 896.813 1039.01 933.785 1041C943.622 1039.18 971.933 1025 974.582 1025C976.701 1025 979.806 1028.05 982 1026.5C979.351 1023 978.418 1023 978.821 1021C978.291 1016.5 978.291 1019.5 978.291 1015C974.574 1017.18 975.112 1021 974.582 1021.5C972.993 1025 951.156 1032.53 933.785 1037.5C902.343 1035.69 889.917 1035.09 886.1 1035.5C866.796 1037.16 855.916 1038.59 836.295 1043C810.862 1041.21 796.594 1039.21 771.125 1033.5C752.208 1030.43 741.533 1029.47 722.38 1029C711.981 1024.2 707.098 1020.62 700.127 1012.5C698.755 1009.65 699.595 1004.52 696.947 1004C696.947 1008 696.418 1007 695.358 1010.5C693.769 1014 692.709 1014.5 689 1018.5Z" fill="#9C6147"/>
<path d="M795.009 1070.2C781.209 1063.79 776.654 1056.22 769 1048C815.76 1051.65 836.788 1055.35 881 1050.96C874.669 1061.83 867.469 1067.13 850.213 1075.63C829.345 1076.7 819.427 1075.63 795.009 1070.2Z" fill="#EB8F79"/>
<path d="M827.653 1007.83L798.653 997.829L800.653 994.329L850.653 997.829L853.653 999.829L827.653 1007.83Z" fill="#FFDEC5"/>
<path d="M1009.15 708.065C1025.86 706.718 1046.15 704.065 1049.15 703.565C1052.15 703.065 1092.87 692.592 1092.65 690.329C1092.43 688.066 1019.25 702.565 1009.15 702.565C999.055 702.565 963.882 700.338 935.152 694.565C935.152 694.565 941.469 699.165 943.152 700.565C944.835 701.965 980.152 707.065 1009.15 708.065Z" fill="#FFDEC5"/>
<path d="M927.541 695.829C925.818 694.516 925.178 693.852 927.153 690.329C927.334 691.404 938.153 694.829 945.653 701.329C938.648 700.081 934.608 698.109 927.541 695.829Z" fill="#FDEEE3"/>
<path d="M580.966 642.076C584.654 640.349 586.836 639.655 590.519 637.994C594.179 636.589 598.159 635.165 601.852 634.332C604.093 633.827 607.112 633.153 611.141 631.901C616.162 630.341 617.167 630.317 621.522 629.385C624.207 628.811 623.837 628.811 626.061 628.234C629.737 627.28 634.307 626.37 636.274 626.26C643.313 625.12 646.329 625.12 653.297 624.395C660.91 624.395 666.944 624.219 673.765 625.12C680.424 627.051 687.033 629.204 693.393 632.072C699.295 634.734 701.134 634.933 707.167 639.014C712.698 641.565 717.036 644.738 719.326 646.828C723.06 650.239 724.262 650.749 727.279 653.3" stroke="#995741" stroke-width="1.2" stroke-linecap="round"/>
<path d="M727.069 666.727C730.307 666.727 732.257 670.985 734.255 672.965C734.968 673.67 735.754 674.555 736.11 675.472C736.483 676.43 737.459 677.201 737.862 678.172C738.524 679.764 739.596 681.3 740.47 682.771C741.256 684.096 741.119 685.671 741.119 687.158C741.119 687.662 741.278 689.299 740.841 689.626C740.363 689.984 739.241 689.833 738.615 689.964C738.014 690.088 737.072 690.116 736.481 690.147C735.414 690.202 734.013 690.088 732.998 690.359C731.715 690.702 730.361 690.741 729.062 691.053C727.448 691.441 725.658 691.709 723.991 691.709H715.799H713.48C713.089 691.709 712.627 691.8 712.326 691.574C712.307 691.56 712.289 691.548 712.272 691.537C711.837 691.7 711.946 691.34 712.272 691.537C712.301 691.526 712.333 691.513 712.367 691.497C713.527 690.954 714.896 689.901 716.17 689.636C718.053 689.244 719.366 686.876 720.611 685.712C722.22 684.206 723.115 681.904 724.197 680.081C725.001 678.727 725.692 676.907 726.094 675.404C726.487 673.933 727.572 672.375 727.572 670.809C727.572 670.024 728.189 666.727 727.069 666.727Z" fill="#D3886B"/>
<path d="M695.884 660.585C695.884 677.714 680.873 691.727 662.192 691.727C643.51 691.727 628.499 677.714 628.499 660.585C628.499 643.456 643.51 629.443 662.192 629.443C680.873 629.443 695.884 643.456 695.884 660.585Z" fill="#3F3324" stroke="black" stroke-width="2"/>
<path d="M588.379 658.576C590.292 656.878 591.248 656.376 593.307 654.804C597.464 652.362 596.508 653.366 598.569 652.102C600.333 651.02 601.557 650.165 602.571 649.633C604.77 648.479 606.709 646.859 608.907 645.706C610.725 644.752 612.446 643.616 614.242 642.673C616.076 641.711 617.548 640.32 619.652 639.407C623.764 637.624 630.459 634.801 634.918 633.109C636.197 632.794 638.11 632.223 639.087 631.981C640.5 631.631 641.457 631.288 643.589 630.582C645.089 630.084 647.135 629.825 648.776 629.512C652.648 628.774 657.151 628.482 661.097 628.482C665.019 628.482 668.971 628.2 672.602 629.804C674.728 630.743 677.668 631.031 679.957 631.631C682.916 632.408 686.384 633.458 689.128 634.781C691.437 635.894 695.092 637.1 697.404 638.313C698.639 638.785 702.186 640.822 705.616 642.751C706.544 643.418 709.467 645.049 710.315 645.839C711.913 647.33 713.07 647.728 714.618 649.352C718.018 652.919 720.9 656.537 723.704 659.387C726.507 662.237 726.573 662.899 728.793 665.224C732.311 669.422 733.745 671.931 735.658 674.942C736.431 676.158 738.433 678.709 739.484 680.963C741.196 684.635 741.196 685.136 742.153 687.645" stroke="black" stroke-width="3" stroke-linecap="round"/>
<ellipse cx="665.181" cy="656.931" rx="5.02793" ry="5.10193" fill="#EEDFD8"/>
<path d="M697.404 639.177C663.883 626.82 646.162 628.114 615.951 642.748V639.687C647.871 625.792 683.326 629.994 698.912 637.646C711.482 642.748 736.237 669.721 741.65 688.666C733.524 669.619 718.521 651.932 697.404 639.177Z" fill="#40231A" stroke="black"/>
<path d="M613.153 645.829C600.995 652.716 593.483 657.655 584.153 664.829C595.773 676.65 604.8 679.838 619.653 683.829C608.615 669.98 603.668 661.203 613.153 645.829Z" fill="#DBC7B7"/>
<path d="M596.625 675.196C601.389 678.721 602.819 679.203 606.579 680.885C611.872 683.254 610.822 682.823 613.286 684.125C626.452 688.794 628.29 688.581 639 691.815C643.617 693.21 656.948 694.837 661.902 694.837C667.51 694.837 671.908 695.808 679.063 695.808C684.773 694.837 689.757 694.468 694.91 693.258C697.803 692.578 700.973 692.525 703.832 691.815C705.563 691.385 707.168 691.742 710.98 690.808" stroke="#AD7058" stroke-width="2" stroke-linecap="round"/>
<path d="M574.653 664.329H554.153C590.153 637.829 609.738 629.505 654.653 626.829C618.147 638.752 612.039 646.833 574.653 664.329Z" fill="#DAA78C"/>
<path d="M577 669L587.653 667.829C603.502 678.569 615.706 682.859 636.153 689.829C618.037 692.167 577 669 577 669Z" fill="#936556"/>
<path d="M551 660.5L553.974 660.777C581.406 662.13 620.822 632.652 652.653 627.829C624.6 639.98 616.821 645.598 592.153 664.329L553.974 660.777C552.966 660.727 551.975 660.636 551 660.5Z" fill="#40231A"/>
<path d="M551 660.5L592.153 664.329C616.821 645.598 624.6 639.98 652.653 627.829C619.653 632.829 578.5 664.329 551 660.5Z" stroke="black"/>
<path d="M569.153 653.462C569.153 653.462 577.153 643.829 582.653 640.329C588.153 636.829 619.61 624.146 654.666 621.83C688.46 621.669 702.813 633.561 727.571 651.932L727.571 653.264C727.571 653.672 727.571 653.909 727.571 653.462C727.571 652.442 685.518 623.19 654.666 623.871C619.009 627.863 599.503 638.42 569.153 653.462Z" fill="#995741"/>
<path d="M1098.57 660.462C1098.57 660.462 1090.57 650.829 1085.07 647.329C1079.57 643.829 1048.11 631.146 1013.06 628.83C979.265 628.669 964.911 640.561 940.153 658.932L940.153 660.264C940.153 660.672 940.153 660.909 940.153 660.462C940.153 659.442 982.206 630.19 1013.06 630.871C1048.71 634.863 1068.22 645.42 1098.57 660.462Z" fill="#995741"/>
<path d="M668.153 702.329C651.449 700.982 631.153 698.329 628.153 697.829C625.153 697.329 571.431 686.592 571.653 684.329C571.874 682.066 658.055 696.829 668.153 696.829C678.25 696.829 713.423 694.602 742.153 688.829C742.153 688.829 735.836 693.429 734.153 694.829C732.47 696.229 697.153 701.329 668.153 702.329Z" fill="#FFDEC5"/>
<path d="M735.5 671.5C743.5 678.5 753.723 690.688 752 692C746.386 693.811 737.17 695.005 730.106 696.044C728.632 696.361 726.985 696.624 725.153 696.829C726.593 696.572 728.278 696.313 730.106 696.044C746.018 692.629 741.911 682.94 735.5 671.5Z" fill="#FDEEE3"/>
<path d="M933.5 676.5C927.328 680.5 914.777 696.688 916.5 698C922.653 699.985 934.78 700.091 942.438 700.909C943.401 701.066 944.428 701.207 945.519 701.329C944.613 701.167 943.575 701.03 942.438 700.909C924.329 697.949 928.278 688.843 933.5 676.5Z" fill="#FDEEE3"/>
<path d="M741.153 688.329L692.653 637.829C706.153 643.329 717.153 654.829 722.153 659.329L733.153 673.329L741.153 688.329Z" fill="#B19F90" fill-opacity="0.5"/>
<path d="M929.153 692.329L979.153 642.829C965.653 648.329 953.153 658.829 948.153 663.329L937.153 677.329L929.153 692.329Z" fill="#B19F90" fill-opacity="0.5"/>
<path d="M684.743 58.8227C692.35 53.4934 697.558 51.6192 699.653 54.2266L684.743 58.8227C646.225 85.8103 546.213 201.403 477.653 272.329L581.153 153.227C645.45 91.2335 669.653 69.6213 682.153 59.6213L684.743 58.8227Z" fill="#613A2E"/>
<path d="M694.731 98.8565C698.256 98.222 701.026 99.1821 703.153 101.829L694.731 98.8565C677.199 102.012 641.008 144.614 572.653 215.329L615.653 152.993C679.95 91.0001 673.653 105.829 686.153 95.8289L694.731 98.8565Z" fill="#613A2E"/>
<path d="M515.153 241.829C637.2 130.244 686.153 91.8289 708.653 91.8289H687.653C669.07 104.967 680.736 87.382 585.153 168.829L515.153 241.829Z" fill="#523127"/>
<path d="M835.062 220.589C827.456 215.26 822.247 213.386 820.153 215.993L835.062 220.589C873.58 247.577 973.592 363.169 1042.15 434.095L938.653 314.993C874.356 253 850.153 231.388 837.653 221.388L835.062 220.589Z" fill="#613A2E"/>
<path d="M825.074 260.623C821.549 259.988 818.779 260.949 816.653 263.595L825.074 260.623C842.606 263.779 878.797 306.381 947.153 377.095L904.153 314.76C839.856 252.767 846.153 267.595 833.653 257.595L825.074 260.623Z" fill="#613A2E"/>
<path d="M1004.65 403.595C882.605 292.011 833.653 253.595 811.153 253.595H832.153C850.735 266.733 839.069 249.148 934.653 330.595L1004.65 403.595Z" fill="#523127"/>
<path d="M927.01 228.836C898.134 213.992 856.653 194.829 822.653 159.329C813.804 165.267 838.177 217.879 843.653 220.329C852.645 224.352 861.932 248.603 872.153 249.289C882.739 249.999 891.247 253.593 900.842 259.163C904.703 261.403 911.728 262.076 914.925 265.651C918.284 269.409 922.76 271.174 926.695 273.55C947.908 286.363 966.846 303.874 985.919 321.51L986.071 321.65C1013.85 347.336 1040.71 374.416 1066.25 404.026C1076.7 416.139 1087.18 430.421 1098.62 440.983C1114.6 455.728 1130.36 470.353 1144.76 487.813C1169.86 518.246 1192.69 549.427 1214.12 584.577C1223.46 599.901 1232.8 614.725 1243.23 628.727C1244.69 630.692 1308.62 719.829 1303.65 707.829C1296.14 689.67 1238.15 608.329 1232.82 571.036C1224.77 553.864 1222.32 532.109 1213.91 515.178C1204.73 496.699 1196.01 478.641 1187.42 459.32C1179.4 441.261 1168.1 430.699 1156.32 417.568C1140.12 399.511 1125.29 379.56 1107.77 363.685C1066.21 326.031 1024 287.079 978.504 258.457C961.598 247.821 944.415 237.783 927.01 228.836Z" fill="#56352A"/>
<path d="M1433.54 1216.19C1426.75 1191.65 1401.22 1165.88 1418.08 975C1409.73 973.748 1391.9 1161.45 1393.4 1165.88C1392 1177 1398.83 1217.5 1403.32 1231.63C1403.32 1239 1404.27 1239.18 1404.99 1242.74C1408.85 1261.95 1410.31 1282.75 1410.12 1303.69C1409.84 1334.11 1408.23 1364.86 1404.4 1396.41C1402.83 1409.32 1399.98 1423.54 1399.87 1436.06C1399.73 1453.54 1399.54 1470.82 1396.92 1489.07C1392.35 1520.87 1386.1 1551.89 1376.72 1584.52C1372.63 1598.74 1368.84 1612.67 1366.13 1626.69C1365.75 1628.66 1347.17 1716.61 1351.65 1706.74C1358.42 1691.81 1375.57 1611.75 1394.96 1586.58C1400.86 1571.95 1412.52 1557.62 1418.08 1542.94C1424.14 1526.91 1430.21 1511.4 1437.09 1495.19C1443.53 1480.04 1443.71 1467.6 1445.16 1453.37C1447.17 1433.79 1451.04 1413.82 1451.02 1394.83C1450.98 1349.78 1451.35 1303.61 1443.78 1261.82C1440.96 1246.3 1437.64 1230.98 1433.54 1216.19Z" fill="#56352A"/>
<path d="M791.153 45.5595C840.153 32.8288 858.383 34.779 886.241 45.5594C909.941 54.7306 932.168 66.1761 955.359 76.1171C980.001 86.6795 1000.22 104.182 1023.19 118.405C1039.52 128.517 1061.7 141.476 1074.77 157.652C1096.85 184.999 1123.09 207.064 1145.29 234.554C1159.03 251.575 1172.14 273.55 1181.54 294.51C1192.27 318.412 1212 341.077 1216.98 368.805C1221.23 392.497 1231.65 412.98 1241.07 433.975C1244.46 441.534 1246.25 453.388 1250.08 459.319C1255.14 467.153 1253.57 480.359 1258.5 487.994C1261.15 492.092 1263.18 506.913 1263.18 512.179C1263.18 518.075 1264.65 530.982 1265.8 538.019C1266.64 539.332 1267.15 540.342 1267.15 540.854C1267.15 544.657 1266.54 542.56 1265.8 538.019C1262.2 532.401 1252.58 521.24 1251.48 519.855C1242.74 508.817 1232.04 498.426 1225.75 484.808C1217.83 467.637 1206.5 447.91 1196.28 432.672C1175.47 401.636 1156.95 368.466 1134.3 339.405C1123.32 325.329 1111.69 308.778 1099.56 296.538C1089.42 286.306 1082.7 273.361 1071.61 264.532C1061.61 256.569 1051.51 247.442 1042.14 238.319C1011.91 208.91 982.571 177.424 949.746 152.584C924.499 133.478 902.126 106.879 875.832 90.5994C866.758 84.9812 861.268 74.4569 852.676 68.2966C839.219 58.6491 807.691 45.5595 791.153 45.5595Z" fill="#4B2D24"/>
<path d="M499.152 828.829C488.153 755.329 477.105 659.658 480.652 621.829C493.533 644.912 496.685 662.319 499.152 696.829C499.218 723.203 510.152 902.329 499.152 828.829Z" fill="#EEBDA2"/>
<path d="M437.653 687.829C443.599 661.346 469.917 681.329 471.153 693.829C474.522 727.921 474.722 753.529 488.653 788.829C488.653 793.829 480.326 785.606 466.653 773.829C453.153 773.829 437.653 733.829 437.653 687.829Z" fill="#F0BA9C"/>
<path d="M476.491 651.068C474.045 652.921 471.115 657.056 467.883 657.056C463.717 657.056 461.002 660.799 457.03 660.799C454.66 660.799 452.29 660.799 449.92 660.799C447.346 660.799 445.335 658.956 442.809 658.595C431.186 656.934 421.933 648.823 409.875 648.823" stroke="#40231A" stroke-width="2" stroke-linecap="round"/>
<path d="M471.252 640.589C468.082 647.809 463.432 647.855 457.197 650.32C452.732 652.085 447.716 655.559 442.809 655.559C438.95 655.559 435.976 657.805 432.164 657.805C429.607 657.805 427.426 659.017 425.594 660.799C417.308 668.854 411.614 679.657 405.385 689.241" stroke="#40231A" stroke-width="2" stroke-linecap="round"/>
<path d="M474.994 658.553C469.002 666.223 460.001 667.315 451.042 668.866C446.168 669.709 441.786 670.529 436.821 670.529C431.831 670.529 426.841 670.529 421.851 670.529C419.98 670.529 418.109 670.529 416.238 670.529C404.744 670.529 393.221 689.308 387.421 695.978" stroke="#40231A" stroke-width="2" stroke-linecap="round"/>
<path d="M462.27 636.098C458.909 640.688 452.549 647.326 446.219 647.326C442.749 647.326 439.541 647.212 436.488 649.155C433.823 650.852 431.173 651.476 428.754 653.896C423.068 659.582 420.089 665.908 415.863 672.774" stroke="#40231A" stroke-width="2" stroke-linecap="round"/>
<path d="M452.539 647.326C448.662 648.618 444.845 650.964 440.813 651.65C437.303 652.248 433.482 651.817 429.918 651.817C424.59 651.817 418.692 653.966 414.366 657.056" stroke="#40231A" stroke-width="2" stroke-linecap="round"/>
<path d="M475.743 658.553C461.399 658.553 444.586 660.967 430.875 656.682C427.165 655.523 424.284 655.097 420.354 656.64C405.776 662.368 395.617 677.877 385.924 689.241" stroke="#40231A" stroke-width="2" stroke-linecap="round"/>
<path d="M469.006 636.847C462.076 636.847 455.145 636.847 448.215 636.847C442.582 636.847 438.861 640.151 434.742 643.583C425.559 651.236 420.957 666.501 418.275 677.515C413.893 695.514 409.928 713.625 406.882 731.905" stroke="#40231A" stroke-width="2" stroke-linecap="round"/>
<path d="M471.683 637.59C464.736 644.538 457.399 651.051 450.447 658.003C448.517 659.933 446.026 663.488 443.215 663.999C428.75 666.629 414.747 667.248 400.01 667.248" stroke="#40231A" stroke-width="2" stroke-linecap="round"/>
<path d="M479.922 669.72C474.469 667.459 470.105 663.33 464.635 661.207C459.388 659.171 452.801 657.649 447.975 654.891C444.68 653.008 437.907 653.243 434.153 653.243C431.536 653.243 428.895 653.144 426.281 653.289C417.514 653.776 411.321 661.215 404.953 666.425" stroke="#40231A" stroke-width="2" stroke-linecap="round"/>
<path d="M479.922 675.487C479.922 668.563 474.814 665.152 469.624 661.115C465.789 658.133 460.996 653.618 456.214 651.779C451.699 650.042 447.875 646.97 443.216 645.417C422.835 638.623 405.59 652.749 390.948 664.777" stroke="#40231A" stroke-width="2" stroke-linecap="round"/>
<path d="M447.153 721.329C444.53 709.92 465.334 706.939 468.653 692.329L470.653 760.329C464.477 760.696 449.776 732.738 447.153 721.329Z" fill="#DAA78C"/>
<path d="M478.274 681.253C473.742 673.822 470.048 669.726 462.209 666.013C458.475 664.244 455.101 660.921 451.911 658.369C440 648.84 424.732 639.165 409.896 635.119" stroke="#40231A" stroke-width="2" stroke-linecap="round"/>
<path d="M479.098 682.077C479.098 674.413 476.942 669.066 472.873 662.672C468.689 656.097 462.802 652.29 457.221 647.019C449.7 639.916 441.478 632.717 431.316 630.176" stroke="#40231A" stroke-width="2" stroke-linecap="round"/>
<path d="M479.437 667.394C479.437 674.597 479.233 679.432 476.849 685.988C474.623 692.109 469.335 699.933 469.086 706.402C468.832 713.017 468.223 719.733 468.223 726.53C468.223 732.885 468.668 738.918 469.613 745.22C474.721 779.269 485.425 812.179 497.552 844.227" stroke="#40231A" stroke-width="2" stroke-linecap="round"/>
<path d="M478.575 679.47C478.575 687.17 478.575 694.869 478.575 702.569C478.575 710.36 474.551 720.102 472.153 727.297C469.744 734.524 466.194 741.483 465.252 749.149C463.521 763.248 463.91 777.633 463.91 791.8C463.91 801.573 463.248 811.622 464.15 821.368C465.499 835.942 470.397 850.811 475.268 864.546C479.416 876.243 484.118 887.882 489.117 899.242C494.38 911.198 493.454 919.381 501.153 929.829" stroke="#40231A" stroke-width="2" stroke-linecap="round"/>
<path d="M475.987 688.959C475.987 697.106 475.987 705.252 475.987 713.399C475.987 716.035 475.987 718.671 475.987 721.306C475.987 727.405 474.203 732.475 473.016 738.415C469.551 755.739 464.226 772.638 460.652 789.979C457.586 804.851 457.406 822.431 458.926 837.518C461.453 862.593 480.331 886.014 495.827 904.609" stroke="#40231A" stroke-width="2" stroke-linecap="round"/>
<path d="M475.987 690.684C475.987 704.949 475.987 719.214 475.987 733.479C475.987 739.692 475.987 745.906 475.987 752.12C475.987 762.988 473.573 774.04 472.105 784.803C469.258 805.685 468.223 826.617 468.223 847.677C468.223 857.704 467.891 867.806 468.415 877.82C469.17 892.267 473.502 905.036 478.575 918.41" stroke="#40231A" stroke-width="2" stroke-linecap="round"/>
<path d="M461.497 641.99C453.061 646.456 447.302 653.979 439.274 658.796C434.505 661.657 429.121 665.579 425.24 669.46C423.533 671.168 421.594 671.863 420.036 673.853C417.397 677.226 415.544 681.47 413.894 685.413C410.514 693.486 409.87 702.414 408.093 710.921C407.706 712.772 411.791 706.287 412.145 705.76C416.011 700.004 419.51 693.984 423.107 688.058" stroke="#40231A" stroke-width="2" stroke-linecap="round"/>
<path d="M478.389 669.631C471.444 664.579 462.105 662.684 453.819 660.801C443.761 658.515 427.783 656.104 418.33 661.355C402.906 669.924 401.545 688.773 400.841 704.949" stroke="#40231A" stroke-width="2" stroke-linecap="round"/>
<path d="M477.621 635.847C471.17 648.032 462.231 653.993 449.212 655.853C445.474 656.387 441.662 657.594 438.122 658.881C435.723 659.754 434.233 660.932 431.937 661.953C424.765 665.14 422.262 674.687 420.804 681.574C418.93 690.422 415.724 699.059 415.429 708.191C415.142 717.108 414.25 727.146 412.358 735.661" stroke="#40231A" stroke-width="2" stroke-linecap="round"/>
<path d="M925 1072C843.664 1112.11 772.428 1089.48 740 1076.11C766.049 1094.62 767.281 1096.4 772.428 1099.77C811.01 1102.38 832.673 1102.11 871.307 1101.82C881.611 1099.35 884.598 1097.71 925 1072Z" fill="#F3C0A4"/>
<path d="M739.32 572.283C747.148 576.241 753.504 577.704 763.153 580.143C762.081 584.412 760.956 588.681 760.956 592.697C759.4 596.214 758.828 596.826 757.865 599.29C757.141 601.144 757.865 600.804 754.603 600.804C748.206 599.681 752.432 599.916 748.206 599.681C741.176 599.29 733.136 597.9 726.184 596.214C720.271 594.779 715.138 592.819 709.957 591.134C701.615 588.423 692.557 585.719 684.028 583.955C680.663 583.259 678.462 581.973 674.174 580.753C673.125 580.661 671.494 580.143 667.457 579.071C663.989 577.704 667.457 579.071 659.73 576.434C656.781 575.236 654.877 574.655 648.445 572.826C642.013 570.996 641.529 570.755 631.292 569.167C619.5 567.337 614.676 565.508 599.667 565.508H575.011C565.585 565.508 560.002 567.337 549.061 571.599C540.876 571.599 519.67 585.506 526.48 580.341C532.807 575.542 530.312 572.408 540.732 562.368C551.153 552.329 565.153 542.585 578.653 541.329C592.153 540.072 596.813 540.77 605.653 541.329C611.848 541.72 619.802 542.829 626.153 542.829C631.285 543.795 650.241 547.097 655.653 548.329C658.001 548.329 696.238 560.829 698.653 560.829C701.568 560.829 722.025 566.982 724.81 567.887C729.7 569.477 734.799 569.997 739.32 572.283Z" fill="#93685A"/>
<ellipse cx="831.153" cy="890.329" rx="21" ry="15.5" fill="#FFD9BB"/>
<circle cx="572.403" cy="787.079" r="2.25" fill="#666666"/>
<circle cx="620.153" cy="542.829" r="3" fill="#666666"/>
<path d="M483.119 932.543C480.454 892.567 450.649 853.532 449.706 813C459.074 817.684 483.119 849.568 503.166 884.651C507.733 892.643 512.625 918.512 510.035 978.207C506.501 1015.31 499.825 1051.58 499.825 1089.58C499.825 1112.36 493.143 1134.26 493.143 1157.15V1213.95C493.143 1252.25 506.508 1289.35 506.508 1327.37C506.508 1369.54 520.767 1408.81 536.579 1447.1C544.709 1466.78 554.509 1484.68 561.638 1504.64C568 1531 584.5 1552 612.5 1581.5C612.5 1592.54 571.844 1548.07 562.567 1538.8C556.573 1532.8 550.411 1530.3 544.747 1523.02C531.77 1506.33 516.485 1490.94 502.424 1475.31C487.834 1459.1 480.719 1437.2 466.413 1421.11C450.678 1403.41 433 1374.85 433 1350.94V1205.78C433 1177.55 443.507 1150.88 446.365 1123.74C451.369 1076.2 486.46 1034.89 486.46 986.745C486.46 968.131 484.325 950.64 483.119 932.543Z" fill="#56352A"/>
<path d="M1183.12 1107.54C1180.45 1067.57 1150.65 1028.53 1149.71 988C1159.07 992.684 1183.12 1024.57 1203.17 1059.65C1207.73 1067.64 1212.63 1093.51 1210.03 1153.21C1206.5 1190.31 1199.83 1226.58 1199.83 1264.58C1199.83 1287.36 1193.14 1309.26 1193.14 1332.15V1388.95C1193.14 1427.25 1206.51 1464.35 1206.51 1502.37C1206.51 1544.54 1220.77 1583.81 1236.58 1622.1C1244.71 1641.78 1254.51 1659.68 1261.64 1679.64C1268 1706 1284.5 1727 1312.5 1756.5C1312.5 1767.54 1271.84 1723.07 1262.57 1713.8C1256.57 1707.8 1250.41 1705.3 1244.75 1698.02C1231.77 1681.33 1216.49 1665.94 1202.42 1650.31C1187.83 1634.1 1180.72 1612.2 1166.41 1596.11C1150.68 1578.41 1133 1549.85 1133 1525.94V1380.78C1133 1352.55 1143.51 1325.88 1146.37 1298.74C1151.37 1251.2 1186.46 1209.89 1186.46 1161.75C1186.46 1143.13 1184.33 1125.64 1183.12 1107.54Z" fill="#4B2D24"/>
<path d="M534.376 1084.17C539.221 1058.16 523.727 1027.35 529.947 1001.33C536.112 1006.18 548.544 1031.29 557.459 1057.64C559.489 1063.64 558.709 1081.1 546.59 1118.63C537.626 1141.57 526.471 1163.35 519.981 1187.57C516.091 1202.09 507.384 1214.71 503.475 1229.3L493.776 1265.5C487.236 1289.9 490.838 1316.21 484.346 1340.44C477.144 1367.32 481.04 1395.18 486.259 1422.73C488.942 1436.89 501.583 1480.86 503.475 1495C498.753 1530.31 493.827 1585.03 494.51 1627.37C497.741 1644.69 500.76 1663.49 503.475 1684C497.469 1674.72 494.93 1653.38 494.51 1627.37C463.143 1459.19 411.84 1430.79 425.668 1340.82L450.455 1248.31C455.276 1230.32 467.642 1215.42 474.402 1198.69C486.24 1169.39 519.383 1150.06 527.604 1119.37C530.783 1107.51 532.183 1095.94 534.376 1084.17Z" fill="#4B2D24"/>
<path d="M713 700.5C673 706.006 624.632 698.929 571.5 687C574.586 691.105 588.813 697.08 599.5 700.5C624.5 708.5 690.5 708.5 699.5 705.5C708.5 702.5 709.713 702.089 713 700.5Z" fill="#EEBDA2"/>
<path d="M941 705C981 710.506 1042.5 708.5 1092 692C1088.91 696.105 1066.47 706.711 1061 708.5C1017.26 718.363 974.5 715.5 965.5 712.5C956.5 709.5 944.287 706.589 941 705Z" fill="#EEBDA2"/>
<line x1="492.5" y1="845" x2="492.5" y2="1056" stroke="#EBD2A0" stroke-width="3"/>
<line x1="1188.5" y1="921" x2="1188.5" y2="1056" stroke="#EBD2A0" stroke-width="3"/>
<path d="M498.5 839C498.5 841.95 497.684 844.599 496.39 846.497C495.095 848.396 493.357 849.5 491.5 849.5C489.643 849.5 487.905 848.396 486.61 846.497C485.316 844.599 484.5 841.95 484.5 839C484.5 836.05 485.316 833.401 486.61 831.503C487.905 829.604 489.643 828.5 491.5 828.5C493.357 828.5 495.095 829.604 496.39 831.503C497.684 833.401 498.5 836.05 498.5 839Z" fill="#EBD2A0" stroke="#B79D69"/>
<path d="M1258 1023C1209.83 914.169 1176.22 830.676 1178 762.5C1168 824.5 1166.03 885.936 1186.5 921.5C1213.89 988.681 1232.86 981.716 1258 1023Z" fill="#56352A"/>
<path d="M527 847.5C506.589 807.891 498.447 781.94 503 714C795.28 744.87 912.009 738.322 1157 714C1187.08 749.113 1175.14 793.598 1157 847.5C1157 847.5 1115 961.5 1065 971C1015 980.5 876 821 828.5 821C781 821 642.5 979.5 606.5 955C570.5 930.5 550.812 918.075 527 847.5Z" fill="#FF0000" fill-opacity="0.02"/>
<path d="M572.5 686.5C573.904 683.688 578.211 675.71 581.648 671.425L583.935 672.437C580.423 673.759 575.14 682.791 572.5 686.5Z" fill="black"/>
<path d="M578.5 688.5C580.049 685.766 582.141 677.657 585.798 673.559L588.028 674.689C584.452 675.825 581.331 684.934 578.5 688.5Z" fill="black"/>
<path d="M584.734 689.268C585.611 685.736 587.62 680.131 591.277 676.032L593.31 676.962C589.735 678.098 587.09 685.109 584.734 689.268Z" fill="black"/>
<path d="M590.973 692.292C591.726 688.73 593.538 683.059 597.05 678.835L599.115 679.693C595.581 680.953 593.183 688.053 590.973 692.292Z" fill="black"/>
<path d="M598 693.334C598.753 689.773 599.538 685.893 603.05 681.669L605.115 682.527C601.581 683.787 600.21 689.095 598 693.334Z" fill="black"/>
<path d="M605.154 696.134C605.907 692.573 606.692 688.693 610.204 684.469L612.269 685.327C608.735 686.587 607.364 691.895 605.154 696.134Z" fill="black"/>
<path d="M612.872 698.921C613.122 695.289 613.359 691.338 616.249 686.666L618.413 687.229C615.089 688.968 614.47 694.416 612.872 698.921Z" fill="black"/>
<path d="M621 698.829C620.806 695.194 620.235 693.427 622.534 688.438L623.5 688.5C621.5 691 622.037 694.162 621 698.829Z" fill="black"/>
<path d="M627.5 698.64C627.306 695.005 626.235 694.738 628.534 689.749L630 690C628 691.5 628.537 693.974 627.5 698.64Z" fill="black"/>
<path d="M632 698.806C631.806 695.171 632.083 696.565 633.5 691.106L634.5 691.306C633.5 692.806 633.037 694.14 632 698.806Z" fill="black"/>
<path d="M637 699.5C637.5 696 637.5 695 638.306 692.806L639.306 693.006C638.306 694.506 638.037 694.834 637 699.5Z" fill="black"/>
<path d="M1085.14 696.5C1083.73 693.688 1079.43 685.71 1075.99 681.425L1073.7 682.437C1077.22 683.759 1082.5 692.791 1085.14 696.5Z" fill="black"/>
<path d="M1079.14 698.5C1077.59 695.766 1075.5 687.657 1071.84 683.559L1069.61 684.689C1073.19 685.825 1076.31 694.934 1079.14 698.5Z" fill="black"/>
<path d="M1072.9 699.268C1072.03 695.736 1070.02 690.131 1066.36 686.032L1064.33 686.962C1067.9 688.098 1070.55 695.109 1072.9 699.268Z" fill="black"/>
<path d="M1066.67 702.292C1065.91 698.73 1064.1 693.059 1060.59 688.835L1058.52 689.693C1062.06 690.953 1064.46 698.053 1066.67 702.292Z" fill="black"/>
<path d="M1059.64 703.334C1058.89 699.773 1058.1 695.893 1054.59 691.669L1052.52 692.527C1056.06 693.787 1057.43 699.095 1059.64 703.334Z" fill="black"/>
<path d="M1052.48 706.134C1051.73 702.573 1050.95 698.693 1047.43 694.469L1045.37 695.327C1048.9 696.587 1050.27 701.895 1052.48 706.134Z" fill="black"/>
<path d="M1044.77 708.921C1044.52 705.289 1044.28 701.338 1041.39 696.666L1039.23 697.229C1042.55 698.968 1043.17 704.416 1044.77 708.921Z" fill="black"/>
<path d="M1036.64 708.829C1036.83 705.194 1037.4 703.427 1035.1 698.438L1034.14 698.5C1036.14 701 1035.6 704.162 1036.64 708.829Z" fill="black"/>
<path d="M1030.14 708.64C1030.33 705.005 1031.4 704.738 1029.1 699.749L1027.64 700C1029.64 701.5 1029.1 703.974 1030.14 708.64Z" fill="black"/>
<path d="M575.484 1187.35C452.801 1203.2 449.426 1105.45 494.747 1051.53C466.985 1075.04 441.226 1105.28 449.033 1144.76C458.99 1195.11 525.242 1221.7 575.484 1187.35Z" fill="#EBD2A0" stroke="#B79D69" stroke-width="3"/>
<circle cx="491.5" cy="1051.5" r="6" fill="#EBD2A0" stroke="#B79D69" stroke-width="3"/>
<path d="M559 654C569.066 657.742 576.351 659.051 592 660L595.5 654C581.911 656.088 573.719 655.457 559 654Z" fill="#40231A"/>
<path d="M568.331 647.421C578.032 652.026 585.175 653.964 600.682 656.274L604.692 650.602C590.972 651.497 582.867 650.155 568.331 647.421Z" fill="#40231A"/>
<path d="M576.99 641.456C585.944 646.327 592.634 648.658 607.286 652.078L611.498 647.54C598.336 647.057 590.686 645.153 576.99 641.456Z" fill="#40231A"/>
<path d="M585.346 634C593.84 639.634 596.702 642.817 611 647.5L616 644C602.93 642.371 598.668 638.877 585.346 634Z" fill="#40231A"/>
<path d="M595.345 628.745C603.316 635.097 605.889 638.518 619.725 644.429L625.011 641.378C612.133 638.616 608.191 634.764 595.345 628.745Z" fill="#40231A"/>
<path d="M606.5 623.5C613.887 630.523 615.637 631.464 628.905 638.559L634.437 635.98C621.849 632.107 618 632 606.5 623.5Z" fill="#40231A"/>
<path d="M615.129 619C621.876 626.64 622.005 626.936 634.604 635.161L639.104 633.161C626.901 628.204 625.844 628.47 615.129 619Z" fill="#40231A"/>
<path d="M623.129 616C629.876 623.64 630.005 623.936 642.604 632.161L647.104 630.161C634.901 625.204 633.844 625.47 623.129 616Z" fill="#40231A"/>
<path d="M640.803 611.772C644.531 621.259 642.474 618.463 651.5 630.5L655.5 630C645.728 621.169 647.634 624.335 640.803 611.772Z" fill="#40231A"/>
<path d="M655.057 610.736C656.73 620.791 655.3 617.628 661.626 631.28L665.642 631.622C657.92 620.953 659.126 624.446 655.057 610.736Z" fill="#40231A"/>
<path d="M666.952 611C665.665 623.869 665.586 618.391 666.952 630.944L670 630.944C666.541 617.95 668.027 624.087 666.952 611Z" fill="#40231A"/>
<path d="M677.044 615C677.044 620.5 677.866 618.447 676.5 631L674.5 631.5C676.5 623 677.044 621.423 677.044 615Z" fill="#40231A"/>
<path d="M685.5 621C685 628 685.5 626.5 684.355 634L682.355 634.5C684.5 628.5 684.355 627.5 685.5 621Z" fill="#40231A"/>
<path d="M694 626.5C691.136 632.907 693.545 629.06 689.903 635.716L687.853 635.502C691.921 630.597 690.701 632.216 694 626.5Z" fill="#40231A"/>
<path d="M702.5 630.5C698.567 636.312 700 634.5 697.3 638.302L695.318 637.735C700.176 633.612 698.258 635.557 702.5 630.5Z" fill="#40231A"/>
<path d="M707.5 635.5C705 639 705.682 638.547 702.982 642.349L701 641.782C705.858 637.659 703.258 640.557 707.5 635.5Z" fill="#40231A"/>
<path d="M1106.22 659.264C1096.16 663.006 1088.87 664.314 1073.22 665.264L1069.72 659.264C1083.31 661.351 1091.5 660.721 1106.22 659.264Z" fill="black"/>
<path d="M1096.89 652.685C1087.19 657.29 1080.05 659.228 1064.54 661.538L1060.53 655.866C1074.25 656.761 1082.35 655.419 1096.89 652.685Z" fill="black"/>
<path d="M1088.23 646.719C1079.28 651.591 1072.59 653.922 1057.94 657.341L1053.72 652.804C1066.89 652.32 1074.54 650.417 1088.23 646.719Z" fill="black"/>
<path d="M1079.88 639.264C1071.38 644.897 1068.52 648.081 1054.22 652.764L1049.22 649.264C1062.29 647.635 1066.55 644.141 1079.88 639.264Z" fill="black"/>
<path d="M1069.88 634.008C1061.91 640.361 1059.33 643.781 1045.5 649.693L1040.21 646.642C1053.09 643.88 1057.03 640.028 1069.88 634.008Z" fill="black"/>
<path d="M1058.72 628.764C1051.33 635.787 1049.58 636.728 1036.32 643.823L1030.78 641.244C1043.37 637.37 1047.22 637.264 1058.72 628.764Z" fill="black"/>
<path d="M1050.09 624.264C1043.35 631.904 1043.22 632.2 1030.62 640.424L1026.12 638.424C1038.32 633.468 1039.38 633.734 1050.09 624.264Z" fill="black"/>
<path d="M1042.09 621.264C1035.35 628.904 1035.22 629.2 1022.62 637.424L1018.12 635.424C1030.32 630.468 1031.38 630.734 1042.09 621.264Z" fill="black"/>
<path d="M1024.42 617.035C1020.69 626.522 1022.75 623.726 1013.72 635.764L1009.72 635.264C1019.49 626.433 1017.59 629.599 1024.42 617.035Z" fill="black"/>
<path d="M1010.16 616C1008.49 626.055 1009.92 622.892 1003.6 636.543L999.579 636.886C1007.3 626.216 1006.1 629.709 1010.16 616Z" fill="black"/>
<path d="M998.269 616.264C999.557 629.133 999.636 623.655 998.27 636.208L995.222 636.208C998.68 623.213 997.194 629.351 998.269 616.264Z" fill="black"/>
<path d="M988.177 620.264C988.177 625.764 987.355 623.711 988.721 636.264L990.721 636.764C988.721 628.264 988.177 626.687 988.177 620.264Z" fill="black"/>
<path d="M979.721 626.264C980.221 633.264 979.721 631.764 980.867 639.264L982.867 639.764C980.721 633.764 980.867 632.764 979.721 626.264Z" fill="black"/>
<path d="M971.221 631.764C974.085 638.171 971.677 634.323 975.318 640.979L977.368 640.765C973.3 635.861 974.521 637.48 971.221 631.764Z" fill="black"/>
<path d="M962.721 635.764C966.654 641.576 965.221 639.764 967.921 643.566L969.903 642.999C965.045 638.875 966.963 640.82 962.721 635.764Z" fill="black"/>
<path d="M957.721 640.764C960.221 644.264 959.54 643.811 962.239 647.613L964.221 647.046C959.364 642.922 961.963 645.82 957.721 640.764Z" fill="black"/>
<path d="M1188.55 1159L1197.85 1101.15H1179.24L1188.55 1159Z" fill="#EBD2A0"/>
<path d="M1188.55 1043L1197.85 1100.85H1179.24L1188.55 1043Z" fill="#EBD2A0"/>
<path d="M1145 1101.29L1189.42 1091.86V1110.73L1145 1101.29Z" fill="#EBD2A0"/>
<path d="M1233.25 1101.29L1188.84 1091.86V1110.73L1233.25 1101.29Z" fill="#EBD2A0"/>
<path d="M1214.49 1074.23L1193.97 1106.73L1183.09 1095.47L1214.49 1074.23Z" fill="#EBD2A0"/>
<path d="M1162.6 1127.94L1194 1106.7L1183.12 1095.44L1162.6 1127.94Z" fill="#EBD2A0"/>
<path d="M1162.6 1074.23L1183.12 1106.73L1194 1095.47L1162.6 1074.23Z" fill="#EBD2A0"/>
<path d="M1214.49 1127.94L1183.09 1106.7L1193.97 1095.44L1214.49 1127.94Z" fill="#EBD2A0"/>
<path d="M1196.5 1101C1196.5 1105.72 1192.89 1109.5 1188.5 1109.5C1184.11 1109.5 1180.5 1105.72 1180.5 1101C1180.5 1096.28 1184.11 1092.5 1188.5 1092.5C1192.89 1092.5 1196.5 1096.28 1196.5 1101Z" fill="#FF8888" stroke="#BDBDBD"/>
<circle cx="1188.5" cy="1084.5" r="2.5" fill="white"/>
<circle cx="1188.5" cy="1073" r="1" fill="white"/>
<circle r="2.5" transform="matrix(1 0 0 -1 1188.5 1117.5)" fill="white"/>
<circle r="1" transform="matrix(1 0 0 -1 1188.5 1129)" fill="white"/>
<circle cx="1203.5" cy="1101.5" r="2.5" transform="rotate(-90 1203.5 1101.5)" fill="white"/>
<circle cx="1214" cy="1101.5" r="1" transform="rotate(-90 1214 1101.5)" fill="white"/>
<circle r="2.5" transform="matrix(0 -1 -1 0 1172.5 1101.5)" fill="white"/>
<circle r="1" transform="matrix(0 -1 -1 0 1162 1101.5)" fill="white"/>
<circle r="0.5" transform="matrix(0 -1 -1 0 1176.5 1088.5)" fill="white"/>
<circle r="0.5" transform="matrix(0 -1 -1 0 1172.5 1084.5)" fill="white"/>
<circle r="0.5" transform="matrix(0.707107 -0.707107 -0.707107 -0.707107 1199.5 1089.5)" fill="white"/>
<circle r="0.5" transform="matrix(0.707107 -0.707107 -0.707107 -0.707107 1199.71 1112.71)" fill="white"/>
<circle r="0.5" transform="matrix(0.707107 -0.707107 -0.707107 -0.707107 1176.71 1112.71)" fill="white"/>
<circle r="0.5" transform="matrix(0.707107 -0.707107 -0.707107 -0.707107 1203.71 1116.71)" fill="white"/>
<circle r="0.5" transform="matrix(0.707107 -0.707107 -0.707107 -0.707107 1172.71 1117.71)" fill="white"/>
<circle r="0.5" transform="matrix(0.707107 -0.707107 -0.707107 -0.707107 1203.71 1085.71)" fill="white"/>
<circle cx="459" cy="1123" r="3.5" fill="#9ECBFF" stroke="#7BA0FF"/>
<circle r="1.5" transform="matrix(1 0 0 -1 461 1109)" fill="#FF9E9E" stroke="#FF7B7B"/>
<circle r="1.5" transform="matrix(1 0 0 -1 510 1192)" fill="#FF9E9E" stroke="#FF7B7B"/>
<circle r="1.5" transform="matrix(1 0 0 -1 464 1098)" fill="#9ECBFF" stroke="#7BA0FF"/>
<circle r="1.5" transform="matrix(1 0 0 -1 524 1195)" fill="#9ECBFF" stroke="#7BA0FF"/>
<circle r="0.5" transform="matrix(1 0 0 -1 467 1089)" fill="#FF9E9E" stroke="#FF7B7B"/>
<circle r="0.5" transform="matrix(1 0 0 -1 538 1195)" fill="#FF9E9E" stroke="#FF7B7B"/>
<circle r="0.5" transform="matrix(1 0 0 -1 470.5 1082.5)" fill="#FF9E9E"/>
<circle r="0.5" transform="matrix(1 0 0 -1 548.5 1194.5)" fill="#FF9E9E"/>
<circle cx="459" cy="1142" r="3.5" fill="#FF9E9E" stroke="#FF7B7B"/>
<circle cx="466" cy="1161" r="3.5" fill="#9ECBFF" stroke="#7BA0FF"/>
<circle cx="479" cy="1176" r="3.5" fill="#FF9E9E" stroke="#FF7B7B"/>
<circle cx="495" cy="1186" r="3.5" fill="#9ECBFF" stroke="#7BA0FF"/>
<circle cx="844" cy="1644" r="31" fill="#EBD2A0"/>
<circle cx="844" cy="1644" r="26.4412" fill="#989898"/>
<circle cx="844" cy="1644.3" r="22.1863" fill="#B4BBFF"/>
<path d="M849.471 1658.89H838.53L843.848 1666.49L849.471 1658.89Z" fill="#99A2F1"/>
<path d="M844.152 1627.89L854.408 1631.63L859.865 1641.08L857.97 1651.83L849.609 1658.84H838.695L830.334 1651.83L828.438 1641.08L833.896 1631.63L844.152 1627.89Z" fill="#5B6CFD"/>
<path d="M844.152 1627.89L833.667 1631.69L835.946 1623.49L844.152 1627.89Z" fill="#99A2F1"/>
<path d="M844.152 1627.89L854.941 1631.84L852.662 1623.64L844.152 1627.89Z" fill="#99A2F1"/>
<path d="M849.623 1658.89L857.98 1651.9L859.5 1660.11L849.623 1658.89Z" fill="#99A2F1"/>
<path d="M838.681 1658.89L830.324 1651.9L828.804 1660.11L838.681 1658.89Z" fill="#99A2F1"/>
<path d="M830.324 1651.75L828.5 1640.96L822.118 1647.5L830.324 1651.75Z" fill="#99A2F1"/>
<path d="M857.98 1651.75L859.804 1640.96L866.186 1647.5L857.98 1651.75Z" fill="#99A2F1"/>
<path d="M828.5 1640.96L833.971 1631.54L825.157 1632.6L828.5 1640.96Z" fill="#99A2F1"/>
<path d="M859.804 1640.96L854.333 1631.54L863.147 1632.6L859.804 1640.96Z" fill="#99A2F1"/>
<path d="M715.292 133.858C709.228 137.468 703.243 141.188 697.291 144.937C643.674 184.86 528.688 310.238 503.5 349C467.5 397.561 472.262 423.504 465 460.5C451.203 479.917 442.559 504.74 434.33 527.37C432.981 531.082 431.405 542.115 428.785 544.211C425.081 547.174 407.186 585.313 404 588.5C402.419 590.081 415.025 567 415.025 551.605C419.145 541.599 421.705 519.328 427.758 511.761C435.794 501.715 438.645 477.658 441.519 464.728C445.331 447.576 449.669 429.645 454.869 412.561C470.561 361 493.802 310.264 532.092 272.696C555.83 249.406 580.69 227.456 604.387 204.099C614.204 194.421 621.993 187.55 633.962 181.918C656.032 171.532 676.462 158.055 697.291 144.937C704.536 139.542 710.661 135.707 715.292 133.858Z" fill="#56352A"/>
<path d="M1303.02 753.655C1294.43 725.974 1281.12 698.571 1275 670C1285.06 690.128 1314.83 738.293 1329.04 770.866C1334.67 783.793 1339.84 784.515 1339.84 796.082V819.498V866.328C1339.84 879.058 1329.78 895.17 1329.04 907.755C1327.52 933.563 1325.43 960.164 1325.43 987.007C1325.43 1024.52 1330.93 1057.4 1341.64 1091.68C1350.69 1120.62 1354.25 1152.3 1354.25 1183.34V1231.29C1354.25 1242.77 1347.33 1268.25 1342.64 1278.8C1337.12 1291.23 1329.04 1313.95 1329.04 1327.43C1319.06 1350.44 1306.05 1379.58 1302.56 1391.79C1291.19 1431.61 1296.61 1445.43 1296.61 1487.73C1296.61 1522.77 1302.57 1554.38 1303.82 1589.4C1304.03 1595.2 1304.9 1606.66 1305.74 1615.42C1306.6 1618.34 1307.42 1621.21 1307.42 1624.62C1307.42 1630.62 1306.6 1624.47 1305.74 1615.42C1304.8 1612.23 1303.82 1608.96 1303.82 1604.81C1303.82 1596.11 1294.35 1565.79 1291.56 1548.29C1289.41 1534.79 1289.41 1528.75 1289.41 1516.55C1289.41 1493.03 1277.87 1469.86 1278.4 1446.91C1279.16 1414.27 1289.33 1377.08 1296.53 1350.75L1296.61 1350.44C1329.04 1292.29 1341.64 1214.79 1319.56 1174.29C1316.09 1158.67 1298.33 1117.25 1289.41 1103.08C1276.12 1081.97 1282.2 1046.85 1282.2 1023.03C1282.2 964.113 1311.02 908.053 1311.02 848.717C1311.02 816.743 1312.63 784.62 1303.02 753.655Z" fill="#56352A"/>
</svg>
