<svg width="542" height="131" viewBox="0 0 542 131" fill="none" xmlns="http://www.w3.org/2000/svg">
<path d="M73.506 45.621L67.2678 43.1341L55.5186 72.4936L45.5548 96.8954C37.643 111.869 30.687 110.654 23.7311 109.438C22.7374 109.264 15.4721 106.908 16.8073 99.4015C17.8733 93.4095 5.37067 89.8448 5.49589 99.6311C5.57921 106.143 16.1351 113.759 20.8907 114.855C20.8907 114.855 42.4481 122.98 51.5039 97.9351C56.6081 83.8191 73.506 45.621 73.506 45.621Z" fill="#6D5D5D"/>
<path d="M87.8461 102.914L69.5535 44.729L75.665 45.7972L93.9576 103.982L87.8461 102.914Z" fill="#6D5D5D"/>
<path d="M52.3404 35.5424L75.302 44.5678L77.2814 51.6312L53.9239 42.9982L52.3404 35.5424Z" fill="#6D5D5D"/>
<path d="M80.8532 103.373C87.3403 103.443 88.0241 102.515 89.7292 101.018C94.0461 103.063 96.3073 103.553 100.084 103.373L100.084 105.727L80.8532 105.727L80.8532 103.373Z" fill="#6D5D5D"/>
<path d="M54.3953 77.9415L55.4446 72.043L101.245 63.0188L91.9427 67.8802L54.3953 77.9415Z" fill="#6D5D5D"/>
<ellipse cx="70.9472" cy="28.0866" rx="4.35478" ry="4.31652" fill="#6D5D5D"/>
<path d="M174.6 52.0321C174.153 52.2315 173.731 52.3947 173.333 52.5216C172.935 52.6304 172.472 52.7392 171.941 52.848C171.163 53.0112 170.583 53.2016 170.202 53.4192C169.821 53.6186 169.514 54.0447 169.283 54.6975C169.067 55.3321 168.96 56.3203 168.96 57.6621L168.96 81.4336C168.96 83.7907 168.703 85.9848 168.189 88.0157C167.676 90.0646 166.773 91.76 165.481 93.1018C164.205 94.4436 162.49 95.1144 160.337 95.1144C159.608 95.1144 158.862 95.0057 158.1 94.788C157.338 94.5704 156.692 94.1988 156.162 93.673C155.632 93.1651 155.367 92.5034 155.367 91.6874C155.367 90.9985 155.582 90.4364 156.013 90.0011C156.427 89.5841 156.949 89.3756 157.579 89.3756C158.009 89.3756 158.365 89.4662 158.647 89.6476C158.945 89.8289 159.177 90.0374 159.343 90.2731C159.525 90.5269 159.732 90.8715 159.964 91.3066C160.213 91.8324 160.453 92.2223 160.685 92.4762C160.933 92.7482 161.256 92.8842 161.654 92.8842C162.963 92.8842 163.617 90.5541 163.617 85.8942L163.617 57.9069C163.617 56.4926 163.501 55.45 163.269 54.7791C163.054 54.1082 162.739 53.664 162.325 53.4464C161.927 53.2107 161.289 52.984 160.411 52.7664C159.384 52.5307 158.564 52.295 157.951 52.0593L158.026 50.6449L174.6 50.6449L174.6 52.0321ZM190.156 69.4935C190.156 68.1336 190.04 66.9821 189.808 66.0393C189.593 65.0963 189.145 64.3348 188.466 63.7546C187.804 63.1744 186.851 62.8842 185.609 62.8842C185.178 62.8842 184.648 62.984 184.018 63.1834C183.389 63.3829 182.834 63.673 182.353 64.0538C181.889 64.4165 181.657 64.8425 181.657 65.332C181.657 65.5316 181.691 65.731 181.757 65.9305C181.823 66.1117 181.931 66.3476 182.08 66.6377C182.229 66.9097 182.337 67.1454 182.403 67.3448C182.469 67.5442 182.502 67.7527 182.502 67.9704C182.502 68.6957 182.287 69.3032 181.856 69.7927C181.442 70.2641 180.904 70.4998 180.241 70.4998C179.413 70.4998 178.75 70.1643 178.253 69.4935C177.773 68.8225 177.533 68.0156 177.533 67.0728C177.533 65.6585 178.038 64.489 179.048 63.5642C180.059 62.6395 181.277 61.9595 182.701 61.5243C184.142 61.0891 185.484 60.8716 186.727 60.8716C189.063 60.8716 190.802 61.2523 191.945 62.0139C193.105 62.7573 193.867 63.8543 194.231 65.3048C194.612 66.7373 194.803 68.7501 194.803 71.343L194.753 72.7029C194.737 73.1017 194.712 73.7637 194.679 74.6883C194.662 75.6131 194.654 76.4654 194.654 77.2451C194.654 81.3249 195.043 83.3647 195.822 83.3647C196.385 83.3647 197.114 82.7391 198.008 81.488L199.052 82.7119C198.323 84.0175 197.602 84.9966 196.89 85.6495C196.178 86.284 195.242 86.6013 194.082 86.6013C192.989 86.6013 192.086 86.2296 191.374 85.4862C190.678 84.7246 190.297 83.7455 190.231 82.5487C189.17 83.818 187.978 84.8153 186.652 85.5406C185.343 86.2477 183.952 86.6013 182.478 86.6013C181.45 86.6013 180.498 86.4019 179.62 86.0029C178.758 85.5859 178.063 84.9694 177.533 84.1534C177.019 83.3375 176.762 82.3584 176.762 81.216C176.762 79.4935 177.367 78.061 178.576 76.9186C179.786 75.7763 181.177 74.906 182.751 74.3076C184.325 73.7092 186.246 73.1108 188.516 72.5126C188.715 72.4763 189.261 72.3311 190.156 72.0773L190.156 69.4935ZM190.156 73.682C189.908 73.7727 189.593 73.8814 189.212 74.0084C187.787 74.5161 186.569 75.0057 185.559 75.4772C184.548 75.9305 183.645 76.547 182.85 77.3267C182.055 78.1064 181.657 79.022 181.657 80.0736C181.657 81.1434 181.923 81.9866 182.453 82.6032C182.999 83.2197 183.761 83.5278 184.739 83.5278C185.716 83.5278 186.661 83.2649 187.572 82.7391C188.483 82.1951 189.344 81.488 190.156 80.6176L190.156 73.682ZM220.124 54.0991C219.909 53.7365 219.487 53.3738 218.857 53.0112C218.244 52.6486 217.639 52.3403 217.043 52.0865C216.463 51.8326 216.082 51.6785 215.9 51.6241L215.95 50.6721L222.957 48.8226L224.746 48.6322L224.746 80.6448C224.746 81.7328 225.169 82.5124 226.014 82.9838C226.875 83.4554 227.795 83.6911 228.772 83.6911L228.772 85.187L222.137 86.3838L220.472 86.3838L220.249 82.168C219.072 83.6548 217.838 84.77 216.546 85.5134C215.254 86.2386 213.871 86.6013 212.396 86.6013C210.524 86.6013 208.81 86.1118 207.252 85.1325C205.712 84.1353 204.494 82.7481 203.6 80.9712C202.705 79.1762 202.258 77.1181 202.258 74.7972C202.258 72.1317 202.755 69.7473 203.749 67.644C204.759 65.5407 206.142 63.8997 207.898 62.7211C209.654 61.5424 211.618 60.9531 213.788 60.9531C214.798 60.9531 215.784 61.1254 216.745 61.4699C217.706 61.7963 218.832 62.2949 220.124 62.9658L220.124 54.0991ZM220.124 72.1862C220.124 70.4272 219.984 69.013 219.702 67.9432C219.42 66.8553 218.849 65.8942 217.987 65.0601C217.325 64.4255 216.612 63.936 215.85 63.5914C215.088 63.2288 214.318 63.0474 213.539 63.0474C212.23 63.0474 211.071 63.5098 210.06 64.4346C209.05 65.3593 208.263 66.5924 207.7 68.1336C207.153 69.6566 206.88 71.3067 206.88 73.0836C206.88 74.8062 207.153 76.4563 207.7 78.0338C208.263 79.5932 209.099 80.8715 210.209 81.8688C211.319 82.8661 212.661 83.3647 214.235 83.3647C215.494 83.3647 216.612 83.0655 217.59 82.4671C218.584 81.8507 219.429 81.0347 220.124 80.0194L220.124 72.1862ZM235.953 71.7509C235.937 71.9323 235.929 72.1952 235.929 72.5396C235.929 74.8244 236.301 76.7374 237.047 78.2786C237.809 79.8016 238.819 80.935 240.078 81.6783C241.354 82.4037 242.779 82.7663 244.352 82.7663C246.44 82.7663 248.453 82.1136 250.391 80.8081L251.112 81.5696C250.714 82.6213 250.043 83.5278 249.099 84.2895C248.171 85.051 247.111 85.6313 245.918 86.0301C244.742 86.411 243.599 86.6013 242.489 86.6013C240.401 86.6013 238.521 86.0664 236.848 84.9966C235.191 83.9268 233.891 82.431 232.947 80.5089C232.019 78.5869 231.555 76.3837 231.555 73.8996C231.555 71.3793 232.06 69.1308 233.071 67.1545C234.081 65.1598 235.423 63.6186 237.096 62.5307C238.786 61.4246 240.592 60.8716 242.514 60.8716C244.087 60.8716 245.504 61.2251 246.763 61.9323C248.038 62.6213 249.074 63.6005 249.869 64.8697C250.664 66.1208 251.169 67.5624 251.385 69.1943C251.567 70.0284 251.658 70.799 251.658 71.5061L251.658 71.7509L235.953 71.7509ZM244.899 70.0103C245.628 69.974 246.241 69.829 246.738 69.5751C246.622 67.4174 246.158 65.731 245.346 64.5161C244.551 63.3013 243.416 62.6939 241.942 62.6939C240.865 62.6939 239.904 63.0474 239.06 63.7546C238.231 64.4618 237.56 65.4046 237.047 66.5833C236.533 67.7436 236.202 69.0221 236.053 70.4182L244.899 70.0103ZM255.907 91.7147C256.09 91.6421 256.363 91.5514 256.727 91.4427C257.788 91.08 258.616 90.7445 259.212 90.4364C259.809 90.1281 260.314 89.6747 260.728 89.0764C261.159 88.478 261.374 87.6802 261.374 86.683C261.142 86.0664 260.819 85.586 260.405 85.2414C260.007 84.8968 259.486 84.6611 258.84 84.5343C258.061 84.4073 257.456 84.0627 257.026 83.5008C256.611 82.9205 256.404 82.1951 256.404 81.3249C256.404 80.2551 256.719 79.3665 257.349 78.6594C257.995 77.9522 258.84 77.5987 259.883 77.5987C260.778 77.5987 261.59 77.8797 262.319 78.4417C263.047 79.0038 263.619 79.8379 264.033 80.944C264.464 82.032 264.679 83.3284 264.679 84.8335C264.679 86.6285 264.298 88.1607 263.536 89.4299C262.791 90.6993 261.788 91.6602 260.529 92.3131C259.27 92.9657 257.879 93.3103 256.355 93.3466C256.206 93.0927 256.09 92.8389 256.007 92.585C255.941 92.3493 255.907 92.0592 255.907 91.7147ZM302.624 56.9278L302.028 55.2687C301.763 54.5434 301.555 53.9994 301.407 53.6368C301.208 53.4554 300.529 53.12 299.369 52.6304C298.458 52.2315 297.803 51.9323 297.406 51.7329C297.008 51.5334 296.809 51.3521 296.809 51.1889C296.809 51.1526 296.834 51.062 296.884 50.9169C296.934 50.7719 296.967 50.6812 296.983 50.6449L312.936 50.6449C312.953 50.6993 312.978 50.79 313.012 50.9169C313.061 51.0438 313.086 51.1345 313.086 51.1889C313.086 51.6059 312.904 51.8779 312.539 52.0049C312.191 52.1318 311.636 52.2315 310.874 52.304C310.029 52.3766 309.391 52.5035 308.961 52.6848C308.53 52.848 308.315 53.2016 308.315 53.7456C308.315 54.1263 309.243 57.5261 311.098 63.9451C312.969 70.3639 314.204 74.5161 314.8 76.4019L315.496 74.0901C319.373 61.4155 321.311 54.6431 321.311 53.7728C321.311 53.2107 321.063 52.8208 320.565 52.6032C320.068 52.3675 319.34 52.1771 318.378 52.0321C317.981 51.9777 317.592 51.9051 317.211 51.8145C316.83 51.7238 316.532 51.615 316.317 51.4881L316.167 51.1889L316.317 50.6449L329.163 50.6449C329.23 50.6449 329.313 50.6812 329.412 50.7537C329.511 50.8081 329.577 50.8716 329.611 50.9441C329.611 51.2161 329.42 51.4337 329.039 51.5969C328.658 51.7419 328.045 51.9142 327.2 52.1137C325.958 52.4038 324.972 52.7211 324.243 53.0656C323.514 53.392 323.034 53.8997 322.802 54.5887C322.62 55.1508 322.429 55.8036 322.23 56.547C322.031 57.2723 321.891 57.7891 321.808 58.0973C321.708 58.5325 321.625 58.8589 321.56 59.0765L314.13 86.0301C314.029 86.3928 313.682 86.5741 313.086 86.5741C312.821 86.5741 312.597 86.5378 312.415 86.4653C312.25 86.3928 312.117 86.2477 312.017 86.0301C311.703 85.3593 311.387 84.371 311.073 83.0655L310.625 81.5152L303.569 59.0221L297.132 79.2849C296.983 79.7383 296.776 80.4726 296.511 81.488C296.196 82.6304 295.931 83.5278 295.716 84.1807C295.501 84.8335 295.26 85.4499 294.995 86.0301C294.896 86.2658 294.763 86.4201 294.598 86.4925C294.432 86.5832 294.217 86.6285 293.952 86.6285C293.455 86.6285 293.032 86.2477 292.684 85.4862C292.337 84.7246 291.989 83.7455 291.641 82.5487L291.392 81.6783L287.988 71.6966C286.149 66.2206 284.285 60.7809 282.397 55.3775C282.132 54.634 281.742 54.081 281.229 53.7184C280.732 53.3376 280.061 52.9749 279.216 52.6304C278.587 52.3766 278.106 52.159 277.775 51.9777C277.443 51.7963 277.137 51.5515 276.855 51.2433L277.029 50.6449L293.007 50.6449C293.024 50.6993 293.049 50.79 293.082 50.9169C293.115 51.0257 293.132 51.1164 293.132 51.1889C293.132 51.5515 292.966 51.8054 292.635 51.9505C292.32 52.0774 291.84 52.1862 291.193 52.2768C290.398 52.3856 289.785 52.5488 289.355 52.7664C288.94 52.9659 288.733 53.3466 288.733 53.9087C288.733 54.1626 289.62 57.0456 291.392 62.5579C293.181 68.0701 294.697 72.7029 295.94 76.4563L302.624 56.9278ZM334.207 48.6322C335.002 48.6322 335.681 48.9405 336.246 49.557C336.808 50.1735 337.09 50.9169 337.09 51.7873C337.09 52.6758 336.808 53.4282 336.246 54.0447C335.681 54.6431 335.002 54.9423 334.207 54.9423C333.396 54.9423 332.708 54.6431 332.145 54.0447C331.599 53.4282 331.325 52.6758 331.325 51.7873C331.325 50.9169 331.599 50.1735 332.145 49.557C332.708 48.9405 333.396 48.6322 334.207 48.6322ZM332.219 66.2841C332.004 65.867 331.599 65.4953 331.002 65.1689C330.422 64.8244 329.817 64.5433 329.188 64.3257C328.576 64.09 328.269 63.9812 328.269 63.9993L328.318 63.0474L335.301 61.1979L336.842 61.0891L336.842 80.0736C336.842 80.7083 336.9 81.3067 337.016 81.8688C337.149 82.431 337.53 83.002 338.159 83.5823C338.805 84.1625 339.815 84.5343 341.191 84.6974C341.191 85.2958 341.182 85.7491 341.166 86.0574L328.195 86.0574C328.161 85.7309 328.144 85.2777 328.144 84.6974L328.84 84.4799C329.569 84.2623 330.158 84.0447 330.604 83.827C331.052 83.6095 331.433 83.2921 331.747 82.8751C332.062 82.44 332.219 81.8598 332.219 81.1344L332.219 66.2841ZM351.254 80.0194C351.254 81.5787 351.611 82.7119 352.323 83.4191C353.051 84.1081 354.154 84.5343 355.628 84.6974C355.628 84.9694 355.619 85.2414 355.603 85.5134C355.586 85.7854 355.579 85.9666 355.579 86.0574L342.78 86.0574L342.755 85.187C342.755 84.8968 342.764 84.6974 342.78 84.5886C343.741 84.3347 344.462 84.1081 344.942 83.9087C345.44 83.7093 345.845 83.3828 346.161 82.9296C346.475 82.4762 346.632 81.8416 346.632 81.0257L346.632 66.2841C346.434 65.867 346.044 65.4953 345.464 65.1689C344.884 64.8244 344.272 64.5433 343.625 64.3257C342.997 64.09 342.681 63.9812 342.681 63.9993L342.755 63.0746L349.54 61.2251L351.055 61.1163L351.328 65.5226C352.24 64.1808 353.399 63.0746 354.808 62.2043C356.233 61.3158 357.765 60.8716 359.404 60.8716C361.808 60.8716 363.67 61.615 364.996 63.1018C366.321 64.5887 367.042 66.8099 367.159 69.7655C367.208 70.926 367.233 72.1136 367.233 73.3285L367.233 79.3937C367.233 80.7174 367.307 81.6783 367.457 82.2767C367.605 82.8751 367.838 83.2921 368.152 83.5278C368.483 83.7455 369.03 83.9812 369.792 84.2351L370.836 84.5886C370.852 84.6974 370.861 84.8968 370.861 85.187L370.836 86.0574L358.586 86.0574C358.586 85.9485 358.577 85.7672 358.559 85.5134C358.543 85.2414 358.535 84.9694 358.535 84.6974C358.651 84.643 358.983 84.5343 359.529 84.371C360.407 84.099 361.087 83.8089 361.566 83.5008C362.064 83.1925 362.362 82.6939 362.462 82.0048C362.545 81.4789 362.586 80.7809 362.586 79.9105L362.586 73.8453C362.586 71.4337 362.503 69.5751 362.337 68.2695C362.189 66.964 361.774 65.8942 361.095 65.0601C360.432 64.2261 359.355 63.809 357.864 63.809C356.688 63.809 355.554 64.1808 354.46 64.9241C353.383 65.6675 352.314 66.6557 351.254 67.8888L351.254 80.0194ZM394.94 64.1626C394.575 64.0356 393.978 63.9721 393.151 63.9721C392.488 63.9721 391.792 64.0084 391.063 64.081C390.335 64.1354 389.862 64.1808 389.647 64.217C389.647 64.1808 389.829 64.4437 390.194 65.0058C390.557 65.5498 390.881 66.1843 391.162 66.9097C391.46 67.6168 391.61 68.3239 391.61 69.0312C391.61 70.8625 391.187 72.4309 390.342 73.7364C389.497 75.0419 388.396 76.0301 387.037 76.7011C385.696 77.3538 384.287 77.6802 382.813 77.6802C381.984 77.6802 380.924 77.517 379.633 77.1906C379.582 77.2269 379.391 77.3628 379.061 77.5987C378.647 77.8888 378.34 78.1606 378.141 78.4147C377.959 78.6504 377.868 78.9948 377.868 79.4482C377.868 79.9014 378.083 80.246 378.515 80.4817C378.945 80.6992 379.525 80.8533 380.254 80.944C380.982 81.0166 382.142 81.0892 383.732 81.1616C384.926 81.216 386.259 81.2977 387.733 81.4064C389.837 81.5696 391.536 82.168 392.827 83.2016C394.119 84.2351 394.765 85.6584 394.765 87.4717C394.765 89.1036 394.211 90.536 393.1 91.7691C391.991 93.002 390.492 93.945 388.603 94.5977C386.731 95.2686 384.668 95.604 382.416 95.604C380.543 95.604 378.92 95.3773 377.545 94.9241C376.169 94.489 375.118 93.9178 374.39 93.2105C373.677 92.5215 373.321 91.8054 373.321 91.0618C373.321 90.264 373.628 89.3847 374.24 88.4236C374.853 87.4626 375.813 86.4563 377.123 85.4045C376.195 84.9875 375.466 84.4526 374.936 83.7998C374.422 83.1471 374.166 82.4219 374.166 81.6241C374.166 80.663 374.522 79.7744 375.234 78.9586C375.947 78.1427 376.957 77.3176 378.266 76.4835C376.957 75.6676 375.947 74.6613 375.234 73.4645C374.522 72.2676 374.166 70.9079 374.166 69.3846C374.166 67.7527 374.531 66.2932 375.259 65.0058C376.005 63.7002 377.032 62.6848 378.34 61.9595C379.665 61.2342 381.148 60.8716 382.788 60.8716C384.76 60.8716 386.582 61.3521 388.255 62.3131C388.421 62.2405 388.793 62.1045 389.373 61.9051C389.954 61.6875 390.64 61.479 391.435 61.2795C392.248 61.0801 392.985 60.9803 393.647 60.9803C393.88 60.9803 394.111 60.9985 394.343 61.0347C394.592 61.0529 394.749 61.071 394.816 61.0891L394.94 64.1626ZM378.589 68.8135C378.589 70.8807 378.979 72.5759 379.756 73.8996C380.552 75.2232 381.728 75.8851 383.285 75.8851C384.627 75.8851 385.621 75.3411 386.268 74.2532C386.929 73.1652 387.261 71.6875 387.261 69.8199C387.261 68.3511 387.054 67.1 386.64 66.0665C386.243 65.0149 385.687 64.2261 384.975 63.7002C384.262 63.1562 383.467 62.8842 382.589 62.8842C381.844 62.8842 381.165 63.1381 380.552 63.6458C379.956 64.1354 379.474 64.8334 379.111 65.7401C378.762 66.6286 378.589 67.6531 378.589 68.8135ZM383.236 85.9757C381.977 85.9576 380.552 85.8489 378.961 85.6495C377.354 87.1544 376.55 88.5325 376.55 89.7835C376.55 90.6539 376.915 91.352 377.644 91.8778C378.39 92.4218 379.259 92.8026 380.254 93.0202C381.264 93.2377 382.201 93.3466 383.061 93.3466C384.271 93.3466 385.522 93.1924 386.814 92.8842C388.106 92.5941 389.192 92.1407 390.068 91.5243C390.947 90.9078 391.386 90.1553 391.386 89.2668C391.386 88.2877 390.889 87.5171 389.895 86.955C388.918 86.3928 387.402 86.0846 385.347 86.0301L383.236 85.9757ZM423.168 66.3113L434.5 54.0175C434.567 53.8 434.599 53.6005 434.599 53.4192C434.599 52.9115 434.401 52.576 434.002 52.4128C433.605 52.2496 433.001 52.1227 432.189 52.0321C431.542 51.9595 431.062 51.8689 430.747 51.7601C430.449 51.6513 430.3 51.4428 430.3 51.1345C430.3 51.0801 430.341 50.9169 430.424 50.6449L444.439 50.6449L444.538 51.1345C444.538 51.3702 444.224 51.6059 443.595 51.8417C442.965 52.0774 442.103 52.3222 441.011 52.576C439.42 52.9568 438.244 53.4917 437.482 54.1807L427.84 65.0058L439.47 82.5215C439.685 82.7754 440.05 83.0201 440.563 83.2558C441.094 83.4736 441.797 83.7365 442.676 84.0447C443.603 84.3529 444.307 84.6248 444.787 84.8605C445.284 85.0964 445.533 85.3321 445.533 85.5678C445.533 85.7672 445.499 85.9303 445.434 86.0574L428.436 86.0574C428.337 85.8217 428.288 85.6674 428.288 85.595C428.288 85.323 428.436 85.1325 428.734 85.0238C429.05 84.8968 429.538 84.7791 430.2 84.6702C430.995 84.5434 431.592 84.3982 431.99 84.2351C432.404 84.0537 432.611 83.7365 432.611 83.283C432.611 83.1018 432.47 82.8116 432.189 82.4128L423.267 68.1063L421.031 68.1063L421.031 82.6848C421.031 83.2468 421.197 83.673 421.528 83.9631C421.876 84.2351 422.29 84.4164 422.771 84.5071C423.251 84.5796 423.865 84.6339 424.609 84.6702C425.422 84.7246 426.009 84.8063 426.374 84.915C426.738 85.0057 426.921 85.2142 426.921 85.5406C426.921 85.5769 426.879 85.7491 426.796 86.0574L410.147 86.0574C410.08 85.8398 410.048 85.6856 410.048 85.595C410.048 85.2867 410.23 85.0783 410.595 84.9694C410.959 84.8426 411.514 84.7337 412.26 84.643C412.989 84.5343 413.576 84.4254 414.024 84.3166C414.472 84.2079 414.86 84.0085 415.191 83.7183C415.523 83.4282 415.689 83.0292 415.689 82.5215L415.689 54.3439C415.689 53.6368 415.382 53.1381 414.77 52.848C414.156 52.5579 413.295 52.3222 412.184 52.1408C411.423 51.9958 410.869 51.8598 410.52 51.7329C410.188 51.6059 410.024 51.4065 410.024 51.1345C410.024 51.0801 410.064 50.9169 410.147 50.6449L426.697 50.6449C426.763 50.8807 426.796 51.0348 426.796 51.1073C426.796 51.4156 426.614 51.6331 426.249 51.7601C425.886 51.887 425.313 52.0139 424.535 52.1408C423.789 52.2678 423.184 52.3947 422.72 52.5216C422.257 52.6486 421.86 52.8571 421.528 53.1472C421.197 53.4373 421.031 53.8362 421.031 54.3439L421.031 66.3113L423.168 66.3113ZM452.094 48.6322C452.887 48.6322 453.568 48.9405 454.131 49.557C454.693 50.1735 454.975 50.9169 454.975 51.7873C454.975 52.6758 454.693 53.4282 454.131 54.0447C453.568 54.6431 452.887 54.9423 452.094 54.9423C451.281 54.9423 450.594 54.6431 450.03 54.0447C449.484 53.4282 449.21 52.6758 449.21 51.7873C449.21 50.9169 449.484 50.1735 450.03 49.557C450.594 48.9405 451.281 48.6322 452.094 48.6322ZM450.104 66.2841C449.889 65.8669 449.484 65.4953 448.887 65.1689C448.307 64.8244 447.702 64.5433 447.073 64.3257C446.461 64.09 446.154 63.9812 446.154 63.9993L446.203 63.0474L453.187 61.1979L454.727 61.0891L454.727 80.0736C454.727 80.7083 454.785 81.3067 454.901 81.8688C455.034 82.431 455.415 83.002 456.044 83.5822C456.69 84.1625 457.7 84.5343 459.076 84.6974C459.076 85.2958 459.067 85.7491 459.051 86.0574L446.08 86.0574C446.046 85.7309 446.03 85.2777 446.03 84.6974L446.725 84.4799C447.455 84.2623 448.043 84.0447 448.49 83.827C448.937 83.6095 449.318 83.2921 449.633 82.8751C449.947 82.44 450.104 81.8598 450.104 81.1344L450.104 66.2841ZM481.34 71.5878L480.869 72.8933C480.123 75.0147 479.534 76.7646 479.104 78.1427C478.673 79.5024 478.458 80.5543 478.458 81.2977C478.458 81.9503 478.673 82.4852 479.104 82.9024C479.552 83.3193 480.056 83.6276 480.62 83.827C481.201 84.0266 481.904 84.2169 482.732 84.3982L483.204 84.5071L483.204 86.0574L471.476 86.0574L471.476 84.643C471.707 84.4436 471.94 84.2804 472.171 84.1534C472.42 84.0085 472.726 83.8542 473.091 83.6911C473.67 83.4373 474.134 83.1743 474.483 82.9024C474.846 82.6304 475.169 82.2042 475.451 81.6241C475.617 81.2614 475.783 80.8533 475.949 80.4C476.13 79.9286 476.247 79.6204 476.296 79.4754L476.594 78.6322L485.888 52.576C485.954 52.3766 486.005 52.0321 486.037 51.5425C486.054 51.1798 486.079 50.8897 486.112 50.6721C486.162 50.4364 486.245 50.2279 486.361 50.0466C487.172 50.0466 487.867 50.1372 488.447 50.3186C489.044 50.4999 489.64 50.8353 490.237 51.3249L501.643 81.2704C501.858 81.8326 502.107 82.2858 502.387 82.6304C502.669 82.9568 502.96 83.2106 503.258 83.3919C503.572 83.555 503.996 83.7546 504.525 83.9903C504.973 84.1534 505.445 84.371 505.941 84.643L505.892 86.0574L491.43 86.0574L491.38 84.643C492.158 84.3891 492.821 84.1353 493.368 83.8815C493.931 83.6276 494.437 83.274 494.883 82.8207C495.331 82.3675 495.555 81.8144 495.555 81.1616C495.555 80.4363 494.726 77.7437 493.07 73.0836C492.97 72.8116 492.871 72.5487 492.772 72.2949C492.689 72.041 492.613 71.8053 492.548 71.5878L481.34 71.5878ZM486.733 55.8126L482.185 69.1943L491.629 69.1943L486.733 55.8126ZM516.875 86.6013C514.87 86.6013 513.322 86.0574 512.228 84.9694C511.151 83.8633 510.422 82.431 510.041 80.672C509.661 78.9133 509.47 76.8189 509.47 74.3893L509.47 66.2841C509.255 65.8669 508.849 65.4953 508.253 65.1689C507.673 64.8244 507.068 64.5433 506.438 64.3257C505.826 64.09 505.519 63.9812 505.519 63.9993L505.569 63.0474L512.551 61.1979L514.092 61.0891L514.092 74.0901C514.092 76.411 514.225 78.2423 514.489 79.5841C514.755 80.9077 515.202 81.8779 515.831 82.4943C516.461 83.0927 517.339 83.3919 518.466 83.3919C520.768 83.3919 522.939 82.2858 524.976 80.0736L524.976 66.2841C524.761 65.8669 524.355 65.4953 523.759 65.1689C523.179 64.8244 522.574 64.5433 521.944 64.3257C521.332 64.09 521.025 63.9812 521.025 63.9993L521.075 63.0474L528.057 61.1979L529.598 61.0891L529.598 80.5904C529.598 81.3521 529.771 81.9413 530.12 82.3584C530.468 82.7572 530.898 83.0473 531.412 83.2288C531.926 83.4101 532.63 83.5822 533.524 83.7455C533.524 84.0175 533.508 84.2986 533.475 84.5886C533.457 84.8787 533.45 85.0783 533.45 85.187L525.299 86.4653L525.101 82.1136C522.648 85.1055 519.907 86.6013 516.875 86.6013Z" fill="#6D5D5D"/>
<path d="M170.809 49.1458C170.362 49.3412 169.94 49.5011 169.542 49.6255C169.144 49.7321 168.681 49.8388 168.15 49.9454C167.372 50.1053 166.792 50.2919 166.411 50.5051C166.03 50.7006 165.723 51.1182 165.492 51.7579C165.276 52.3798 165.168 53.3483 165.168 54.6632L165.168 77.9592C165.168 80.2693 164.912 82.4194 164.398 84.4097C163.885 86.4176 162.982 88.0791 161.69 89.3941C160.414 90.7091 158.699 91.3665 156.546 91.3665C155.817 91.3665 155.071 91.2599 154.309 91.0466C153.547 90.8334 152.901 90.4692 152.371 89.9539C151.841 89.4562 151.576 88.8077 151.576 88.008C151.576 87.3328 151.791 86.782 152.222 86.3554C152.636 85.9468 153.158 85.7424 153.787 85.7424C154.218 85.7424 154.574 85.8312 154.856 86.009C155.154 86.1866 155.386 86.391 155.552 86.6219C155.734 86.8707 155.941 87.2084 156.173 87.6348C156.422 88.1501 156.662 88.5322 156.894 88.781C157.142 89.0475 157.465 89.1809 157.863 89.1809C159.172 89.1809 159.826 86.8974 159.826 82.3307L159.826 54.9031C159.826 53.5171 159.71 52.4953 159.478 51.8379C159.263 51.1804 158.948 50.745 158.534 50.5318C158.136 50.3008 157.498 50.0787 156.62 49.8654C155.593 49.6344 154.773 49.4034 154.16 49.1724L154.235 47.7864L170.809 47.7864L170.809 49.1458ZM186.365 66.258C186.365 64.9252 186.249 63.7968 186.017 62.8729C185.802 61.9488 185.354 61.2025 184.675 60.6338C184.013 60.0652 183.06 59.7809 181.818 59.7809C181.387 59.7809 180.857 59.8786 180.227 60.0741C179.598 60.2696 179.043 60.5539 178.562 60.927C178.098 61.2825 177.866 61.7 177.866 62.1797C177.866 62.3753 177.9 62.5708 177.966 62.7662C178.032 62.9438 178.14 63.175 178.289 63.4593C178.438 63.7258 178.546 63.9568 178.612 64.1523C178.678 64.3477 178.711 64.552 178.711 64.7654C178.711 65.4761 178.496 66.0714 178.065 66.5512C177.651 67.0132 177.113 67.2441 176.45 67.2441C175.622 67.2441 174.959 66.9154 174.462 66.258C173.982 65.6004 173.741 64.8097 173.741 63.8857C173.741 62.4996 174.247 61.3536 175.257 60.4473C176.268 59.541 177.485 58.8746 178.91 58.4482C180.351 58.0217 181.693 57.8085 182.936 57.8085C185.272 57.8085 187.011 58.1816 188.154 58.928C189.314 59.6565 190.076 60.7316 190.44 62.1531C190.821 63.5569 191.012 65.5294 191.012 68.0705L190.962 69.4032C190.946 69.794 190.921 70.4427 190.888 71.3489C190.871 72.2552 190.863 73.0904 190.863 73.8545C190.863 77.8527 191.252 79.8517 192.031 79.8517C192.594 79.8517 193.323 79.2386 194.217 78.0126L195.261 79.212C194.532 80.4915 193.811 81.451 193.099 82.0908C192.387 82.7126 191.451 83.0236 190.291 83.0236C189.198 83.0236 188.295 82.6593 187.583 81.9308C186.887 81.1845 186.506 80.225 186.439 79.0521C185.379 80.2959 184.187 81.2734 182.861 81.9841C181.552 82.6771 180.161 83.0236 178.687 83.0236C177.659 83.0236 176.707 82.8282 175.829 82.4372C174.967 82.0286 174.272 81.4243 173.741 80.6247C173.228 79.8251 172.971 78.8656 172.971 77.746C172.971 76.058 173.576 74.6541 174.785 73.5346C175.995 72.4151 177.386 71.5622 178.96 70.9758C180.534 70.3894 182.455 69.8029 184.725 69.2167C184.924 69.1811 185.47 69.0389 186.365 68.7901L186.365 66.258ZM186.365 70.3627C186.117 70.4516 185.802 70.5581 185.421 70.6826C183.996 71.1801 182.778 71.6599 181.768 72.122C180.757 72.5662 179.854 73.1704 179.059 73.9345C178.264 74.6986 177.866 75.5959 177.866 76.6265C177.866 77.6749 178.132 78.5012 178.662 79.1054C179.208 79.7096 179.97 80.0116 180.948 80.0116C181.925 80.0116 182.87 79.7539 183.781 79.2386C184.692 78.7055 185.553 78.0126 186.365 77.1596L186.365 70.3627ZM216.333 51.1715C216.118 50.8161 215.696 50.4607 215.066 50.1053C214.453 49.7499 213.848 49.4478 213.252 49.1991C212.672 48.9503 212.291 48.7992 212.109 48.7459L212.159 47.813L219.166 46.0005L220.955 45.8139L220.955 77.1863C220.955 78.2524 221.378 79.0165 222.223 79.4785C223.084 79.9406 224.003 80.1716 224.981 80.1716L224.981 81.6376L218.346 82.8104L216.681 82.8104L216.458 78.679C215.281 80.1361 214.047 81.2289 212.755 81.9574C211.463 82.6682 210.08 83.0236 208.605 83.0236C206.733 83.0236 205.018 82.5439 203.461 81.5842C201.921 80.6069 200.703 79.2475 199.809 77.5061C198.914 75.747 198.467 73.73 198.467 71.4556C198.467 68.8434 198.964 66.5067 199.958 64.4455C200.968 62.3842 202.351 60.776 204.107 59.621C205.863 58.4659 207.827 57.8884 209.997 57.8884C211.007 57.8884 211.993 58.0572 212.954 58.3949C213.915 58.7147 215.041 59.2034 216.333 59.8609L216.333 51.1715ZM216.333 68.8968C216.333 67.173 216.193 65.7871 215.911 64.7387C215.629 63.6725 215.058 62.7306 214.196 61.9132C213.534 61.2914 212.821 60.8116 212.059 60.4739C211.297 60.1185 210.527 59.9408 209.748 59.9408C208.439 59.9408 207.28 60.394 206.269 61.3002C205.259 62.2064 204.472 63.4148 203.909 64.9252C203.362 66.4178 203.089 68.0349 203.089 69.7763C203.089 71.4645 203.362 73.0815 203.909 74.6275C204.472 76.1556 205.308 77.4084 206.418 78.3858C207.528 79.3631 208.87 79.8517 210.444 79.8517C211.703 79.8517 212.821 79.5585 213.799 78.9721C214.793 78.368 215.638 77.5684 216.333 76.5733L216.333 68.8968ZM232.162 68.4702C232.146 68.648 232.138 68.9057 232.138 69.2432C232.138 71.4822 232.51 73.357 233.256 74.8673C234.018 76.3599 235.028 77.4706 236.287 78.1991C237.563 78.91 238.988 79.2653 240.561 79.2653C242.649 79.2653 244.661 78.6257 246.6 77.3463L247.32 78.0926C246.923 79.1232 246.252 80.0116 245.308 80.7581C244.38 81.5044 243.32 82.073 242.127 82.4639C240.951 82.8371 239.808 83.0236 238.698 83.0236C236.61 83.0236 234.73 82.4994 233.057 81.451C231.4 80.4026 230.1 78.9367 229.156 77.0531C228.228 75.1695 227.764 73.0104 227.764 70.5759C227.764 68.106 228.269 65.9025 229.28 63.9657C230.29 62.011 231.632 60.5006 233.305 59.4344C234.995 58.3504 236.801 57.8085 238.723 57.8085C240.296 57.8085 241.713 58.155 242.972 58.848C244.247 59.5232 245.283 60.4828 246.078 61.7267C246.873 62.9527 247.378 64.3655 247.594 65.9647C247.776 66.7822 247.867 67.5374 247.867 68.2303L247.867 68.4702L232.162 68.4702ZM241.108 66.7644C241.837 66.7288 242.45 66.5867 242.947 66.338C242.831 64.2234 242.367 62.5708 241.555 61.3801C240.76 60.1896 239.625 59.5943 238.151 59.5943C237.074 59.5943 236.113 59.9408 235.269 60.6338C234.44 61.3269 233.769 62.2509 233.256 63.406C232.742 64.5431 232.411 65.796 232.262 67.1641L241.108 66.7644ZM252.116 88.0347C252.299 87.9636 252.572 87.8747 252.936 87.7681C253.997 87.4127 254.825 87.0839 255.421 86.782C256.018 86.4799 256.523 86.0355 256.937 85.4492C257.368 84.8628 257.583 84.0809 257.583 83.1036C257.351 82.4994 257.028 82.0286 256.614 81.6909C256.216 81.3532 255.695 81.1222 255.049 80.9979C254.27 80.8735 253.665 80.5358 253.235 79.9851C252.82 79.4164 252.613 78.7055 252.613 77.8527C252.613 76.8043 252.928 75.9335 253.558 75.2406C254.204 74.5475 255.049 74.2011 256.092 74.2011C256.987 74.2011 257.799 74.4765 258.528 75.0272C259.256 75.5781 259.828 76.3955 260.242 77.4795C260.673 78.5457 260.888 79.8162 260.888 81.2912C260.888 83.0503 260.507 84.5518 259.745 85.7956C259 87.0396 257.997 87.9814 256.738 88.6211C255.479 89.2608 254.088 89.5984 252.564 89.634C252.415 89.3852 252.299 89.1364 252.216 88.8877C252.15 88.6567 252.116 88.3724 252.116 88.0347ZM298.833 53.9436L298.237 52.3176C297.972 51.6069 297.764 51.0738 297.616 50.7184C297.417 50.5407 296.738 50.2119 295.578 49.7321C294.667 49.3412 294.012 49.048 293.615 48.8526C293.217 48.6571 293.018 48.4794 293.018 48.3195C293.018 48.2839 293.043 48.1951 293.093 48.0529C293.143 47.9108 293.176 47.8219 293.192 47.7864L309.145 47.7864C309.162 47.8397 309.187 47.9285 309.221 48.0529C309.27 48.1773 309.295 48.2661 309.295 48.3195C309.295 48.7282 309.113 48.9947 308.748 49.1191C308.4 49.2435 307.845 49.3412 307.083 49.4123C306.238 49.4834 305.6 49.6078 305.17 49.7855C304.739 49.9454 304.524 50.2919 304.524 50.825C304.524 51.1981 305.452 54.53 307.307 60.8205C309.178 67.1109 310.413 71.1801 311.009 73.0282L311.705 70.7626C315.582 58.3415 317.52 51.7046 317.52 50.8516C317.52 50.3008 317.272 49.9187 316.774 49.7055C316.277 49.4745 315.548 49.2879 314.587 49.1458C314.19 49.0924 313.801 49.0214 313.42 48.9325C313.039 48.8437 312.741 48.737 312.526 48.6127L312.376 48.3195L312.526 47.7864L325.372 47.7864C325.439 47.7864 325.522 47.8219 325.621 47.893C325.72 47.9463 325.786 48.0085 325.82 48.0796C325.82 48.3461 325.629 48.5593 325.248 48.7193C324.867 48.8614 324.254 49.0302 323.409 49.2257C322.167 49.51 321.181 49.821 320.452 50.1586C319.723 50.4785 319.243 50.976 319.011 51.6513C318.829 52.2021 318.638 52.8418 318.439 53.5704C318.24 54.2812 318.1 54.7876 318.017 55.0897C317.917 55.5162 317.834 55.836 317.769 56.0493L310.339 82.4639C310.238 82.8193 309.891 82.997 309.295 82.997C309.03 82.997 308.806 82.9614 308.624 82.8903C308.459 82.8193 308.326 82.6771 308.226 82.4639C307.912 81.8065 307.596 80.8379 307.282 79.5585L306.834 78.0392L299.778 55.996L293.341 75.8535C293.192 76.2979 292.985 77.0175 292.72 78.0126C292.405 79.1321 292.14 80.0116 291.925 80.6514C291.71 81.2912 291.469 81.8952 291.204 82.4639C291.105 82.6949 290.972 82.846 290.807 82.917C290.641 83.0059 290.426 83.0503 290.161 83.0503C289.664 83.0503 289.241 82.6771 288.893 81.9308C288.545 81.1845 288.198 80.225 287.85 79.0521L287.601 78.1991L284.197 68.417C282.358 63.0505 280.494 57.7196 278.606 52.4243C278.341 51.6957 277.951 51.1537 277.438 50.7983C276.941 50.4252 276.27 50.0698 275.425 49.7321C274.795 49.4834 274.315 49.2701 273.984 49.0924C273.652 48.9147 273.346 48.6748 273.064 48.3728L273.238 47.7864L289.216 47.7864C289.233 47.8397 289.258 47.9285 289.291 48.0529C289.324 48.1595 289.341 48.2484 289.341 48.3195C289.341 48.6748 289.175 48.9236 288.844 49.0658C288.529 49.1902 288.048 49.2968 287.402 49.3856C286.607 49.4923 285.994 49.6522 285.564 49.8654C285.149 50.0609 284.942 50.434 284.942 50.9849C284.942 51.2337 285.829 54.0591 287.601 59.461C289.39 64.863 290.906 69.4032 292.149 73.0815L298.833 53.9436ZM330.416 45.8139C331.211 45.8139 331.89 46.116 332.455 46.7202C333.017 47.3244 333.299 48.0529 333.299 48.9059C333.299 49.7766 333.017 50.514 332.455 51.1182C331.89 51.7046 331.211 51.9978 330.416 51.9978C329.605 51.9978 328.917 51.7046 328.354 51.1182C327.808 50.514 327.534 49.7766 327.534 48.9059C327.534 48.0529 327.808 47.3244 328.354 46.7202C328.917 46.116 329.605 45.8139 330.416 45.8139ZM328.428 63.1127C328.213 62.7039 327.808 62.3398 327.211 62.0199C326.631 61.6822 326.026 61.4068 325.397 61.1936C324.785 60.9626 324.478 60.8559 324.478 60.8737L324.527 59.9408L331.51 58.1283L333.051 58.0217L333.051 76.6265C333.051 77.2485 333.109 77.8349 333.225 78.3858C333.358 78.9367 333.739 79.4963 334.368 80.0649C335.014 80.6336 336.024 80.9979 337.4 81.1578C337.4 81.7442 337.391 82.1884 337.375 82.4905L324.404 82.4905C324.37 82.1706 324.353 81.7265 324.353 81.1578L325.049 80.9446C325.778 80.7314 326.367 80.5182 326.813 80.3048C327.261 80.0916 327.642 79.7806 327.956 79.372C328.271 78.9456 328.428 78.3769 328.428 77.666L328.428 63.1127ZM347.463 76.5733C347.463 78.1015 347.819 79.212 348.532 79.9051C349.26 80.5803 350.363 80.9979 351.837 81.1578C351.837 81.4243 351.828 81.6909 351.812 81.9574C351.795 82.224 351.788 82.4016 351.788 82.4905L338.989 82.4905L338.964 81.6376C338.964 81.3532 338.973 81.1578 338.989 81.0511C339.95 80.8024 340.671 80.5803 341.151 80.3848C341.649 80.1894 342.054 79.8695 342.37 79.4253C342.684 78.981 342.841 78.3591 342.841 77.5595L342.841 63.1127C342.643 62.7039 342.253 62.3398 341.673 62.0199C341.093 61.6822 340.481 61.4068 339.834 61.1936C339.206 60.9626 338.89 60.8559 338.89 60.8737L338.964 59.9675L345.749 58.155L347.264 58.0483L347.537 62.3664C348.449 61.0515 349.608 59.9675 351.017 59.1145C352.442 58.2438 353.974 57.8085 355.613 57.8085C358.017 57.8085 359.879 58.537 361.205 59.9941C362.53 61.4512 363.251 63.628 363.368 66.5245C363.417 67.6618 363.442 68.8257 363.442 70.0163L363.442 75.9602C363.442 77.2574 363.516 78.1991 363.666 78.7855C363.814 79.372 364.047 79.7806 364.361 80.0116C364.692 80.225 365.239 80.4559 366.001 80.7047L367.045 81.0511C367.061 81.1578 367.07 81.3532 367.07 81.6376L367.045 82.4905L354.795 82.4905C354.795 82.3839 354.786 82.2062 354.768 81.9574C354.752 81.6909 354.744 81.4243 354.744 81.1578C354.86 81.1045 355.191 80.9979 355.738 80.8379C356.616 80.5714 357.295 80.287 357.775 79.9851C358.273 79.683 358.571 79.1943 358.671 78.519C358.754 78.0037 358.795 77.3196 358.795 76.4666L358.795 70.5227C358.795 68.1594 358.712 66.338 358.546 65.0584C358.398 63.779 357.983 62.7306 357.304 61.9132C356.641 61.0959 355.564 60.6871 354.073 60.6871C352.897 60.6871 351.763 61.0515 350.669 61.78C349.592 62.5085 348.523 63.4769 347.463 64.6853L347.463 76.5733ZM391.148 61.0337C390.784 60.9092 390.187 60.847 389.36 60.847C388.697 60.847 388 60.8826 387.272 60.9537C386.544 61.007 386.071 61.0515 385.856 61.087C385.856 61.0515 386.038 61.3091 386.402 61.86C386.766 62.3931 387.09 63.0149 387.371 63.7258C387.669 64.4188 387.819 65.1118 387.819 65.8049C387.819 67.5996 387.396 69.1366 386.551 70.416C385.706 71.6954 384.605 72.6638 383.246 73.3214C381.905 73.961 380.496 74.2809 379.022 74.2809C378.193 74.2809 377.133 74.121 375.842 73.8011C375.791 73.8367 375.6 73.9699 375.27 74.2011C374.856 74.4854 374.549 74.7518 374.35 75.0007C374.168 75.2317 374.077 75.5692 374.077 76.0135C374.077 76.4577 374.292 76.7954 374.724 77.0264C375.154 77.2396 375.734 77.3906 376.463 77.4795C377.191 77.5506 378.351 77.6217 379.941 77.6927C381.134 77.746 382.468 77.826 383.942 77.9326C386.046 78.0926 387.745 78.679 389.036 79.6919C390.328 80.7047 390.974 82.0995 390.974 83.8766C390.974 85.4759 390.42 86.8796 389.309 88.088C388.2 89.2963 386.701 90.2204 384.812 90.86C382.94 91.5176 380.877 91.8462 378.625 91.8462C376.752 91.8462 375.129 91.6241 373.754 91.1799C372.378 90.7535 371.327 90.1937 370.599 89.5006C369.886 88.8254 369.53 88.1236 369.53 87.3949C369.53 86.6131 369.837 85.7513 370.449 84.8095C371.062 83.8677 372.022 82.8815 373.332 81.8508C372.404 81.4421 371.675 80.9179 371.145 80.2781C370.631 79.6385 370.375 78.9278 370.375 78.1459C370.375 77.204 370.731 76.3333 371.443 75.5338C372.156 74.7341 373.166 73.9256 374.475 73.1082C373.166 72.3085 372.156 71.3224 371.443 70.1495C370.731 68.9766 370.375 67.644 370.375 66.1513C370.375 64.552 370.74 63.1216 371.468 61.86C372.214 60.5805 373.241 59.5854 374.549 58.8746C375.874 58.1639 377.357 57.8085 378.997 57.8085C380.969 57.8085 382.791 58.2794 384.464 59.2212C384.63 59.1501 385.002 59.0168 385.582 58.8213C386.163 58.6081 386.849 58.4038 387.644 58.2083C388.457 58.0128 389.194 57.9151 389.856 57.9151C390.088 57.9151 390.32 57.9329 390.552 57.9684C390.801 57.9862 390.958 58.0039 391.025 58.0217L391.148 61.0337ZM374.798 65.5915C374.798 67.6174 375.187 69.2787 375.965 70.5759C376.761 71.8731 377.937 72.5218 379.494 72.5218C380.836 72.5218 381.83 71.9887 382.477 70.9225C383.138 69.8563 383.47 68.4081 383.47 66.5779C383.47 65.1384 383.263 63.9124 382.849 62.8995C382.452 61.8689 381.896 61.0959 381.184 60.5805C380.471 60.0474 379.676 59.7809 378.798 59.7809C378.053 59.7809 377.374 60.0297 376.761 60.5272C376.165 61.007 375.683 61.6911 375.32 62.5796C374.971 63.4504 374.798 64.4544 374.798 65.5915ZM379.445 82.4105C378.186 82.3927 376.761 82.2862 375.17 82.0908C373.563 83.5656 372.759 84.9161 372.759 86.1422C372.759 86.9952 373.124 87.6792 373.853 88.1946C374.599 88.7277 375.468 89.1009 376.463 89.3141C377.473 89.5273 378.41 89.634 379.27 89.634C380.48 89.634 381.731 89.4828 383.023 89.1809C384.314 88.8966 385.401 88.4522 386.277 87.8482C387.156 87.2439 387.595 86.5065 387.595 85.6358C387.595 84.6763 387.098 83.9211 386.104 83.3702C385.127 82.8193 383.611 82.5172 381.556 82.4639L379.445 82.4105ZM419.377 63.1394L430.709 51.0915C430.775 50.8783 430.807 50.6828 430.807 50.5051C430.807 50.0076 430.61 49.6788 430.211 49.5189C429.814 49.359 429.209 49.2346 428.398 49.1458C427.751 49.0747 427.271 48.9858 426.956 48.8792C426.658 48.7726 426.509 48.5682 426.509 48.2661C426.509 48.2128 426.55 48.0529 426.633 47.7864L440.648 47.7864L440.747 48.2661C440.747 48.4971 440.433 48.7282 439.804 48.9592C439.174 49.1902 438.312 49.4301 437.22 49.6788C435.629 50.052 434.453 50.5762 433.691 51.2514L424.049 61.86L435.679 79.0254C435.894 79.2742 436.259 79.5141 436.772 79.7451C437.303 79.9584 438.006 80.2161 438.885 80.5182C439.812 80.8201 440.516 81.0867 440.996 81.3177C441.493 81.5488 441.742 81.7798 441.742 82.0108C441.742 82.2062 441.708 82.3661 441.643 82.4905L424.645 82.4905C424.546 82.2596 424.497 82.1084 424.497 82.0375C424.497 81.7709 424.645 81.5842 424.943 81.4777C425.259 81.3532 425.747 81.2378 426.409 81.1311C427.204 81.0068 427.801 80.8646 428.199 80.7047C428.613 80.5269 428.82 80.2161 428.82 79.7717C428.82 79.5941 428.679 79.3097 428.398 78.9189L419.476 64.8986L417.24 64.8986L417.24 79.1854C417.24 79.7362 417.406 80.1538 417.737 80.4382C418.085 80.7047 418.499 80.8824 418.98 80.9713C419.46 81.0424 420.074 81.0956 420.818 81.1311C421.631 81.1845 422.218 81.2645 422.583 81.371C422.947 81.4599 423.13 81.6642 423.13 81.9841C423.13 82.0197 423.088 82.1884 423.005 82.4905L406.356 82.4905C406.289 82.2773 406.257 82.1262 406.257 82.0375C406.257 81.7353 406.439 81.531 406.804 81.4243C407.168 81.3 407.723 81.1934 408.469 81.1045C409.198 80.9979 409.785 80.8913 410.233 80.7846C410.681 80.678 411.069 80.4826 411.4 80.1983C411.732 79.914 411.898 79.523 411.898 79.0254L411.898 51.4114C411.898 50.7184 411.591 50.2297 410.979 49.9454C410.365 49.6611 409.504 49.4301 408.393 49.2524C407.632 49.1102 407.078 48.9769 406.729 48.8526C406.397 48.7282 406.233 48.5327 406.233 48.2661C406.233 48.2128 406.273 48.0529 406.356 47.7864L422.906 47.7864C422.972 48.0174 423.005 48.1684 423.005 48.2395C423.005 48.5416 422.823 48.7548 422.458 48.8792C422.095 49.0036 421.522 49.128 420.744 49.2524C419.998 49.3768 419.393 49.5011 418.929 49.6255C418.466 49.7499 418.069 49.9543 417.737 50.2386C417.406 50.5229 417.24 50.9138 417.24 51.4114L417.24 63.1394L419.377 63.1394ZM448.302 45.8139C449.096 45.8139 449.777 46.116 450.34 46.7202C450.902 47.3244 451.184 48.0529 451.184 48.9059C451.184 49.7766 450.902 50.514 450.34 51.1182C449.777 51.7046 449.096 51.9978 448.302 51.9978C447.49 51.9978 446.803 51.7046 446.239 51.1182C445.693 50.514 445.419 49.7766 445.419 48.9059C445.419 48.0529 445.693 47.3244 446.239 46.7202C446.803 46.116 447.49 45.8139 448.302 45.8139ZM446.313 63.1127C446.098 62.7039 445.692 62.3398 445.096 62.0199C444.516 61.6822 443.911 61.4068 443.282 61.1936C442.67 60.9626 442.363 60.8559 442.363 60.8737L442.412 59.9408L449.396 58.1283L450.936 58.0217L450.936 76.6265C450.936 77.2485 450.994 77.8349 451.11 78.3858C451.243 78.9367 451.624 79.4963 452.253 80.0649C452.899 80.6336 453.909 80.9979 455.285 81.1578C455.285 81.7442 455.276 82.1884 455.26 82.4905L442.289 82.4905C442.255 82.1706 442.239 81.7265 442.239 81.1578L442.934 80.9446C443.664 80.7314 444.252 80.5182 444.699 80.3048C445.146 80.0916 445.527 79.7806 445.842 79.372C446.156 78.9456 446.313 78.3769 446.313 77.666L446.313 63.1127ZM477.549 68.3103L477.078 69.5897C476.332 71.6688 475.743 73.3836 475.313 74.7341C474.882 76.0667 474.667 77.0975 474.667 77.826C474.667 78.4657 474.882 78.9899 475.313 79.3986C475.761 79.8073 476.265 80.1094 476.829 80.3048C477.41 80.5004 478.113 80.6869 478.941 80.8646L479.413 80.9713L479.413 82.4905L467.685 82.4905L467.685 81.1045C467.916 80.909 468.149 80.7492 468.38 80.6247C468.629 80.4826 468.935 80.3315 469.3 80.1716C469.879 79.9229 470.343 79.6652 470.692 79.3986C471.055 79.1321 471.378 78.7144 471.66 78.1459C471.826 77.7905 471.992 77.3906 472.158 76.9464C472.339 76.4844 472.456 76.1823 472.505 76.0402L472.803 75.2139L482.097 49.6788C482.163 49.4834 482.214 49.1458 482.246 48.666C482.263 48.3106 482.288 48.0263 482.321 47.813C482.371 47.582 482.454 47.3777 482.57 47.2C483.381 47.2 484.076 47.2888 484.656 47.4665C485.253 47.6442 485.849 47.9729 486.446 48.4527L497.852 77.7994C498.067 78.3502 498.316 78.7944 498.596 79.1321C498.878 79.452 499.169 79.7008 499.467 79.8784C499.781 80.0383 500.205 80.2339 500.734 80.4648C501.182 80.6247 501.654 80.8379 502.15 81.1045L502.101 82.4905L487.639 82.4905L487.589 81.1045C488.367 80.8557 489.03 80.6069 489.577 80.3582C490.14 80.1094 490.646 79.7628 491.092 79.3186C491.54 78.8744 491.764 78.3325 491.764 77.6927C491.764 76.9819 490.935 74.3431 489.279 69.7763C489.179 69.5097 489.08 69.2521 488.981 69.0033C488.898 68.7545 488.822 68.5235 488.757 68.3103L477.549 68.3103ZM482.942 52.8507L478.394 65.9647L487.838 65.9647L482.942 52.8507ZM513.084 83.0236C511.079 83.0236 509.531 82.4905 508.437 81.4243C507.36 80.3404 506.631 78.9367 506.25 77.2129C505.869 75.4893 505.679 73.4368 505.679 71.0558L505.679 63.1127C505.464 62.7039 505.058 62.3398 504.462 62.0199C503.882 61.6822 503.277 61.4068 502.647 61.1936C502.035 60.9626 501.728 60.8559 501.728 60.8737L501.778 59.9408L508.76 58.1283L510.301 58.0217L510.301 70.7626C510.301 73.0371 510.434 74.8318 510.698 76.1467C510.964 77.4439 511.411 78.3947 512.04 78.9987C512.67 79.5852 513.548 79.8784 514.675 79.8784C516.977 79.8784 519.148 78.7944 521.185 76.6265L521.185 63.1127C520.97 62.7039 520.564 62.3398 519.968 62.0199C519.388 61.6822 518.783 61.4068 518.153 61.1936C517.541 60.9626 517.234 60.8559 517.234 60.8737L517.284 59.9408L524.266 58.1283L525.807 58.0217L525.807 77.1329C525.807 77.8794 525.98 78.4568 526.329 78.8656C526.677 79.2564 527.107 79.5407 527.62 79.7185C528.135 79.8962 528.839 80.0649 529.733 80.225C529.733 80.4915 529.717 80.7669 529.684 81.0511C529.666 81.3354 529.659 81.531 529.659 81.6376L521.508 82.8903L521.31 78.6257C518.857 81.5577 516.116 83.0236 513.084 83.0236Z" fill="white"/>
<path d="M70.8558 42.4817L64.6176 39.9948L52.8684 69.3543L42.9046 93.7561C34.9928 108.73 28.0369 107.514 21.0809 106.299C20.0872 106.125 12.8219 103.768 14.1572 96.2622C15.2231 90.2702 2.72052 86.7055 2.84574 96.4918C2.92906 103.004 13.4849 110.619 18.2405 111.716C18.2405 111.716 39.798 119.84 48.8537 94.7959C53.9579 80.6798 70.8558 42.4817 70.8558 42.4817Z" fill="white"/>
<path d="M85.196 99.7749L66.9034 41.5897L73.0148 42.6579L91.3075 100.843L85.196 99.7749Z" fill="white"/>
<path d="M49.6902 32.4031L72.6518 41.4285L74.6313 48.4919L51.2738 39.8589L49.6902 32.4031Z" fill="white"/>
<path d="M78.2031 100.233C84.6901 100.304 85.374 99.3754 87.079 97.8789C91.396 99.9241 93.6571 100.414 97.4343 100.233L97.4343 102.588L78.2031 102.588L78.2031 100.233Z" fill="white"/>
<path d="M51.7451 74.8022L54.1816 67.9544L98.5945 59.8795L89.2925 64.741L51.7451 74.8022Z" fill="white"/>
<ellipse cx="68.297" cy="24.9473" rx="4.35478" ry="4.31652" fill="white"/>
</svg>
