<svg width="175" height="40" viewBox="0 0 175 40" fill="none" xmlns="http://www.w3.org/2000/svg">
<rect x="0.5" y="-0.5" width="174" height="39" rx="14.5" transform="matrix(1 0 0 -1 0 39)" stroke="black"/>
<path d="M24.3477 16.4688H25.4434L28.2383 23.4238L31.0273 16.4688H32.1289L28.6602 25H27.8047L24.3477 16.4688ZM23.9902 16.4688H24.957L25.1152 21.6719V25H23.9902V16.4688ZM31.5137 16.4688H32.4805V25H31.3555V21.6719L31.5137 16.4688ZM41.0352 20.4648V21.0039C41.0352 21.6445 40.9551 22.2188 40.7949 22.7266C40.6348 23.2344 40.4043 23.666 40.1035 24.0215C39.8027 24.377 39.4414 24.6484 39.0195 24.8359C38.6016 25.0234 38.1328 25.1172 37.6133 25.1172C37.1094 25.1172 36.6465 25.0234 36.2246 24.8359C35.8066 24.6484 35.4434 24.377 35.1348 24.0215C34.8301 23.666 34.5938 23.2344 34.4258 22.7266C34.2578 22.2188 34.1738 21.6445 34.1738 21.0039V20.4648C34.1738 19.8242 34.2559 19.252 34.4199 18.748C34.5879 18.2402 34.8242 17.8086 35.1289 17.4531C35.4336 17.0938 35.7949 16.8203 36.2129 16.6328C36.6348 16.4453 37.0977 16.3516 37.6016 16.3516C38.1211 16.3516 38.5898 16.4453 39.0078 16.6328C39.4297 16.8203 39.791 17.0938 40.0918 17.4531C40.3965 17.8086 40.6289 18.2402 40.7891 18.748C40.9531 19.252 41.0352 19.8242 41.0352 20.4648ZM39.916 21.0039V20.4531C39.916 19.9453 39.8633 19.4961 39.7578 19.1055C39.6562 18.7148 39.5059 18.3867 39.3066 18.1211C39.1074 17.8555 38.8633 17.6543 38.5742 17.5176C38.2891 17.3809 37.9648 17.3125 37.6016 17.3125C37.25 17.3125 36.9316 17.3809 36.6465 17.5176C36.3652 17.6543 36.123 17.8555 35.9199 18.1211C35.7207 18.3867 35.5664 18.7148 35.457 19.1055C35.3477 19.4961 35.293 19.9453 35.293 20.4531V21.0039C35.293 21.5156 35.3477 21.9688 35.457 22.3633C35.5664 22.7539 35.7227 23.084 35.9258 23.3535C36.1328 23.6191 36.377 23.8203 36.6582 23.957C36.9434 24.0938 37.2617 24.1621 37.6133 24.1621C37.9805 24.1621 38.3066 24.0938 38.5918 23.957C38.877 23.8203 39.1172 23.6191 39.3125 23.3535C39.5117 23.084 39.6621 22.7539 39.7637 22.3633C39.8652 21.9688 39.916 21.5156 39.916 21.0039ZM42.7285 16.4688H45.5527C46.1934 16.4688 46.7344 16.5664 47.1758 16.7617C47.6211 16.957 47.959 17.2461 48.1895 17.6289C48.4238 18.0078 48.541 18.4746 48.541 19.0293C48.541 19.4199 48.4609 19.7773 48.3008 20.1016C48.1445 20.4219 47.918 20.6953 47.6211 20.9219C47.3281 21.1445 46.9766 21.3105 46.5664 21.4199L46.25 21.543H43.5957L43.584 20.623H45.5879C45.9941 20.623 46.332 20.5527 46.6016 20.4121C46.8711 20.2676 47.0742 20.0742 47.2109 19.832C47.3477 19.5898 47.416 19.3223 47.416 19.0293C47.416 18.7012 47.3516 18.4141 47.2227 18.168C47.0938 17.9219 46.8906 17.7324 46.6133 17.5996C46.3398 17.4629 45.9863 17.3945 45.5527 17.3945H43.8594V25H42.7285V16.4688ZM47.7148 25L45.6406 21.1328L46.8184 21.127L48.9219 24.9297V25H47.7148ZM55.543 24.0801V25H51.0254V24.0801H55.543ZM51.2539 16.4688V25H50.123V16.4688H51.2539ZM54.9453 20.1367V21.0566H51.0254V20.1367H54.9453ZM55.4844 16.4688V17.3945H51.0254V16.4688H55.4844ZM63.0781 17.2246L60.2539 25H59.0996L62.3516 16.4688H63.0957L63.0781 17.2246ZM65.4453 25L62.6152 17.2246L62.5977 16.4688H63.3418L66.6055 25H65.4453ZM65.2988 21.8418V22.7676H60.5059V21.8418H65.2988ZM70.7891 21.0098H68.627L68.6152 20.1016H70.5781C70.9023 20.1016 71.1855 20.0469 71.4277 19.9375C71.6699 19.8281 71.8574 19.6719 71.9902 19.4688C72.127 19.2617 72.1953 19.0156 72.1953 18.7305C72.1953 18.418 72.1348 18.1641 72.0137 17.9688C71.8965 17.7695 71.7148 17.625 71.4688 17.5352C71.2266 17.4414 70.918 17.3945 70.543 17.3945H68.8789V25H67.748V16.4688H70.543C70.9805 16.4688 71.3711 16.5137 71.7148 16.6035C72.0586 16.6895 72.3496 16.8262 72.5879 17.0137C72.8301 17.1973 73.0137 17.4316 73.1387 17.7168C73.2637 18.002 73.3262 18.3438 73.3262 18.7422C73.3262 19.0938 73.2363 19.4121 73.0566 19.6973C72.877 19.9785 72.627 20.209 72.3066 20.3887C71.9902 20.5684 71.6191 20.6836 71.1934 20.7344L70.7891 21.0098ZM70.7363 25H68.1816L68.8203 24.0801H70.7363C71.0957 24.0801 71.4004 24.0176 71.6504 23.8926C71.9043 23.7676 72.0977 23.5918 72.2305 23.3652C72.3633 23.1348 72.4297 22.8633 72.4297 22.5508C72.4297 22.2344 72.373 21.9609 72.2598 21.7305C72.1465 21.5 71.9688 21.3223 71.7266 21.1973C71.4844 21.0723 71.1719 21.0098 70.7891 21.0098H69.1777L69.1895 20.1016H71.3926L71.6328 20.4297C72.043 20.4648 72.3906 20.582 72.6758 20.7812C72.9609 20.9766 73.1777 21.2266 73.3262 21.5312C73.4785 21.8359 73.5547 22.1719 73.5547 22.5391C73.5547 23.0703 73.4375 23.5195 73.2031 23.8867C72.9727 24.25 72.6465 24.5273 72.2246 24.7188C71.8027 24.9062 71.3066 25 70.7363 25ZM81.793 20.4648V21.0039C81.793 21.6445 81.7129 22.2188 81.5527 22.7266C81.3926 23.2344 81.1621 23.666 80.8613 24.0215C80.5605 24.377 80.1992 24.6484 79.7773 24.8359C79.3594 25.0234 78.8906 25.1172 78.3711 25.1172C77.8672 25.1172 77.4043 25.0234 76.9824 24.8359C76.5645 24.6484 76.2012 24.377 75.8926 24.0215C75.5879 23.666 75.3516 23.2344 75.1836 22.7266C75.0156 22.2188 74.9316 21.6445 74.9316 21.0039V20.4648C74.9316 19.8242 75.0137 19.252 75.1777 18.748C75.3457 18.2402 75.582 17.8086 75.8867 17.4531C76.1914 17.0938 76.5527 16.8203 76.9707 16.6328C77.3926 16.4453 77.8555 16.3516 78.3594 16.3516C78.8789 16.3516 79.3477 16.4453 79.7656 16.6328C80.1875 16.8203 80.5488 17.0938 80.8496 17.4531C81.1543 17.8086 81.3867 18.2402 81.5469 18.748C81.7109 19.252 81.793 19.8242 81.793 20.4648ZM80.6738 21.0039V20.4531C80.6738 19.9453 80.6211 19.4961 80.5156 19.1055C80.4141 18.7148 80.2637 18.3867 80.0645 18.1211C79.8652 17.8555 79.6211 17.6543 79.332 17.5176C79.0469 17.3809 78.7227 17.3125 78.3594 17.3125C78.0078 17.3125 77.6895 17.3809 77.4043 17.5176C77.123 17.6543 76.8809 17.8555 76.6777 18.1211C76.4785 18.3867 76.3242 18.7148 76.2148 19.1055C76.1055 19.4961 76.0508 19.9453 76.0508 20.4531V21.0039C76.0508 21.5156 76.1055 21.9688 76.2148 22.3633C76.3242 22.7539 76.4805 23.084 76.6836 23.3535C76.8906 23.6191 77.1348 23.8203 77.416 23.957C77.7012 24.0938 78.0195 24.1621 78.3711 24.1621C78.7383 24.1621 79.0645 24.0938 79.3496 23.957C79.6348 23.8203 79.875 23.6191 80.0703 23.3535C80.2695 23.084 80.4199 22.7539 80.5215 22.3633C80.623 21.9688 80.6738 21.5156 80.6738 21.0039ZM88.3672 16.4688H89.4922V22.2402C89.4922 22.8809 89.3496 23.4141 89.0645 23.8398C88.7793 24.2656 88.4004 24.5859 87.9277 24.8008C87.459 25.0117 86.9492 25.1172 86.3984 25.1172C85.8203 25.1172 85.2969 25.0117 84.8281 24.8008C84.3633 24.5859 83.9941 24.2656 83.7207 23.8398C83.4512 23.4141 83.3164 22.8809 83.3164 22.2402V16.4688H84.4355V22.2402C84.4355 22.6855 84.5176 23.0527 84.6816 23.3418C84.8457 23.6309 85.0742 23.8457 85.3672 23.9863C85.6641 24.127 86.0078 24.1973 86.3984 24.1973C86.793 24.1973 87.1367 24.127 87.4297 23.9863C87.7266 23.8457 87.957 23.6309 88.1211 23.3418C88.2852 23.0527 88.3672 22.6855 88.3672 22.2402V16.4688ZM94.4199 16.4688V25H93.3066V16.4688H94.4199ZM97.1621 16.4688V17.3945H90.5703V16.4688H97.1621ZM101.527 16.4688H102.623L105.418 23.4238L108.207 16.4688H109.309L105.84 25H104.984L101.527 16.4688ZM101.17 16.4688H102.137L102.295 21.6719V25H101.17V16.4688ZM108.693 16.4688H109.66V25H108.535V21.6719L108.693 16.4688ZM117.066 24.0801V25H112.549V24.0801H117.066ZM112.777 16.4688V25H111.646V16.4688H112.777ZM116.469 20.1367V21.0566H112.549V20.1367H116.469ZM117.008 16.4688V17.3945H112.549V16.4688H117.008Z" fill="black"/>
<path d="M155 14L161 20.2586L155 25" stroke="black"/>
<path d="M146 14L152 20.2586L146 25" stroke="black"/>
</svg>
