<svg width="473" height="170" viewBox="0 0 473 170" fill="none" xmlns="http://www.w3.org/2000/svg">
<path d="M68.209 105.102C68.1243 106.286 68.082 108.021 68.082 110.307C68.0397 114.031 67.8281 116.929 67.4473 119.003C67.0664 121.076 66.0719 122.812 64.4639 124.208C62.8981 125.604 60.4225 126.303 57.0371 126.303C56.2754 127.657 55.8945 128.821 55.8945 129.794C55.8945 130.598 56.0426 131 56.3389 131H87.9502C88.2041 131 88.3734 130.767 88.458 130.302C88.5426 129.836 88.585 129.434 88.585 129.096C88.585 127.403 88.3734 126.472 87.9502 126.303C84.4378 126.303 81.793 125.753 80.0156 124.652C78.2383 123.552 77.3919 121.415 77.4766 118.241L79.1904 50.7656H68.8438L25.4258 117.606C23.3945 120.696 21.2575 122.917 19.0146 124.271C16.8141 125.626 13.9577 126.303 10.4453 126.303C9.64128 127.572 9.23926 128.736 9.23926 129.794C9.23926 130.598 9.40853 131 9.74707 131H41.9297C42.1413 131 42.2894 130.746 42.374 130.238C42.4587 129.73 42.501 129.35 42.501 129.096C42.501 127.403 42.3105 126.472 41.9297 126.303C39.4753 126.303 37.3382 126.049 35.5186 125.541C33.6989 124.991 32.7891 123.785 32.7891 121.923C32.7891 120.823 33.5719 119.003 35.1377 116.464C36.7458 113.882 38.8193 110.709 41.3584 106.942L42.6279 105.102H68.209ZM68.9707 65.1748L68.3994 101.166H45.9287L68.9707 65.1748ZM116.324 75.6484C112.473 75.6484 108.919 77.0661 105.66 79.9014C102.444 82.7367 99.249 86.4818 96.0752 91.1367L99.5029 94.374C101.069 91.8773 102.359 89.9095 103.375 88.4707C104.391 87.0319 105.618 85.6566 107.057 84.3447C108.538 82.9906 109.977 82.3135 111.373 82.3135C112.389 82.3135 113.087 82.6732 113.468 83.3926C113.849 84.0697 114.039 84.7256 114.039 85.3604C114.039 87.3493 113.531 90.5866 112.516 95.0723C111.542 99.5156 109.765 105.631 107.184 113.417C106.633 115.067 106.358 115.893 106.358 115.893C105.512 118.262 104.877 120.188 104.454 121.669C104.031 123.15 103.819 124.525 103.819 125.795C103.819 127.868 104.158 129.392 104.835 130.365C105.554 131.339 106.485 131.825 107.628 131.825C109.363 131.825 110.886 131.212 112.198 129.984C113.51 128.757 114.864 126.853 116.261 124.271C117.953 120.674 120.281 116.358 123.243 111.322C126.248 106.286 129.337 101.674 132.511 97.4844C135.685 93.2949 138.414 90.6289 140.699 89.4863C141.249 89.1901 141.969 88.8727 142.857 88.5342C143.746 88.1956 144.444 87.9206 144.952 87.709C147.026 86.9049 148.697 86.2067 149.967 85.6143C151.279 85.0218 152.379 84.2601 153.268 83.3291C154.199 82.3981 154.664 81.2979 154.664 80.0283C154.664 78.5472 154.05 77.2354 152.823 76.0928C151.596 74.9502 150.242 74.3789 148.761 74.3789C145.799 74.3789 142.879 75.6696 140.001 78.251C137.166 80.79 134.648 83.7523 132.447 87.1377C130.247 90.5231 127.792 94.6068 125.084 99.3887C124.026 101.293 123.095 102.901 122.291 104.213L116.451 114.623L115.245 114.115L116.388 110.624C118.757 103.557 120.493 98.0133 121.593 93.9932C122.735 89.9307 123.307 86.5241 123.307 83.7734C123.307 81.3613 122.714 79.4147 121.529 77.9336C120.387 76.4102 118.652 75.6484 116.324 75.6484ZM149.967 81.8691H162.853L155.489 106.752C153.797 112.38 152.95 117.204 152.95 121.225L152.887 121.288C152.887 124.716 153.606 127.424 155.045 129.413C156.484 131.36 158.959 132.333 162.472 132.333C165.73 132.333 168.65 131.317 171.231 129.286C173.813 127.255 176.225 124.568 178.468 121.225L182.149 115.258L178.023 112.401L174.723 118.114C171.93 122.938 169.327 125.351 166.915 125.351C164.63 125.351 163.487 123.7 163.487 120.399C163.487 119.384 163.657 118.262 163.995 117.035C164.376 115.808 164.609 115.004 164.693 114.623L173.136 81.9326H188.243L189.576 75.6484H174.088C174.469 74.5482 175.146 72.6439 176.119 69.9355C177.092 67.1849 178.129 64.2227 179.229 61.0488C179.78 59.5254 180.224 58.2982 180.562 57.3672C180.901 56.3939 181.155 55.6745 181.324 55.209C181.409 54.9974 181.324 54.68 181.07 54.2568C180.859 53.8337 180.52 53.474 180.055 53.1777C179.632 52.8392 179.124 52.6699 178.531 52.6699C176.627 52.6699 174.723 54.5742 172.818 58.3828C170.956 62.1491 169.031 66.8464 167.042 72.4746L165.899 75.6484H151.808L149.967 81.8691ZM256.607 132.27C261.305 132.27 265.473 130.408 269.112 126.684C272.794 122.917 275.65 118.178 277.682 112.465C279.713 106.752 280.729 101.103 280.729 95.5166C280.729 93.6546 280.411 91.0732 279.776 87.7725C279.142 84.4294 278.02 81.3825 276.412 78.6318C274.846 75.8389 272.73 74.4424 270.064 74.4424C268.456 74.4424 267.25 74.9502 266.446 75.9658C265.642 76.9814 265.24 78.3568 265.24 80.0918C265.24 81.7422 265.515 83.2868 266.065 84.7256C266.658 86.1644 267.568 87.9417 268.795 90.0576C270.276 92.5967 271.397 94.8818 272.159 96.9131C272.921 98.9443 273.302 101.314 273.302 104.022C273.302 107.535 272.667 110.814 271.397 113.861C270.17 116.908 268.393 119.363 266.065 121.225C263.738 123.044 261.008 123.954 257.877 123.954C254.28 123.954 251.445 123.129 249.371 121.479C247.34 119.828 245.774 117.522 244.674 114.56C244.674 114.771 245.541 113.417 247.276 110.497C249.054 107.535 250.641 104.234 252.037 100.595C253.434 96.9131 254.132 93.3161 254.132 89.8037C254.132 87.5609 253.857 85.2757 253.307 82.9482C252.757 80.6208 251.762 78.6318 250.323 76.9814C248.884 75.2887 246.938 74.4424 244.483 74.4424C241.606 74.4424 239.151 75.4368 237.12 77.4258C235.089 79.3724 233.565 82.0173 232.55 85.3604C231.534 88.6611 231.026 92.3216 231.026 96.3418C231.026 98.1615 231.344 100.404 231.979 103.07C232.656 105.736 233.354 108.148 234.073 110.307C234.793 112.465 235.258 113.84 235.47 114.433C235.3 115.237 234.391 116.464 232.74 118.114C231.09 119.765 229.164 121.225 226.964 122.494C224.806 123.764 222.796 124.398 220.934 124.398C218.395 124.398 216.3 123.616 214.649 122.05C212.999 120.442 211.793 118.516 211.031 116.273C210.312 113.988 209.952 111.83 209.952 109.799C209.952 106.879 210.375 103.938 211.222 100.976C212.068 98.0133 213.295 94.5221 214.903 90.502C216.554 86.1009 217.633 82.9482 218.141 81.0439C218.225 80.7054 218.373 80.1764 218.585 79.457C218.839 78.7376 218.966 78.1029 218.966 77.5527C218.966 76.2832 218.098 75.6484 216.363 75.6484H197.638C195.733 75.6484 193.914 76.1351 192.179 77.1084C190.444 78.0394 189.047 79.3301 187.989 80.9805C186.931 82.5885 186.402 84.3447 186.402 86.249C186.402 87.307 186.656 88.3649 187.164 89.4229C187.672 90.4385 188.349 91.2848 189.195 91.9619C190.084 92.639 191.036 92.9775 192.052 92.9775C192.898 92.9775 193.554 92.7025 194.02 92.1523C194.485 91.6022 194.718 90.8617 194.718 89.9307C194.718 89.5075 194.485 88.8304 194.02 87.8994C193.3 86.5452 192.94 85.3392 192.94 84.2812C192.94 83.6465 193.194 83.1387 193.702 82.7578C194.252 82.3346 194.802 82.123 195.353 82.123H210.587C211.137 82.123 211.412 82.3135 211.412 82.6943C211.412 83.0752 210.82 84.3024 209.635 86.376C207.096 90.904 204.938 95.3896 203.16 99.833C201.383 104.234 200.494 108.783 200.494 113.48C200.494 117.12 201.298 120.378 202.906 123.256C204.514 126.091 206.673 128.313 209.381 129.921C212.132 131.487 215.115 132.27 218.331 132.27C221.886 132.27 225.419 131.127 228.932 128.842C232.486 126.514 235.745 123.806 238.707 120.717C239.934 122.452 241.098 123.996 242.198 125.351C243.341 126.705 245.203 128.207 247.784 129.857C250.366 131.465 253.307 132.27 256.607 132.27ZM242.325 109.608C239.828 102.965 238.58 96.8919 238.58 91.3906C238.58 88.4707 239.046 85.9951 239.977 83.9639C240.95 81.9326 242.516 80.917 244.674 80.917C248.059 80.917 249.752 83.7311 249.752 89.3594C249.752 93.168 249.033 96.8708 247.594 100.468C246.197 104.065 244.441 107.112 242.325 109.608ZM344.586 98.627C344.586 93.2949 343.486 88.8092 341.285 85.1699C339.085 81.5306 336.228 78.8434 332.716 77.1084C329.203 75.3311 325.458 74.4424 321.48 74.4424C316.445 74.4424 311.599 75.8177 306.944 78.5684C302.332 81.2767 298.565 85.1699 295.646 90.248C292.768 95.2839 291.329 101.103 291.329 107.704C291.329 113.078 292.408 117.606 294.566 121.288C296.767 124.97 299.645 127.72 303.199 129.54C306.754 131.317 310.562 132.206 314.625 132.206C320.38 132.206 325.543 130.64 330.113 127.509C334.684 124.335 338.238 120.188 340.777 115.067C343.316 109.905 344.586 104.424 344.586 98.627ZM314.117 126.176C311.874 126.176 309.822 125.52 307.96 124.208C306.14 122.854 304.68 120.823 303.58 118.114C302.522 115.406 301.993 112.063 301.993 108.085C301.993 102.626 303.009 97.8018 305.04 93.6123C307.114 89.4229 309.737 86.2067 312.911 83.9639C316.085 81.6787 319.238 80.5361 322.369 80.5361C325.628 80.5361 328.315 81.9749 330.431 84.8525C332.547 87.6878 333.604 91.9408 333.604 97.6113C333.604 103.79 332.631 109.037 330.685 113.354C328.78 117.67 326.326 120.886 323.321 123.002C320.317 125.118 317.249 126.176 314.117 126.176ZM370.104 75.6484C366.253 75.6484 362.698 77.0661 359.439 79.9014C356.223 82.7367 353.028 86.4818 349.854 91.1367L353.282 94.374C354.848 91.8773 356.139 89.9095 357.154 88.4707C358.17 87.0319 359.397 85.6566 360.836 84.3447C362.317 82.9906 363.756 82.3135 365.152 82.3135C366.168 82.3135 366.866 82.6732 367.247 83.3926C367.628 84.0697 367.818 84.7256 367.818 85.3604C367.818 87.3493 367.311 90.5866 366.295 95.0723C365.322 99.5156 363.544 105.631 360.963 113.417C360.413 115.067 360.138 115.893 360.138 115.893C359.291 118.262 358.657 120.188 358.233 121.669C357.81 123.15 357.599 124.525 357.599 125.795C357.599 127.868 357.937 129.392 358.614 130.365C359.334 131.339 360.265 131.825 361.407 131.825C363.142 131.825 364.666 131.212 365.978 129.984C367.289 128.757 368.644 126.853 370.04 124.271C371.733 120.674 374.06 116.358 377.022 111.322C380.027 106.286 383.116 101.674 386.29 97.4844C389.464 93.2949 392.193 90.6289 394.479 89.4863C395.029 89.1901 395.748 88.8727 396.637 88.5342C397.525 88.1956 398.224 87.9206 398.731 87.709C400.805 86.9049 402.477 86.2067 403.746 85.6143C405.058 85.0218 406.158 84.2601 407.047 83.3291C407.978 82.3981 408.443 81.2979 408.443 80.0283C408.443 78.5472 407.83 77.2354 406.603 76.0928C405.375 74.9502 404.021 74.3789 402.54 74.3789C399.578 74.3789 396.658 75.6696 393.78 78.251C390.945 80.79 388.427 83.7523 386.227 87.1377C384.026 90.5231 381.572 94.6068 378.863 99.3887C377.805 101.293 376.874 102.901 376.07 104.213L370.23 114.623L369.024 114.115L370.167 110.624C372.537 103.557 374.272 98.0133 375.372 93.9932C376.515 89.9307 377.086 86.5241 377.086 83.7734C377.086 81.3613 376.493 79.4147 375.309 77.9336C374.166 76.4102 372.431 75.6484 370.104 75.6484ZM465.572 87.2646C465.572 82.7367 464.133 79.4782 461.256 77.4893C458.421 75.458 455.014 74.4424 451.036 74.4424C447.228 74.4424 443.419 74.9714 439.61 76.0293C435.802 77.0449 432.205 78.4202 428.819 80.1553L435.167 53.749C435.717 51.3369 435.992 49.5807 435.992 48.4805C435.992 47.6764 435.802 47.1475 435.421 46.8936C435.04 46.6396 434.659 46.5127 434.278 46.5127H434.215C433.707 46.5127 433.305 46.5339 433.009 46.5762L414.156 48.8613C413.86 48.9036 413.479 49.4961 413.014 50.6387C412.59 51.7812 412.379 52.6488 412.379 53.2412C412.379 53.4951 412.485 53.6855 412.696 53.8125C412.908 53.9395 413.395 54.0029 414.156 54.0029H425.455L408.951 116.273L408.507 117.924C407.999 119.659 407.618 121.14 407.364 122.367C407.11 123.552 406.983 124.695 406.983 125.795C406.983 127.53 407.343 128.842 408.062 129.73C408.824 130.577 410.178 131 412.125 131C413.648 131 414.854 130.577 415.743 129.73C416.674 128.842 417.394 127.678 417.901 126.239C418.451 124.758 419.065 122.642 419.742 119.892L423.233 105.038C426.45 106.392 430.11 107.069 434.215 107.069C435.908 107.069 437.177 107.048 438.023 107.006L441.197 119.066C442.213 122.875 443.165 125.71 444.054 127.572C444.985 129.434 445.979 130.661 447.037 131.254C448.095 131.889 449.513 132.206 451.29 132.206C453.744 132.206 456.093 131.423 458.336 129.857C460.579 128.249 462.631 126.303 464.493 124.018C466.397 121.69 468.894 118.389 471.983 114.115L467.984 110.814C465.107 114.496 462.906 117.226 461.383 119.003C459.902 120.78 458.569 122.156 457.384 123.129C456.199 124.06 455.099 124.525 454.083 124.525C452.644 124.525 451.311 123.15 450.084 120.399C448.899 117.606 447.651 112.613 446.339 105.419C448.582 104.869 450.994 104.107 453.575 103.134C456.157 102.16 458.801 100.341 461.51 97.6748C464.218 95.0088 465.572 91.5387 465.572 87.2646ZM430.089 101.483C427.677 101.483 425.646 101.399 423.995 101.229L428.058 85.7412C428.692 85.445 430.089 84.8737 432.247 84.0273C434.448 83.1387 436.86 82.2923 439.483 81.4883C442.107 80.6419 444.181 80.2188 445.704 80.2188C448.497 80.2188 450.888 80.8112 452.877 81.9961C454.866 83.1387 455.86 84.9372 455.86 87.3916C455.86 90.6501 454.549 93.3372 451.925 95.4531C449.301 97.569 446.021 99.1136 442.086 100.087C438.15 101.018 434.151 101.483 430.089 101.483Z" fill="#515151"/>
<path d="M59.209 99.1016C59.1243 100.286 59.082 102.021 59.082 104.307C59.0397 108.031 58.8281 110.929 58.4473 113.003C58.0664 115.076 57.0719 116.812 55.4639 118.208C53.8981 119.604 51.4225 120.303 48.0371 120.303C47.2754 121.657 46.8945 122.821 46.8945 123.794C46.8945 124.598 47.0426 125 47.3389 125H78.9502C79.2041 125 79.3734 124.767 79.458 124.302C79.5426 123.836 79.585 123.434 79.585 123.096C79.585 121.403 79.3734 120.472 78.9502 120.303C75.4378 120.303 72.793 119.753 71.0156 118.652C69.2383 117.552 68.3919 115.415 68.4766 112.241L70.1904 44.7656H59.8438L16.4258 111.606C14.3945 114.696 12.2575 116.917 10.0146 118.271C7.81413 119.626 4.95768 120.303 1.44531 120.303C0.641276 121.572 0.239258 122.736 0.239258 123.794C0.239258 124.598 0.408529 125 0.74707 125H32.9297C33.1413 125 33.2894 124.746 33.374 124.238C33.4587 123.73 33.501 123.35 33.501 123.096C33.501 121.403 33.3105 120.472 32.9297 120.303C30.4753 120.303 28.3382 120.049 26.5186 119.541C24.6989 118.991 23.7891 117.785 23.7891 115.923C23.7891 114.823 24.5719 113.003 26.1377 110.464C27.7458 107.882 29.8193 104.709 32.3584 100.942L33.6279 99.1016H59.209ZM59.9707 59.1748L59.3994 95.166H36.9287L59.9707 59.1748ZM107.324 69.6484C103.473 69.6484 99.9186 71.0661 96.6602 73.9014C93.444 76.7367 90.249 80.4818 87.0752 85.1367L90.5029 88.374C92.0687 85.8773 93.3594 83.9095 94.375 82.4707C95.3906 81.0319 96.6178 79.6566 98.0566 78.3447C99.5378 76.9906 100.977 76.3135 102.373 76.3135C103.389 76.3135 104.087 76.6732 104.468 77.3926C104.849 78.0697 105.039 78.7256 105.039 79.3604C105.039 81.3493 104.531 84.5866 103.516 89.0723C102.542 93.5156 100.765 99.6305 98.1836 107.417C97.6335 109.067 97.3584 109.893 97.3584 109.893C96.512 112.262 95.8773 114.188 95.4541 115.669C95.0309 117.15 94.8193 118.525 94.8193 119.795C94.8193 121.868 95.1579 123.392 95.835 124.365C96.5544 125.339 97.4854 125.825 98.6279 125.825C100.363 125.825 101.886 125.212 103.198 123.984C104.51 122.757 105.864 120.853 107.261 118.271C108.953 114.674 111.281 110.358 114.243 105.322C117.248 100.286 120.337 95.6738 123.511 91.4844C126.685 87.2949 129.414 84.6289 131.699 83.4863C132.249 83.1901 132.969 82.8727 133.857 82.5342C134.746 82.1956 135.444 81.9206 135.952 81.709C138.026 80.9049 139.697 80.2067 140.967 79.6143C142.279 79.0218 143.379 78.2601 144.268 77.3291C145.199 76.3981 145.664 75.2979 145.664 74.0283C145.664 72.5472 145.05 71.2354 143.823 70.0928C142.596 68.9502 141.242 68.3789 139.761 68.3789C136.799 68.3789 133.879 69.6696 131.001 72.251C128.166 74.79 125.648 77.7523 123.447 81.1377C121.247 84.5231 118.792 88.6068 116.084 93.3887C115.026 95.293 114.095 96.901 113.291 98.2129L107.451 108.623L106.245 108.115L107.388 104.624C109.757 97.557 111.493 92.0133 112.593 87.9932C113.735 83.9307 114.307 80.5241 114.307 77.7734C114.307 75.3613 113.714 73.4147 112.529 71.9336C111.387 70.4102 109.652 69.6484 107.324 69.6484ZM140.967 75.8691H153.853L146.489 100.752C144.797 106.38 143.95 111.204 143.95 115.225L143.887 115.288C143.887 118.716 144.606 121.424 146.045 123.413C147.484 125.36 149.959 126.333 153.472 126.333C156.73 126.333 159.65 125.317 162.231 123.286C164.813 121.255 167.225 118.568 169.468 115.225L173.149 109.258L169.023 106.401L165.723 112.114C162.93 116.938 160.327 119.351 157.915 119.351C155.63 119.351 154.487 117.7 154.487 114.399C154.487 113.384 154.657 112.262 154.995 111.035C155.376 109.808 155.609 109.004 155.693 108.623L164.136 75.9326H179.243L180.576 69.6484H165.088C165.469 68.5482 166.146 66.6439 167.119 63.9355C168.092 61.1849 169.129 58.2227 170.229 55.0488C170.78 53.5254 171.224 52.2982 171.562 51.3672C171.901 50.3939 172.155 49.6745 172.324 49.209C172.409 48.9974 172.324 48.68 172.07 48.2568C171.859 47.8337 171.52 47.474 171.055 47.1777C170.632 46.8392 170.124 46.6699 169.531 46.6699C167.627 46.6699 165.723 48.5742 163.818 52.3828C161.956 56.1491 160.031 60.8464 158.042 66.4746L156.899 69.6484H142.808L140.967 75.8691ZM247.607 126.27C252.305 126.27 256.473 124.408 260.112 120.684C263.794 116.917 266.65 112.178 268.682 106.465C270.713 100.752 271.729 95.1025 271.729 89.5166C271.729 87.6546 271.411 85.0732 270.776 81.7725C270.142 78.4294 269.02 75.3825 267.412 72.6318C265.846 69.8389 263.73 68.4424 261.064 68.4424C259.456 68.4424 258.25 68.9502 257.446 69.9658C256.642 70.9814 256.24 72.3568 256.24 74.0918C256.24 75.7422 256.515 77.2868 257.065 78.7256C257.658 80.1644 258.568 81.9417 259.795 84.0576C261.276 86.5967 262.397 88.8818 263.159 90.9131C263.921 92.9443 264.302 95.3141 264.302 98.0225C264.302 101.535 263.667 104.814 262.397 107.861C261.17 110.908 259.393 113.363 257.065 115.225C254.738 117.044 252.008 117.954 248.877 117.954C245.28 117.954 242.445 117.129 240.371 115.479C238.34 113.828 236.774 111.522 235.674 108.56C235.674 108.771 236.541 107.417 238.276 104.497C240.054 101.535 241.641 98.234 243.037 94.5947C244.434 90.9131 245.132 87.3161 245.132 83.8037C245.132 81.5609 244.857 79.2757 244.307 76.9482C243.757 74.6208 242.762 72.6318 241.323 70.9814C239.884 69.2887 237.938 68.4424 235.483 68.4424C232.606 68.4424 230.151 69.4368 228.12 71.4258C226.089 73.3724 224.565 76.0173 223.55 79.3604C222.534 82.6611 222.026 86.3216 222.026 90.3418C222.026 92.1615 222.344 94.4043 222.979 97.0703C223.656 99.7363 224.354 102.148 225.073 104.307C225.793 106.465 226.258 107.84 226.47 108.433C226.3 109.237 225.391 110.464 223.74 112.114C222.09 113.765 220.164 115.225 217.964 116.494C215.806 117.764 213.796 118.398 211.934 118.398C209.395 118.398 207.3 117.616 205.649 116.05C203.999 114.442 202.793 112.516 202.031 110.273C201.312 107.988 200.952 105.83 200.952 103.799C200.952 100.879 201.375 97.9378 202.222 94.9756C203.068 92.0133 204.295 88.5221 205.903 84.502C207.554 80.1009 208.633 76.9482 209.141 75.0439C209.225 74.7054 209.373 74.1764 209.585 73.457C209.839 72.7376 209.966 72.1029 209.966 71.5527C209.966 70.2832 209.098 69.6484 207.363 69.6484H188.638C186.733 69.6484 184.914 70.1351 183.179 71.1084C181.444 72.0394 180.047 73.3301 178.989 74.9805C177.931 76.5885 177.402 78.3447 177.402 80.249C177.402 81.307 177.656 82.3649 178.164 83.4229C178.672 84.4385 179.349 85.2848 180.195 85.9619C181.084 86.639 182.036 86.9775 183.052 86.9775C183.898 86.9775 184.554 86.7025 185.02 86.1523C185.485 85.6022 185.718 84.8617 185.718 83.9307C185.718 83.5075 185.485 82.8304 185.02 81.8994C184.3 80.5452 183.94 79.3392 183.94 78.2812C183.94 77.6465 184.194 77.1387 184.702 76.7578C185.252 76.3346 185.802 76.123 186.353 76.123H201.587C202.137 76.123 202.412 76.3135 202.412 76.6943C202.412 77.0752 201.82 78.3024 200.635 80.376C198.096 84.904 195.938 89.3896 194.16 93.833C192.383 98.234 191.494 102.783 191.494 107.48C191.494 111.12 192.298 114.378 193.906 117.256C195.514 120.091 197.673 122.313 200.381 123.921C203.132 125.487 206.115 126.27 209.331 126.27C212.886 126.27 216.419 125.127 219.932 122.842C223.486 120.514 226.745 117.806 229.707 114.717C230.934 116.452 232.098 117.996 233.198 119.351C234.341 120.705 236.203 122.207 238.784 123.857C241.366 125.465 244.307 126.27 247.607 126.27ZM233.325 103.608C230.828 96.9645 229.58 90.8919 229.58 85.3906C229.58 82.4707 230.046 79.9951 230.977 77.9639C231.95 75.9326 233.516 74.917 235.674 74.917C239.059 74.917 240.752 77.7311 240.752 83.3594C240.752 87.168 240.033 90.8708 238.594 94.4678C237.197 98.0648 235.441 101.112 233.325 103.608ZM335.586 92.627C335.586 87.2949 334.486 82.8092 332.285 79.1699C330.085 75.5306 327.228 72.8434 323.716 71.1084C320.203 69.3311 316.458 68.4424 312.48 68.4424C307.445 68.4424 302.599 69.8177 297.944 72.5684C293.332 75.2767 289.565 79.1699 286.646 84.248C283.768 89.2839 282.329 95.1025 282.329 101.704C282.329 107.078 283.408 111.606 285.566 115.288C287.767 118.97 290.645 121.72 294.199 123.54C297.754 125.317 301.562 126.206 305.625 126.206C311.38 126.206 316.543 124.64 321.113 121.509C325.684 118.335 329.238 114.188 331.777 109.067C334.316 103.905 335.586 98.4245 335.586 92.627ZM305.117 120.176C302.874 120.176 300.822 119.52 298.96 118.208C297.14 116.854 295.68 114.823 294.58 112.114C293.522 109.406 292.993 106.063 292.993 102.085C292.993 96.626 294.009 91.8018 296.04 87.6123C298.114 83.4229 300.737 80.2067 303.911 77.9639C307.085 75.6787 310.238 74.5361 313.369 74.5361C316.628 74.5361 319.315 75.9749 321.431 78.8525C323.547 81.6878 324.604 85.9408 324.604 91.6113C324.604 97.7897 323.631 103.037 321.685 107.354C319.78 111.67 317.326 114.886 314.321 117.002C311.317 119.118 308.249 120.176 305.117 120.176ZM361.104 69.6484C357.253 69.6484 353.698 71.0661 350.439 73.9014C347.223 76.7367 344.028 80.4818 340.854 85.1367L344.282 88.374C345.848 85.8773 347.139 83.9095 348.154 82.4707C349.17 81.0319 350.397 79.6566 351.836 78.3447C353.317 76.9906 354.756 76.3135 356.152 76.3135C357.168 76.3135 357.866 76.6732 358.247 77.3926C358.628 78.0697 358.818 78.7256 358.818 79.3604C358.818 81.3493 358.311 84.5866 357.295 89.0723C356.322 93.5156 354.544 99.6305 351.963 107.417C351.413 109.067 351.138 109.893 351.138 109.893C350.291 112.262 349.657 114.188 349.233 115.669C348.81 117.15 348.599 118.525 348.599 119.795C348.599 121.868 348.937 123.392 349.614 124.365C350.334 125.339 351.265 125.825 352.407 125.825C354.142 125.825 355.666 125.212 356.978 123.984C358.289 122.757 359.644 120.853 361.04 118.271C362.733 114.674 365.06 110.358 368.022 105.322C371.027 100.286 374.116 95.6738 377.29 91.4844C380.464 87.2949 383.193 84.6289 385.479 83.4863C386.029 83.1901 386.748 82.8727 387.637 82.5342C388.525 82.1956 389.224 81.9206 389.731 81.709C391.805 80.9049 393.477 80.2067 394.746 79.6143C396.058 79.0218 397.158 78.2601 398.047 77.3291C398.978 76.3981 399.443 75.2979 399.443 74.0283C399.443 72.5472 398.83 71.2354 397.603 70.0928C396.375 68.9502 395.021 68.3789 393.54 68.3789C390.578 68.3789 387.658 69.6696 384.78 72.251C381.945 74.79 379.427 77.7523 377.227 81.1377C375.026 84.5231 372.572 88.6068 369.863 93.3887C368.805 95.293 367.874 96.901 367.07 98.2129L361.23 108.623L360.024 108.115L361.167 104.624C363.537 97.557 365.272 92.0133 366.372 87.9932C367.515 83.9307 368.086 80.5241 368.086 77.7734C368.086 75.3613 367.493 73.4147 366.309 71.9336C365.166 70.4102 363.431 69.6484 361.104 69.6484ZM456.572 81.2646C456.572 76.7367 455.133 73.4782 452.256 71.4893C449.421 69.458 446.014 68.4424 442.036 68.4424C438.228 68.4424 434.419 68.9714 430.61 70.0293C426.802 71.0449 423.205 72.4202 419.819 74.1553L426.167 47.749C426.717 45.3369 426.992 43.5807 426.992 42.4805C426.992 41.6764 426.802 41.1475 426.421 40.8936C426.04 40.6396 425.659 40.5127 425.278 40.5127H425.215C424.707 40.5127 424.305 40.5339 424.009 40.5762L405.156 42.8613C404.86 42.9036 404.479 43.4961 404.014 44.6387C403.59 45.7812 403.379 46.6488 403.379 47.2412C403.379 47.4951 403.485 47.6855 403.696 47.8125C403.908 47.9395 404.395 48.0029 405.156 48.0029H416.455L399.951 110.273L399.507 111.924C398.999 113.659 398.618 115.14 398.364 116.367C398.11 117.552 397.983 118.695 397.983 119.795C397.983 121.53 398.343 122.842 399.062 123.73C399.824 124.577 401.178 125 403.125 125C404.648 125 405.854 124.577 406.743 123.73C407.674 122.842 408.394 121.678 408.901 120.239C409.451 118.758 410.065 116.642 410.742 113.892L414.233 99.0381C417.45 100.392 421.11 101.069 425.215 101.069C426.908 101.069 428.177 101.048 429.023 101.006L432.197 113.066C433.213 116.875 434.165 119.71 435.054 121.572C435.985 123.434 436.979 124.661 438.037 125.254C439.095 125.889 440.513 126.206 442.29 126.206C444.744 126.206 447.093 125.423 449.336 123.857C451.579 122.249 453.631 120.303 455.493 118.018C457.397 115.69 459.894 112.389 462.983 108.115L458.984 104.814C456.107 108.496 453.906 111.226 452.383 113.003C450.902 114.78 449.569 116.156 448.384 117.129C447.199 118.06 446.099 118.525 445.083 118.525C443.644 118.525 442.311 117.15 441.084 114.399C439.899 111.606 438.651 106.613 437.339 99.4189C439.582 98.8688 441.994 98.1071 444.575 97.1338C447.157 96.1605 449.801 94.3408 452.51 91.6748C455.218 89.0088 456.572 85.5387 456.572 81.2646ZM421.089 95.4834C418.677 95.4834 416.646 95.3988 414.995 95.2295L419.058 79.7412C419.692 79.445 421.089 78.8737 423.247 78.0273C425.448 77.1387 427.86 76.2923 430.483 75.4883C433.107 74.6419 435.181 74.2188 436.704 74.2188C439.497 74.2188 441.888 74.8112 443.877 75.9961C445.866 77.1387 446.86 78.9372 446.86 81.3916C446.86 84.6501 445.549 87.3372 442.925 89.4531C440.301 91.569 437.021 93.1136 433.086 94.0869C429.15 95.0179 425.151 95.4834 421.089 95.4834Z" fill="#FCE9CA"/>
</svg>
