<svg width="198" height="40" viewBox="0 0 198 40" fill="none" xmlns="http://www.w3.org/2000/svg">
<path d="M52.9233 24.9238V26.0737H47.5912V24.9238H52.9233ZM47.8696 15.4097V26.0737H46.456V15.4097H47.8696ZM56.058 15.4097V26.0737H54.6445V15.4097H56.058ZM66.832 15.4097V26.0737H65.4111L60.0424 17.8486V26.0737H58.6288V15.4097H60.0424L65.433 23.6567V15.4097H66.832ZM70.7504 15.4097V26.0737H69.3369V15.4097H70.7504ZM77.1884 15.4097L72.7573 20.3828L70.267 22.9683L70.0327 21.4595L71.9077 19.394L75.4892 15.4097H77.1884ZM75.8261 26.0737L71.8784 20.8735L72.7206 19.7529L77.5107 26.0737H75.8261ZM85.5307 24.9238V26.0737H79.8837V24.9238H85.5307ZM80.1694 15.4097V26.0737H78.7558V15.4097H80.1694ZM84.7836 19.9946V21.1445H79.8837V19.9946H84.7836ZM85.4575 15.4097V16.5669H79.8837V15.4097H85.4575ZM90.1669 26.0737H87.9404L87.955 24.9238H90.1669C90.9286 24.9238 91.5634 24.7651 92.0712 24.4478C92.579 24.1255 92.9599 23.6763 93.2138 23.1001C93.4726 22.519 93.602 21.8403 93.602 21.064V20.4121C93.602 19.8018 93.5287 19.2598 93.3823 18.7861C93.2358 18.3076 93.0209 17.9048 92.7377 17.5776C92.4545 17.2456 92.1078 16.9941 91.6977 16.8232C91.2924 16.6523 90.8261 16.5669 90.2988 16.5669H87.8964V15.4097H90.2988C90.997 15.4097 91.6342 15.5269 92.2104 15.7612C92.7866 15.9907 93.2822 16.3252 93.6972 16.7646C94.1171 17.1992 94.4394 17.7266 94.664 18.3467C94.8886 18.9619 95.0009 19.6553 95.0009 20.4268V21.064C95.0009 21.8354 94.8886 22.5312 94.664 23.1514C94.4394 23.7666 94.1147 24.2915 93.6899 24.7261C93.27 25.1606 92.7621 25.4951 92.1664 25.7295C91.5756 25.959 90.9091 26.0737 90.1669 26.0737ZM88.6948 15.4097V26.0737H87.2812V15.4097H88.6948ZM98.6411 15.4097V26.0737H97.2275V15.4097H98.6411ZM109.415 15.4097V26.0737H107.994L102.625 17.8486V26.0737H101.212V15.4097H102.625L108.016 23.6567V15.4097H109.415Z" fill="black"/>
<path d="M155.684 10.2161L164.971 19.5035L155.684 28.7909" stroke="black" stroke-linecap="round"/>
<path d="M164.971 10.2161L174.259 19.5035L164.971 28.7909" stroke="black" stroke-linecap="round"/>
<rect x="1.08432" y="0.5" width="195.893" height="38.0071" rx="14.5" stroke="black"/>
</svg>
