<svg width="212" height="42" viewBox="0 0 212 42" fill="none" xmlns="http://www.w3.org/2000/svg">
<path d="M53.6084 20.8179H50.7593V19.668H53.6084C54.1602 19.668 54.6069 19.5801 54.9487 19.4043C55.2905 19.2285 55.5396 18.9844 55.6958 18.6719C55.8569 18.3594 55.9375 18.0029 55.9375 17.6025C55.9375 17.2363 55.8569 16.8921 55.6958 16.5698C55.5396 16.2476 55.2905 15.9888 54.9487 15.7935C54.6069 15.5933 54.1602 15.4932 53.6084 15.4932H51.0889V25H49.6753V14.3359H53.6084C54.4141 14.3359 55.0952 14.4751 55.6519 14.7534C56.2085 15.0317 56.6309 15.4175 56.9189 15.9106C57.207 16.3989 57.3511 16.958 57.3511 17.5879C57.3511 18.2715 57.207 18.855 56.9189 19.3384C56.6309 19.8218 56.2085 20.1904 55.6519 20.4443C55.0952 20.6934 54.4141 20.8179 53.6084 20.8179ZM59.1382 14.3359H62.6685C63.4692 14.3359 64.1455 14.458 64.6973 14.7021C65.2539 14.9463 65.6763 15.3076 65.9644 15.7861C66.2573 16.2598 66.4038 16.8433 66.4038 17.5366C66.4038 18.0249 66.3037 18.4717 66.1035 18.877C65.9082 19.2773 65.625 19.6191 65.2539 19.9023C64.8877 20.1807 64.4482 20.3882 63.9355 20.5249L63.54 20.6787H60.2222L60.2075 19.5288H62.7124C63.2202 19.5288 63.6426 19.4409 63.9795 19.2651C64.3164 19.0845 64.5703 18.8428 64.7412 18.54C64.9121 18.2373 64.9976 17.9028 64.9976 17.5366C64.9976 17.1265 64.917 16.7676 64.7559 16.46C64.5947 16.1523 64.3408 15.9155 63.9941 15.7495C63.6523 15.5786 63.2104 15.4932 62.6685 15.4932H60.5518V25H59.1382V14.3359ZM65.3711 25L62.7783 20.166L64.2505 20.1587L66.8799 24.9121V25H65.3711ZM76.5918 19.3311V20.0049C76.5918 20.8057 76.4917 21.5234 76.2915 22.1582C76.0913 22.793 75.8032 23.3325 75.4272 23.7769C75.0513 24.2212 74.5996 24.5605 74.0723 24.7949C73.5498 25.0293 72.9639 25.1465 72.3145 25.1465C71.6846 25.1465 71.106 25.0293 70.5786 24.7949C70.0562 24.5605 69.6021 24.2212 69.2163 23.7769C68.8354 23.3325 68.54 22.793 68.3301 22.1582C68.1201 21.5234 68.0151 20.8057 68.0151 20.0049V19.3311C68.0151 18.5303 68.1177 17.8149 68.3228 17.1851C68.5327 16.5503 68.8281 16.0107 69.209 15.5664C69.5898 15.1172 70.0415 14.7754 70.564 14.541C71.0913 14.3066 71.6699 14.1895 72.2998 14.1895C72.9492 14.1895 73.5352 14.3066 74.0576 14.541C74.585 14.7754 75.0366 15.1172 75.4126 15.5664C75.7935 16.0107 76.084 16.5503 76.2842 17.1851C76.4893 17.8149 76.5918 18.5303 76.5918 19.3311ZM75.1929 20.0049V19.3164C75.1929 18.6816 75.127 18.1201 74.9951 17.6318C74.8682 17.1436 74.6802 16.7334 74.4312 16.4014C74.1821 16.0693 73.877 15.8179 73.5156 15.647C73.1592 15.4761 72.7539 15.3906 72.2998 15.3906C71.8604 15.3906 71.4624 15.4761 71.106 15.647C70.7544 15.8179 70.4517 16.0693 70.1978 16.4014C69.9487 16.7334 69.7559 17.1436 69.6191 17.6318C69.4824 18.1201 69.4141 18.6816 69.4141 19.3164V20.0049C69.4141 20.6445 69.4824 21.2109 69.6191 21.7041C69.7559 22.1924 69.9512 22.605 70.2051 22.9419C70.4639 23.2739 70.769 23.5254 71.1206 23.6963C71.4771 23.8672 71.875 23.9526 72.3145 23.9526C72.7734 23.9526 73.1812 23.8672 73.5376 23.6963C73.894 23.5254 74.1943 23.2739 74.4385 22.9419C74.6875 22.605 74.8755 22.1924 75.0024 21.7041C75.1294 21.2109 75.1929 20.6445 75.1929 20.0049ZM83.1836 21.8872V14.3359H84.5898V21.8872C84.5898 22.5903 84.4458 23.1836 84.1577 23.667C83.8696 24.1504 83.4717 24.519 82.9639 24.7729C82.4609 25.022 81.8823 25.1465 81.228 25.1465C80.5737 25.1465 79.9927 25.0342 79.4849 24.8096C78.9771 24.585 78.5791 24.2432 78.291 23.7842C78.0029 23.3252 77.8589 22.7466 77.8589 22.0483H79.2725C79.2725 22.4976 79.3555 22.8662 79.5215 23.1543C79.6875 23.4424 79.917 23.6548 80.21 23.7915C80.5078 23.9282 80.8472 23.9966 81.228 23.9966C81.5991 23.9966 81.9312 23.9185 82.2241 23.7622C82.522 23.6011 82.7563 23.3643 82.9272 23.0518C83.0981 22.7344 83.1836 22.3462 83.1836 21.8872ZM93.7598 23.8501V25H88.1128V23.8501H93.7598ZM88.3984 14.3359V25H86.9849V14.3359H88.3984ZM93.0127 18.9209V20.0708H88.1128V18.9209H93.0127ZM93.6865 14.3359V15.4932H88.1128V14.3359H93.6865ZM101.948 21.6089H103.354C103.281 22.2827 103.088 22.8857 102.776 23.418C102.463 23.9502 102.021 24.3726 101.45 24.6851C100.879 24.9927 100.166 25.1465 99.3115 25.1465C98.6865 25.1465 98.1177 25.0293 97.605 24.7949C97.0972 24.5605 96.6602 24.2285 96.2939 23.7988C95.9277 23.3643 95.6445 22.8442 95.4443 22.2388C95.249 21.6284 95.1514 20.9497 95.1514 20.2026V19.1406C95.1514 18.3936 95.249 17.7173 95.4443 17.1118C95.6445 16.5015 95.9302 15.979 96.3013 15.5444C96.6772 15.1099 97.1289 14.7754 97.6562 14.541C98.1836 14.3066 98.7769 14.1895 99.436 14.1895C100.242 14.1895 100.923 14.3408 101.479 14.6436C102.036 14.9463 102.468 15.3662 102.776 15.9033C103.088 16.4355 103.281 17.0532 103.354 17.7563H101.948C101.88 17.2583 101.753 16.8311 101.567 16.4746C101.382 16.1133 101.118 15.835 100.776 15.6396C100.435 15.4443 99.9878 15.3467 99.436 15.3467C98.9624 15.3467 98.5449 15.437 98.1836 15.6177C97.8271 15.7983 97.5269 16.0547 97.2827 16.3867C97.0435 16.7188 96.8628 17.1167 96.7407 17.5806C96.6187 18.0444 96.5576 18.5596 96.5576 19.126V20.2026C96.5576 20.7251 96.6113 21.2158 96.7188 21.6748C96.8311 22.1338 96.9995 22.5366 97.2241 22.8833C97.4487 23.23 97.7344 23.5034 98.0811 23.7036C98.4277 23.8989 98.8379 23.9966 99.3115 23.9966C99.9121 23.9966 100.391 23.9014 100.747 23.7109C101.104 23.5205 101.372 23.2471 101.553 22.8906C101.738 22.5342 101.87 22.1069 101.948 21.6089ZM109.001 14.3359V25H107.61V14.3359H109.001ZM112.429 14.3359V15.4932H104.189V14.3359H112.429ZM119.578 22.3047C119.578 22.0557 119.539 21.8359 119.46 21.6455C119.387 21.4502 119.255 21.2744 119.065 21.1182C118.879 20.9619 118.621 20.813 118.289 20.6714C117.961 20.5298 117.546 20.3857 117.043 20.2393C116.516 20.083 116.04 19.9097 115.615 19.7192C115.19 19.5239 114.827 19.3018 114.524 19.0527C114.221 18.8037 113.989 18.5181 113.828 18.1958C113.667 17.8735 113.586 17.5049 113.586 17.0898C113.586 16.6748 113.672 16.2915 113.843 15.9399C114.014 15.5884 114.258 15.2832 114.575 15.0244C114.897 14.7607 115.281 14.5557 115.725 14.4092C116.169 14.2627 116.665 14.1895 117.212 14.1895C118.013 14.1895 118.691 14.3433 119.248 14.6509C119.81 14.9536 120.237 15.3516 120.53 15.8447C120.823 16.333 120.969 16.8555 120.969 17.4121H119.563C119.563 17.0117 119.478 16.6577 119.307 16.3501C119.136 16.0376 118.877 15.7935 118.53 15.6177C118.184 15.437 117.744 15.3467 117.212 15.3467C116.709 15.3467 116.294 15.4224 115.967 15.5737C115.64 15.7251 115.396 15.9302 115.234 16.189C115.078 16.4478 115 16.7432 115 17.0752C115 17.2998 115.046 17.5049 115.139 17.6904C115.237 17.8711 115.386 18.0396 115.586 18.1958C115.791 18.3521 116.05 18.4961 116.362 18.6279C116.68 18.7598 117.058 18.8867 117.498 19.0088C118.103 19.1797 118.625 19.3701 119.065 19.5801C119.504 19.79 119.866 20.0269 120.149 20.2905C120.437 20.5493 120.649 20.8447 120.786 21.1768C120.928 21.5039 120.999 21.875 120.999 22.29C120.999 22.7246 120.911 23.1177 120.735 23.4692C120.559 23.8208 120.308 24.1211 119.98 24.3701C119.653 24.6191 119.26 24.812 118.801 24.9487C118.347 25.0806 117.839 25.1465 117.278 25.1465C116.785 25.1465 116.299 25.0781 115.82 24.9414C115.347 24.8047 114.915 24.5996 114.524 24.3262C114.138 24.0527 113.828 23.7158 113.594 23.3154C113.364 22.9102 113.25 22.4414 113.25 21.9092H114.656C114.656 22.2754 114.727 22.5903 114.868 22.854C115.01 23.1128 115.203 23.3276 115.447 23.4985C115.696 23.6694 115.977 23.7964 116.289 23.8794C116.606 23.9575 116.936 23.9966 117.278 23.9966C117.771 23.9966 118.188 23.9282 118.53 23.7915C118.872 23.6548 119.131 23.4595 119.307 23.2056C119.487 22.9517 119.578 22.6514 119.578 22.3047Z" fill="#454545"/>
<path d="M167 11L177 21L167 31" stroke="black" stroke-linecap="round"/>
<path d="M177 11L187 21L177 31" stroke="black" stroke-linecap="round"/>
<rect x="0.5" y="0.5" width="211" height="41" rx="14.5" stroke="black"/>
</svg>
